<svg xmlns="http://www.w3.org/2000/svg" xmlns:xlink="http://www.w3.org/1999/xlink" xmlns:inkscape="http://www.inkscape.org/namespaces/inkscape" version="1.1" width="154" height="130" viewBox="0 0 154 130">
<defs>
<path id="font_1_1" d="M.43798829 .072143558V-.005859375L.61499026 .0001373291V.0471344C.5529938 .0471344 .54599 .0471344 .54599 .086135867V.4501953L.36299134 .44218446V.39518739C.4249878 .39518739 .43199159 .39518739 .43199159 .3561859V.16514588C.43199159 .08314514 .3809967 .030136109 .30799867 .030136109 .23098755 .030136109 .22799683 .055130006 .22799683 .10914612V.4501953L.04499817 .44218446V.39518739C.10699463 .39518739 .11399841 .39518739 .11399841 .3561859V.12315369C.11399841 .01612854 .19499207-.005859375 .2939911-.005859375 .31999208-.005859375 .3919983-.005859375 .43798829 .072143558Z"/>
<path id="font_1_2" d="M.5059967 .37631227C.5119934 .39031983 .5159912 .3973236 .5799866 .3973236V.44433595C.5549927 .44232179 .526001 .44132997 .5009918 .44132997 .47599793 .44132997 .43099977 .44332887 .4099884 .44433595V.3973236C.42900086 .3973236 .45799256 .3943329 .45799256 .38632203 .45799256 .3853302 .45700074 .38331605 .45298768 .37431336L.33699037 .12416077 .20999146 .3973236H.2639923V.44433595C.23098755 .44232179 .14099121 .44132997 .13999939 .44132997 .11199951 .44132997 .066986087 .44332887 .025985718 .44433595V.3973236H.08999634L.2649994 .021087647C.2769928-.00390625 .2899933-.00390625 .30299378-.00390625 .31999208-.00390625 .32998658-.00091552737 .33999635 .020080567L.5059967 .37631227Z"/>
</defs>
<g>
<path transform="matrix(1.00002,0,0,-1.00006,76.55737,64.82899)" d="M20.23247-37.75407 75.50821 10.11624-20.23247 37.75407-75.50821-10.11624Z" fill="#ccccff" fill-opacity=".5"/>
<path transform="matrix(1.00002,0,0,-1.00006,76.55737,64.82899)" stroke-width=".3985" stroke-linecap="butt" stroke-miterlimit="10" stroke-linejoin="miter" fill="none" stroke="#000000" stroke-opacity=".5" d="M20.23247-37.75407 75.50821 10.11624-20.23247 37.75407-75.50821-10.11624Z"/>
</g>
<path transform="matrix(1.00002,0,0,-1.00006,76.55737,64.82899)" stroke-width="1.19553" stroke-linecap="butt" stroke-miterlimit="10" stroke-linejoin="miter" fill="none" stroke="#000000" d="M0 0-17.52155-15.17415"/>
<path transform="matrix(-.75591519,.6546693,.6546431,.7559453,58.583623,80.39536)" stroke-width="1.19553" stroke-linecap="round" stroke-linejoin="round" fill="none" stroke="#000000" d="M-3.02867 3.83081C-2.47534 1.53229-1.24231 .44691 0 0-1.24231-.44691-2.47534-1.53229-3.02867-3.83081"/>
<use data-text="u" xlink:href="#font_1_1" transform="matrix(9.962799,0,0,-9.963197,51.547868,86.40228)"/>
<path transform="matrix(1.00002,0,0,-1.00006,76.55737,64.82899)" stroke-width="1.19553" stroke-linecap="butt" stroke-miterlimit="10" stroke-linejoin="miter" fill="none" stroke="#000000" d="M0 0 30.765-8.88104"/>
<path transform="matrix(.96073928,.27735663,.27734555,-.9607776,107.89726,73.87636)" stroke-width="1.19553" stroke-linecap="round" stroke-linejoin="round" fill="none" stroke="#000000" d="M-3.02867 3.83081C-2.47534 1.53229-1.24231 .44691 0 0-1.24231-.44691-2.47534-1.53229-3.02867-3.83081"/>
<use data-text="v" xlink:href="#font_1_2" transform="matrix(9.962799,0,0,-9.963197,108.77002,79.657878)"/>
<path transform="matrix(1.00002,0,0,-1.00006,76.55737,64.82899)" d="M1.29514 0C1.29514 .71529 .71529 1.29514 0 1.29514-.71529 1.29514-1.29514 .71529-1.29514 0-1.29514-.71529-.71529-1.29514 0-1.29514 .71529-1.29514 1.29514-.71529 1.29514 0ZM0 0" fill="#ff0000"/>
<path transform="matrix(1.00002,0,0,-1.00006,76.55737,64.82899)" stroke-width=".79701" stroke-linecap="butt" stroke-miterlimit="10" stroke-linejoin="miter" fill="none" stroke="#ff0000" d="M0 0V63.0301"/>
<path transform="matrix(0,-1.00006,-1.00002,-0,76.55737,1.3965836)" stroke-width=".79701" stroke-linecap="round" stroke-linejoin="round" fill="none" stroke="#ff0000" d="M-2.55046 3.11095C-2.0845 1.24435-1.04614 .36295 0 0-1.04614-.36295-2.0845-1.24435-2.55046-3.11095"/>
<path transform="matrix(1.00002,0,0,-1.00006,76.55737,64.82899)" stroke-width=".79701" stroke-linecap="butt" stroke-miterlimit="10" stroke-linejoin="miter" fill="none" stroke="#ff0000" d="M0 0V-63.0301"/>
<path transform="matrix(0,1.00006,1.00002,0,76.55737,128.26139)" stroke-width=".79701" stroke-linecap="round" stroke-linejoin="round" fill="none" stroke="#ff0000" d="M-2.55046 3.11095C-2.0845 1.24435-1.04614 .36295 0 0-1.04614-.36295-2.0845-1.24435-2.55046-3.11095"/>
</svg>
