<svg xmlns="http://www.w3.org/2000/svg" xmlns:xlink="http://www.w3.org/1999/xlink" xmlns:inkscape="http://www.inkscape.org/namespaces/inkscape" version="1.1" width="188" height="118" viewBox="0 0 188 118">
<defs>
<path id="font_1_1" d="M.34799195 .6826172C.20698548 .6826172 .099990848 .614624 .05899048 .5676422 .023986817 .5276642 .020996094 .4986725 .020996094 .49667359 .020996094 .49067689 .024993897 .48867799 .0309906 .48867799 .04699707 .48867799 .069992069 .5026703 .07798767 .5076599 .09899902 .5216675 .101989749 .5276642 .10798645 .5466461 .12199402 .58662417 .1499939 .62161257 .27598573 .62760928 .2579956 .40270997 .19799805 .18382263 .11399841-.02482605 .10798645-.03981018 .10798645-.041809083 .10798645-.042816163 .10798645-.045806886 .11099243-.049804689 .117996219-.049804689 .13398743-.049804689 .18199158-.027816773 .19299317-.0018615723 .24499512 .11993408 .32699586 .3497467 .35699464 .62760928H.40899659C.5309906 .62760928 .647995 .58062747 .647995 .48068238 .647995 .40571595 .57598879 .2657776 .38198854 .25978089 .36099244 .25878907 .34999085 .25878907 .32199098 .24078369 .3039856 .22877503 .29599 .2177887 .29599 .21177674 .29599 .20478821 .3019867 .20478821 .31498719 .20478821 .49699403 .20478821 .73298647 .35873414 .73298647 .5236664 .73298647 .63760378 .59799197 .6826172 .48199464 .6826172H.34799195Z"/>
<path id="font_2_1" d="M.11399841 .3561554V.04699707H.04499817V0C.07299805 .0009918213 .1329956 .0029907227 .17098999 .0029907227 .20999146 .0029907227 .2689972 .0009918213 .29699708 0V.04699707H.22799683V.25610353C.22799683 .36515809 .31399537 .41418458 .3769989 .41418458 .41099549 .41418458 .43199159 .39317323 .43199159 .31713868V.04699707H.36299134V0C.3909912 .0009918213 .45098878 .0029907227 .4889984 .0029907227 .5279999 .0029907227 .58699038 .0009918213 .61499026 0V.04699707H.54599V.30613709C.54599 .41119386 .49198915 .4501953 .3919983 .4501953 .29599 .4501953 .24299622 .39317323 .21699524 .34214784V.4501953L.04499817 .44218446V.39518739C.10699463 .39518739 .11399841 .39518739 .11399841 .3561554Z"/>
<path id="font_3_3" d="M.43798829 .0055236818C.59298709 .0644989 .73999026 .24256897 .73999026 .43579103 .73999026 .5969696 .6339874 .7050781 .4850006 .7050781 .2689972 .7050781 .04899597 .47784425 .04899597 .24456787 .04899597 .07847595 .16099549-.022460938 .30499269-.022460938 .32998658-.022460938 .3639984-.018463135 .40299989-.007461548 .39898683-.06939697 .39898683-.071380618 .39898683-.084365848 .39898683-.11634827 .39898683-.19433594 .48199464-.19433594 .6009979-.19433594 .6489868-.011474609 .6489868-.00047302247 .6489868 .0065307619 .6419983 .009521484 .6380005 .009521484 .6299896 .009521484 .6279907 .0045318605 .6259918-.0014648438 .60198977-.072387699 .5439911-.097335819 .5089874-.097335819 .46299745-.097335819 .44799806-.070388797 .43798829 .0055236818M.24899292 .013519287C.17098999 .044509889 .13699341 .12245178 .13699341 .21252442 .13699341 .2816162 .16299439 .4237671 .23899842 .5319061 .31199647 .63401797 .4059906 .68006899 .47898866 .68006899 .57899478 .68006899 .6519928 .6019745 .6519928 .4678192 .6519928 .3677063 .6009979 .13345337 .43299867 .039505006 .42799378 .07447815 .41799928 .14746094 .34498597 .14746094 .2919922 .14746094 .24299622 .097473148 .24299622 .04550171 .24299622 .025512696 .24899292 .014526367 .24899292 .013519287M.31098939 .002532959C.29699708 .002532959 .2649994 .002532959 .2649994 .04550171 .2649994 .08547974 .30299378 .12545777 .34498597 .12545777 .3869934 .12545777 .4059906 .10147095 .4059906 .040512086 .4059906 .025512696 .40499879 .024520874 .394989 .020523072 .36898805 .009521484 .33898927 .002532959 .31098939 .002532959Z"/>
<path id="font_3_2" d="M.30299378 .3157959H.47299195C.61499026 .3157959 .7539978 .41973878 .7539978 .53167727 .7539978 .6086273 .6879883 .6826172 .5569916 .6826172H.23298645C.21398926 .6826172 .20298767 .6826172 .20298767 .66360476 .20298767 .6516113 .21199036 .6516113 .23199463 .6516113 .24499512 .6516113 .2630005 .65060427 .2749939 .6496124 .29100038 .6476135 .29699708 .64460757 .29699708 .6336212 .29699708 .6296234 .29599 .62661746 .29299928 .614624L.15899658 .07795715C.14898682 .038986207 .14698792 .0309906 .067993167 .0309906 .050994874 .0309906 .039993287 .0309906 .039993287 .011993408 .039993287 0 .051986696 0 .054992677 0 .08299255 0 .1539917 .0029907227 .18199158 .0029907227 .20298767 .0029907227 .22499085 .0019989014 .24598694 .0019989014 .2679901 .0019989014 .2899933 0 .31098939 0 .31799317 0 .33099366 0 .33099366 .019989014 .33099366 .0309906 .32199098 .0309906 .30299378 .0309906 .2659912 .0309906 .23799134 .0309906 .23799134 .048980714 .23799134 .054977418 .23999024 .05996704 .24099732 .065963748L.30299378 .3157959M.375 .6136322C.38398744 .64860537 .38598634 .6516113 .42900086 .6516113H.5249939C.60798647 .6516113 .6609955 .62461856 .6609955 .55566409 .6609955 .5166931 .6409912 .43074037 .60198977 .39476014 .5519867 .34977723 .49198915 .34179688 .44799806 .34179688H.30699159L.375 .6136322Z"/>
<path id="font_3_1" d="M.1789856 .114868167C.13899231 .047973634 .099990848 .033981325 .055999757 .0309906 .04399109 .02999878 .034988405 .02999878 .034988405 .010986328 .034988405 .004989624 .039993287 0 .04798889 0 .07499695 0 .10598755 .0029907227 .13398743 .0029907227 .16699219 .0029907227 .20199585 0 .23399353 0 .23999024 0 .25299073 0 .25299073 .018997193 .25299073 .02999878 .24398804 .0309906 .23699951 .0309906 .21398926 .032989503 .18998719 .04096985 .18998719 .06593323 .18998719 .077926639 .19599915 .088897708 .20399475 .102890018L.27999879 .23068238H.5309906C.5329895 .2097168 .5469971 .07392883 .5469971 .063949588 .5469971 .033981325 .49499513 .0309906 .47499085 .0309906 .46099855 .0309906 .45098878 .0309906 .45098878 .010986328 .45098878 0 .46299745 0 .46499635 0 .5059967 0 .548996 .0029907227 .58999636 .0029907227 .61499026 .0029907227 .6779938 0 .7029877 0 .70899966 0 .72099307 0 .72099307 .019989014 .72099307 .0309906 .71099856 .0309906 .69799807 .0309906 .6359863 .0309906 .6359863 .037979127 .6329956 .06694031L.57199099 .691803C.56999209 .71180728 .56999209 .7158203 .5529938 .7158203 .5369873 .7158203 .5329895 .7088165 .5269928 .69880679L.1789856 .114868167M.29899598 .26168824 .49598695 .5917816 .5279999 .26168824H.29899598Z"/>
</defs>
<g>
<path transform="matrix(1.00002,0,0,-1.00005,99.564899,73.205059)" d="M23.34538-43.5628 87.12566 11.6727-23.34538 43.5628-87.12566-11.6727Z" fill="#ccccff" fill-opacity=".5"/>
<path transform="matrix(1.00002,0,0,-1.00005,99.564899,73.205059)" stroke-width=".3985" stroke-linecap="butt" stroke-miterlimit="10" stroke-linejoin="miter" fill="none" stroke="#000000" stroke-opacity=".5" d="M23.34538-43.5628 87.12566 11.6727-23.34538 43.5628-87.12566-11.6727Z"/>
</g>
<path transform="matrix(1.00002,0,0,-1.00005,99.564899,73.205059)" stroke-width=".3985" stroke-linecap="butt" stroke-miterlimit="10" stroke-linejoin="miter" fill="none" stroke="#000000" d="M-87.12566-11.6727"/>
<use data-text="P" xlink:href="#font_1_1" transform="matrix(9.962799,0,0,-9.963098,1.16893,88.28281)"/>
<path transform="matrix(1.00002,0,0,-1.00005,99.564899,73.205059)" stroke-width="1.19553" stroke-linecap="butt" stroke-miterlimit="10" stroke-linejoin="miter" fill="none" stroke="#ff0000" d="M-39.67192-13.09682V59.35503"/>
<path transform="matrix(0,-1.00005,-1.00002,-0,59.89218,13.24929)" stroke-width="1.19553" stroke-linecap="round" stroke-linejoin="round" fill="none" stroke="#ff0000" d="M-3.02867 3.83081C-2.47534 1.53229-1.24231 .44691 0 0-1.24231-.44691-2.47534-1.53229-3.02867-3.83081"/>
<use data-text="n" xlink:href="#font_2_1" transform="matrix(9.962799,0,0,-9.963098,63.81018,14.865139)" fill="#ff0000"/>
<path transform="matrix(1.00002,0,0,-1.00005,99.564899,73.205059)" stroke-width="1.19553" stroke-linecap="butt" stroke-miterlimit="10" stroke-linejoin="miter" fill="none" stroke="#000000" d="M-39.67192-13.09682 61.76607 6.71881"/>
<path transform="matrix(1.00002,0,0,-1.00005,99.564899,73.205059)" stroke-width="1.19553" stroke-linecap="butt" stroke-miterlimit="10" stroke-linejoin="miter" fill="none" stroke="#000000" d="M-39.67192-13.09682 61.76607 61.95435"/>
<path transform="matrix(1.00002,0,0,-1.00005,99.564899,73.205059)" stroke-width="1.19553" stroke-linecap="butt" stroke-miterlimit="10" stroke-linejoin="miter" fill="none" stroke="#800080" d="M61.76607 7.91432V61.95435"/>
<path transform="matrix(0,1.00005,1.00002,0,161.3322,65.88812)" stroke-width="1.19553" stroke-linecap="round" stroke-linejoin="round" fill="none" stroke="#800080" d="M-3.02867 3.83081C-2.47534 1.53229-1.24231 .44691 0 0-1.24231-.44691-2.47534-1.53229-3.02867-3.83081"/>
<path transform="matrix(1.00002,0,0,-1.00005,99.564899,73.205059)" d="M64.00769 6.71881C64.00769 7.95683 63.00409 8.96043 61.76607 8.96043 60.52805 8.96043 59.52444 7.95683 59.52444 6.71881 59.52444 5.48079 60.52805 4.47719 61.76607 4.47719 63.00409 4.47719 64.00769 5.48079 64.00769 6.71881ZM61.76607 6.71881"/>
<use data-text="Q" xlink:href="#font_3_3" transform="matrix(9.962799,0,0,-9.963098,157.39406,76.81424)"/>
<path transform="matrix(1.00002,0,0,-1.00005,99.564899,73.205059)" d="M64.00769 61.95435C64.00769 63.19237 63.00409 64.19597 61.76607 64.19597 60.52805 64.19597 59.52444 63.19237 59.52444 61.95435 59.52444 60.71632 60.52805 59.71272 61.76607 59.71272 63.00409 59.71272 64.00769 60.71632 64.00769 61.95435ZM61.76607 61.95435"/>
<use data-text="P" xlink:href="#font_3_2" transform="matrix(9.962799,0,0,-9.963098,164.8522,7.727783)"/>
<path transform="matrix(1.00002,0,0,-1.00005,99.564899,73.205059)" d="M-37.4303-13.09682C-37.4303-11.8588-38.43391-10.8552-39.67192-10.8552-40.90994-10.8552-41.91354-11.8588-41.91354-13.09682-41.91354-14.33484-40.90994-15.33844-39.67192-15.33844-38.43391-15.33844-37.4303-14.33484-37.4303-13.09682ZM-39.67192-13.09682"/>
<use data-text="A" xlink:href="#font_3_1" transform="matrix(9.962799,0,0,-9.963098,48.89987,89.70688)"/>
</svg>
