<svg xmlns="http://www.w3.org/2000/svg" xmlns:xlink="http://www.w3.org/1999/xlink" xmlns:inkscape="http://www.inkscape.org/namespaces/inkscape" version="1.1" width="346" height="147" viewBox="0 0 346 147">
<defs>
<path id="font_1_82" d="M.4099884 0V.0289917H.3789978C.29100038 .0289917 .28799439 .041000368 .28799439 .07701111V.6411133C.28799439 .664032 .28799439 .66503909 .2679901 .66503909 .24398804 .63812258 .19400025 .6012573 .09098816 .6012573V.5722656C.11399841 .5722656 .1639862 .5722656 .21899414 .59825137V.07701111C.21899414 .041000368 .21598816 .0289917 .12799073 .0289917H.09700012V0C.12399292 .0019989014 .22099304 .0019989014 .2539978 .0019989014 .2869873 .0019989014 .3829956 .0019989014 .4099884 0Z"/>
<path id="font_1_107" d="M.43998719 .16799927H.41799928C.4149933 .15098572 .40699769 .09599304 .39698792 .07998657 .3899994 .070999149 .33299256 .070999149 .30299378 .070999149H.117996219C.14498902 .09399414 .20599365 .1579895 .23199463 .18199158 .38398744 .3217926 .43998719 .37374879 .43998719 .47270204 .43998719 .5878906 .34899903 .66503909 .23298645 .66503909 .116989139 .66503909 .04899597 .5658264 .04899597 .4797058 .04899597 .42871095 .09298706 .42871095 .09599304 .42871095 .116989139 .42871095 .14299011 .44371034 .14299011 .475708 .14299011 .5037079 .12399292 .5227051 .09599304 .5227051 .08699036 .5227051 .084991458 .5227051 .08198547 .521698 .100997928 .5899048 .15499878 .6360321 .21998596 .6360321 .30499269 .6360321 .35699464 .56481936 .35699464 .47270204 .35699464 .3877411 .30799867 .313797 .25099183 .24984741L.04899597 .023986817V0H.4139862L.43998719 .16799927Z"/>
<path id="font_1_106" d="M.44799806 .17103577C.44799806 .263031 .37399293 .33503724 .27799989 .35203553 .36499024 .37702943 .42099 .45002748 .42099 .5280304 .42099 .60702517 .33898927 .66503909 .24198914 .66503909 .14199829 .66503909 .067993167 .6040344 .067993167 .5310364 .067993167 .49121095 .09899902 .48321534 .11399841 .48321534 .1349945 .48321534 .15899658 .49821473 .15899658 .5282135 .15899658 .5602112 .1349945 .57421877 .11299133 .57421877 .10699463 .57421877 .10499573 .57421877 .101989749 .57321169 .13999939 .641037 .23399353 .641037 .23899842 .641037 .27198792 .641037 .33699037 .6260681 .33699037 .5282135 .33699037 .5092163 .33399964 .453125 .30499269 .41001893 .2749939 .3658905 .24099732 .36288453 .21398926 .36187745L.18399048 .35888673C.16699219 .35787965 .16299439 .35688783 .16299439 .34788514 .16299439 .33789063 .16799927 .33789063 .18598938 .33789063H.23199463C.31698609 .33789063 .35499574 .267807 .35499574 .17172241 .35499574 .04058838 .2869873 .005508423 .23799134 .005508423 .18998719 .005508423 .10798645 .028564454 .07899475 .09472656 .11099243 .08955383 .13999939 .107543949 .13999939 .14355469 .13999939 .17271424 .11898804 .1927185 .09098816 .1927185 .066986087 .1927185 .040985109 .1787262 .040985109 .14071656 .040985109 .051620485 .12998963-.021484375 .24099732-.021484375 .3600006-.021453858 .44799806 .06954956 .44799806 .17054749V.17103577Z"/>
</defs>
<path transform="matrix(1.00002,0,0,-1.00005,3.09169,144.53443)" stroke-width="2.39105" stroke-linecap="round" stroke-linejoin="round" fill="none" stroke="#146eeb" d="M0 0V141.73404H340.1617V0ZM340.1617 141.73404"/>
<path transform="matrix(1.00002,0,0,-1.00005,3.09169,144.53443)" stroke-width="2.39105" stroke-linecap="round" stroke-linejoin="round" fill="none" stroke="#146eeb" d="M113.38724 22.67752V119.0565"/>
<path transform="matrix(1.00002,0,0,-1.00005,3.09169,144.53443)" stroke-width="2.39105" stroke-linecap="round" stroke-linejoin="round" fill="none" stroke="#146eeb" d="M100.63126 119.0565H126.1432"/>
<path transform="matrix(1.00002,0,0,-1.00005,3.09169,144.53443)" stroke-width="2.39105" stroke-linecap="round" stroke-linejoin="round" fill="none" stroke="#146eeb" d="M100.63126 102.04868H126.1432"/>
<path transform="matrix(1.00002,0,0,-1.00005,3.09169,144.53443)" stroke-width="2.39105" stroke-linecap="round" stroke-linejoin="round" fill="none" stroke="#146eeb" d="M100.63126 82.20555H126.1432"/>
<path transform="matrix(1.00002,0,0,-1.00005,3.09169,144.53443)" stroke-width="2.39105" stroke-linecap="round" stroke-linejoin="round" fill="none" stroke="#146eeb" d="M100.63126 62.36288H126.1432"/>
<path transform="matrix(1.00002,0,0,-1.00005,3.09169,144.53443)" stroke-width="2.39105" stroke-linecap="round" stroke-linejoin="round" fill="none" stroke="#146eeb" d="M102.04868 28.3468H124.72578"/>
<path transform="matrix(1.00002,0,0,-1.00005,3.09169,144.53443)" stroke-width="2.39105" stroke-linecap="round" stroke-linejoin="round" fill="none" stroke="#146eeb" d="M113.38724 72.28444H317.4842"/>
<path transform="matrix(1.00002,0,0,-1.00005,3.09169,144.53443)" stroke-width="2.39105" stroke-linecap="round" stroke-linejoin="round" fill="none" stroke="#146eeb" d="M171.49828 83.62299V60.94545"/>
<path transform="matrix(1.00002,0,0,-1.00005,3.09169,144.53443)" stroke-width="2.39105" stroke-linecap="round" stroke-linejoin="round" fill="none" stroke="#146eeb" d="M185.67168 83.62299V60.94545"/>
<path transform="matrix(1.00002,0,0,-1.00005,3.09169,144.53443)" stroke-width="2.39105" stroke-linecap="round" stroke-linejoin="round" fill="none" stroke="#146eeb" d="M226.77448 83.62299V60.94545"/>
<path transform="matrix(1.00002,0,0,-1.00005,3.09169,144.53443)" stroke-width="2.39105" stroke-linecap="round" stroke-linejoin="round" fill="none" stroke="#146eeb" d="M240.94788 83.62299V60.94545"/>
<path transform="matrix(1.00002,0,0,-1.00005,3.09169,144.53443)" stroke-width="2.39105" stroke-linecap="round" stroke-linejoin="round" fill="none" stroke="#146eeb" d="M282.05067 83.62299V60.94545"/>
<path transform="matrix(1.00002,0,0,-1.00005,3.09169,144.53443)" stroke-width="2.39105" stroke-linecap="round" stroke-linejoin="round" fill="none" stroke="#146eeb" d="M296.22407 83.62299V60.94545"/>
<path transform="matrix(1.00002,0,0,-1.00005,3.09169,144.53443)" d="M71.57573 72.28444C71.57573 80.50371 64.91289 87.16655 56.69362 87.16655 48.47435 87.16655 41.8115 80.50371 41.8115 72.28444 41.8115 64.06517 48.47435 57.40233 56.69362 57.40233 64.91289 57.40233 71.57573 64.06517 71.57573 72.28444ZM56.69362 72.28444" fill="#fff500"/>
<path transform="matrix(1.00002,0,0,-1.00005,3.09169,144.53443)" stroke-width="1.99255" stroke-linecap="round" stroke-linejoin="round" fill="none" stroke="#a000c8" d="M71.57573 72.28444C71.57573 80.50371 64.91289 87.16655 56.69362 87.16655 48.47435 87.16655 41.8115 80.50371 41.8115 72.28444 41.8115 64.06517 48.47435 57.40233 56.69362 57.40233 64.91289 57.40233 71.57573 64.06517 71.57573 72.28444ZM56.69362 72.28444"/>
<use data-text="1" xlink:href="#font_1_82" transform="matrix(11.95544,0,0,-11.955797,56.857767,76.222019)"/>
<path transform="matrix(1.00002,0,0,-1.00005,3.09169,144.53443)" d="M221.8139 109.13538C221.8139 117.35464 215.15105 124.01749 206.93178 124.01749 198.71251 124.01749 192.04967 117.35464 192.04967 109.13538 192.04967 100.9161 198.71251 94.25327 206.93178 94.25327 215.15105 94.25327 221.8139 100.9161 221.8139 109.13538ZM206.93178 109.13538" fill="#fff500"/>
<path transform="matrix(1.00002,0,0,-1.00005,3.09169,144.53443)" stroke-width="1.99255" stroke-linecap="round" stroke-linejoin="round" fill="none" stroke="#a000c8" d="M221.8139 109.13538C221.8139 117.35464 215.15105 124.01749 206.93178 124.01749 198.71251 124.01749 192.04967 117.35464 192.04967 109.13538 192.04967 100.9161 198.71251 94.25327 206.93178 94.25327 215.15105 94.25327 221.8139 100.9161 221.8139 109.13538ZM206.93178 109.13538"/>
<use data-text="2" xlink:href="#font_1_107" transform="matrix(11.95544,0,0,-11.955797,207.09879,39.36917)"/>
<path transform="matrix(1.00002,0,0,-1.00005,3.09169,144.53443)" d="M221.8139 38.26836C221.8139 46.48763 215.15105 53.15047 206.93178 53.15047 198.71251 53.15047 192.04967 46.48763 192.04967 38.26836 192.04967 30.04909 198.71251 23.38625 206.93178 23.38625 215.15105 23.38625 221.8139 30.04909 221.8139 38.26836ZM206.93178 38.26836" fill="#fff500"/>
<path transform="matrix(1.00002,0,0,-1.00005,3.09169,144.53443)" stroke-width="1.99255" stroke-linecap="round" stroke-linejoin="round" fill="none" stroke="#a000c8" d="M221.8139 38.26836C221.8139 46.48763 215.15105 53.15047 206.93178 53.15047 198.71251 53.15047 192.04967 46.48763 192.04967 38.26836 192.04967 30.04909 198.71251 23.38625 206.93178 23.38625 215.15105 23.38625 221.8139 30.04909 221.8139 38.26836ZM206.93178 38.26836"/>
<use data-text="3" xlink:href="#font_1_106" transform="matrix(11.95544,0,0,-11.955797,207.09879,110.11371)"/>
</svg>
