<svg xmlns="http://www.w3.org/2000/svg" xmlns:xlink="http://www.w3.org/1999/xlink" xmlns:inkscape="http://www.inkscape.org/namespaces/inkscape" version="1.1" width="206" height="123" viewBox="0 0 206 123">
<defs>
<path id="font_1_1" d="M.43798829 .072143558V-.005859375L.61499026 .0001373291V.0471344C.5529938 .0471344 .54599 .0471344 .54599 .086135867V.4501953L.36299134 .44218446V.39518739C.4249878 .39518739 .43199159 .39518739 .43199159 .3561859V.16514588C.43199159 .08314514 .3809967 .030136109 .30799867 .030136109 .23098755 .030136109 .22799683 .055130006 .22799683 .10914612V.4501953L.04499817 .44218446V.39518739C.10699463 .39518739 .11399841 .39518739 .11399841 .3561859V.12315369C.11399841 .01612854 .19499207-.005859375 .2939911-.005859375 .31999208-.005859375 .3919983-.005859375 .43798829 .072143558Z"/>
<path id="font_1_2" d="M.5059967 .37631227C.5119934 .39031983 .5159912 .3973236 .5799866 .3973236V.44433595C.5549927 .44232179 .526001 .44132997 .5009918 .44132997 .47599793 .44132997 .43099977 .44332887 .4099884 .44433595V.3973236C.42900086 .3973236 .45799256 .3943329 .45799256 .38632203 .45799256 .3853302 .45700074 .38331605 .45298768 .37431336L.33699037 .12416077 .20999146 .3973236H.2639923V.44433595C.23098755 .44232179 .14099121 .44132997 .13999939 .44132997 .11199951 .44132997 .066986087 .44332887 .025985718 .44433595V.3973236H.08999634L.2649994 .021087647C.2769928-.00390625 .2899933-.00390625 .30299378-.00390625 .31999208-.00390625 .32998658-.00091552737 .33999635 .020080567L.5059967 .37631227Z"/>
<path id="font_1_3" d="M.7369995 .37631227C.74198916 .389328 .74598696 .3973236 .8049927 .3973236V.44433595C.7819977 .44232179 .7519989 .44132997 .7279968 .44132997 .70098879 .44132997 .6539917 .44332887 .6319885 .44433595V.3973236C.6409912 .3973236 .6899872 .3963318 .6899872 .3853302 .6899872 .38232423 .68699648 .37631227 .6859894 .37332154L.58099368 .11715698 .46699525 .3973236H.522995V.44433595C.4909973 .44332887 .43899537 .44132997 .40899659 .44132997 .36698915 .44132997 .32499696 .44332887 .30899049 .44433595V.3973236H.36799623C.3889923 .3473053 .3889923 .34529115 .3889923 .34429933 .3889923 .34028626 .38598634 .33428956 .3849945 .33128358L.30599977 .13916016 .20098877 .3973236H.25698854V.44433595C.21598816 .44232179 .1749878 .44132997 .13398743 .44132997 .102996829 .44132997 .05899048 .44332887 .024993897 .44433595V.3973236H.083999637L.23699951 .023086548C.24398804 .006088257 .24798584-.00390625 .272995-.00390625 .2979889-.00390625 .3019867 .006088257 .30899049 .023086548L.4149933 .28225709 .5209961 .023086548C.5279999 .006088257 .5319977-.00390625 .5569916-.00390625 .58200076-.00390625 .58599856 .006088257 .59298709 .023086548L.7369995 .37631227Z"/>
</defs>
<path transform="matrix(1.00002,0,0,-1.00003,2.4936753,121.10716)" stroke-width="1.19553" stroke-linecap="round" stroke-linejoin="round" fill="none" stroke="#000000" d="M0 0 113.9058 5.42409"/>
<path transform="matrix(.99885007,-.047551428,-.047550955,-.99886,113.19353,115.83565)" d="M6.66628 0 1.93044 1.79556 3.5108 0 1.93044-1.79556Z"/>
<path transform="matrix(.99885007,-.047551428,-.047550955,-.99886,113.19353,115.83565)" stroke-width="1.19553" stroke-linecap="round" stroke-miterlimit="10" stroke-linejoin="miter" fill="none" stroke="#000000" d="M6.66628 0 1.93044 1.79556 3.5108 0 1.93044-1.79556Z"/>
<use data-text="u" xlink:href="#font_1_1" transform="matrix(9.962799,0,0,-9.962899,125.47114,117.65206)"/>
<path transform="matrix(1.00002,0,0,-1.00003,2.4936753,121.10716)" stroke-width="1.19553" stroke-linecap="round" stroke-linejoin="round" fill="none" stroke="#000000" d="M0 0 29.17249 68.95277"/>
<path transform="matrix(.3896278,-.92096766,-.9209584,-.38963173,30.415284,55.110414)" d="M6.66628 0 1.93044 1.79556 3.5108 0 1.93044-1.79556Z"/>
<path transform="matrix(.3896278,-.92096766,-.9209584,-.38963173,30.415284,55.110414)" stroke-width="1.19553" stroke-linecap="round" stroke-miterlimit="10" stroke-linejoin="miter" fill="none" stroke="#000000" d="M6.66628 0 1.93044 1.79556 3.5108 0 1.93044-1.79556Z"/>
<use data-text="v" xlink:href="#font_1_2" transform="matrix(9.962799,0,0,-9.962899,23.551095,43.484827)"/>
<path transform="matrix(1.00002,0,0,-1.00003,2.4936753,121.10716)" stroke-width="1.19553" stroke-linecap="round" stroke-linejoin="round" fill="none" stroke="#000000" d="M0 0 46.9539 36.51958"/>
<path transform="matrix(.7893558,-.6139184,-.6139123,-.78936377,46.913175,86.55838)" d="M6.66628 0 1.93044 1.79556 3.5108 0 1.93044-1.79556Z"/>
<path transform="matrix(.7893558,-.6139184,-.6139123,-.78936377,46.913175,86.55838)" stroke-width="1.19553" stroke-linecap="round" stroke-miterlimit="10" stroke-linejoin="miter" fill="none" stroke="#000000" d="M6.66628 0 1.93044 1.79556 3.5108 0 1.93044-1.79556Z"/>
<use data-text="w" xlink:href="#font_1_3" transform="matrix(9.962799,0,0,-9.962899,57.437776,77.501857)"/>
<path transform="matrix(1.00002,0,0,-1.00003,2.4936753,121.10716)" stroke-width=".89664" stroke-linecap="round" stroke-dasharray="2.98883,2.98883" stroke-linejoin="round" fill="none" stroke="#000000" d="M0 0 119.0565 5.66927"/>
<path transform="matrix(1.00002,0,0,-1.00003,2.4936753,121.10716)" stroke-width=".89664" stroke-linecap="round" stroke-dasharray="2.98883,2.98883" stroke-linejoin="round" fill="none" stroke="#000000" d="M0 0 31.18166 73.70186"/>
<path transform="matrix(1.00002,0,0,-1.00003,2.4936753,121.10716)" stroke-width=".89664" stroke-linecap="round" stroke-dasharray="2.98883,2.98883" stroke-linejoin="round" fill="none" stroke="#000000" d="M119.0565 5.66927 150.23816 79.37114"/>
<path transform="matrix(1.00002,0,0,-1.00003,2.4936753,121.10716)" stroke-width=".89664" stroke-linecap="round" stroke-dasharray="2.98883,2.98883" stroke-linejoin="round" fill="none" stroke="#000000" d="M31.18166 73.70186 150.23816 79.37114"/>
<path transform="matrix(1.00002,0,0,-1.00003,2.4936753,121.10716)" stroke-width=".89664" stroke-linecap="round" stroke-dasharray="2.98883,2.98883" stroke-linejoin="round" fill="none" stroke="#000000" d="M0 0 51.02432 39.68535"/>
<path transform="matrix(1.00002,0,0,-1.00003,2.4936753,121.10716)" stroke-width=".89664" stroke-linecap="round" stroke-dasharray="2.98883,2.98883" stroke-linejoin="round" fill="none" stroke="#000000" d="M119.0565 5.66927 170.08084 45.35463"/>
<path transform="matrix(1.00002,0,0,-1.00003,2.4936753,121.10716)" stroke-width=".89664" stroke-linecap="round" stroke-dasharray="2.98883,2.98883" stroke-linejoin="round" fill="none" stroke="#000000" d="M31.18166 73.70186 82.20598 113.38722"/>
<path transform="matrix(1.00002,0,0,-1.00003,2.4936753,121.10716)" stroke-width=".89664" stroke-linecap="round" stroke-dasharray="2.98883,2.98883" stroke-linejoin="round" fill="none" stroke="#000000" d="M150.23816 79.37114 201.2625 119.05649"/>
<path transform="matrix(1.00002,0,0,-1.00003,2.4936753,121.10716)" stroke-width=".89664" stroke-linecap="round" stroke-dasharray="2.98883,2.98883" stroke-linejoin="round" fill="none" stroke="#000000" d="M51.02432 39.68535 170.08084 45.35463"/>
<path transform="matrix(1.00002,0,0,-1.00003,2.4936753,121.10716)" stroke-width=".89664" stroke-linecap="round" stroke-dasharray="2.98883,2.98883" stroke-linejoin="round" fill="none" stroke="#000000" d="M51.02432 39.68535 82.20598 113.38722"/>
<path transform="matrix(1.00002,0,0,-1.00003,2.4936753,121.10716)" stroke-width=".89664" stroke-linecap="round" stroke-dasharray="2.98883,2.98883" stroke-linejoin="round" fill="none" stroke="#000000" d="M170.08084 45.35463 201.2625 119.05649"/>
<path transform="matrix(1.00002,0,0,-1.00003,2.4936753,121.10716)" stroke-width=".89664" stroke-linecap="round" stroke-dasharray="2.98883,2.98883" stroke-linejoin="round" fill="none" stroke="#000000" d="M82.20598 113.38722 201.2625 119.05649"/>
</svg>
