<svg xmlns="http://www.w3.org/2000/svg" xmlns:xlink="http://www.w3.org/1999/xlink" xmlns:inkscape="http://www.inkscape.org/namespaces/inkscape" version="1.1" width="248" height="207" viewBox="0 0 248 207">
<defs>
<path id="font_1_3" d="M.7259979 .43788148C.7259979 .60302737 .6179962 .70410159 .47799684 .70410159 .2639923 .70410159 .04798889 .47392274 .04798889 .24272156 .04798889 .08558655 .1519928-.021484375 .29699708-.021484375 .5069885-.021484375 .7259979 .19767761 .7259979 .43788148M.30299378 .0015106201C.22099304 .0015106201 .13398743 .061553956 .13398743 .21769715 .13398743 .30877687 .16699219 .457901 .24899292 .5579834 .32199098 .6460724 .4059906 .6820984 .47299195 .6820984 .5609894 .6820984 .6459961 .618042 .6459961 .47392274 .6459961 .38484193 .60798647 .24571228 .54100039 .15063477 .46798707 .048553468 .3769989 .0015106201 .30299378 .0015106201Z"/>
<path id="font_1_5" d="M.47399903 .40820313C.44198609 .40219117 .42999269 .3781891 .42999269 .3591919 .42999269 .33518983 .44898988 .3271942 .46299745 .3271942 .49299623 .3271942 .5139923 .3531952 .5139923 .380188 .5139923 .4223938 .46598817 .44140626 .42399598 .44140626 .36299134 .44140626 .32899476 .38119508 .31999208 .36219789 .29699708 .4373932 .23498535 .44140626 .21699524 .44140626 .114990238 .44140626 .06098938 .31021119 .06098938 .28822328 .06098938 .28422547 .06498718 .27923585 .07199097 .27923585 .07998657 .27923585 .08198547 .28523255 .083999637 .2892151 .117996219 .40019227 .18499756 .42140199 .21398926 .42140199 .25898744 .42140199 .2679901 .37919618 .2679901 .3551941 .2679901 .33319093 .2619934 .31021119 .25 .26223756L.21598816 .12535095C.20098877 .06535339 .17199707 .010223389 .11898804 .010223389 .11399841 .010223389 .08898926 .010223389 .067993167 .023330689 .10398865 .03036499 .11199951 .06036377 .11199951 .07235718 .11199951 .09236145 .09700012 .10435486 .07798767 .10435486 .053985597 .10435486 .027999878 .083358768 .027999878 .051361085 .027999878 .009231567 .07499695-.009765625 .117996219-.009765625 .1659851-.009765625 .19999695 .028366089 .22099304 .069366458 .23699951 .010223389 .2869873-.009765625 .32398988-.009765625 .42599488-.009765625 .47999574 .12135315 .47999574 .1433258 .47999574 .14833069 .47599793 .15232849 .46998597 .15232849 .46099855 .15232849 .45999146 .14732361 .45700074 .139328 .42999269 .051361085 .37199403 .010223389 .32699586 .010223389 .2919922 .010223389 .272995 .036361696 .272995 .07736206 .272995 .099365238 .2769928 .115356449 .29299928 .18130493L.32798768 .3171997C.34298707 .37719728 .3769989 .42140199 .4229889 .42140199 .4249878 .42140199 .45298768 .42140199 .47399903 .40820313Z"/>
<path id="font_1_6" d="M.2630005-.11172485C.23599243-.14982605 .19699097-.18411255 .147995-.18411255 .13598633-.18411255 .08799744-.18209839 .07299805-.13572693 .07598877-.13671875 .08099365-.13671875 .08299255-.13671875 .11299133-.13671875 .1329956-.11073303 .1329956-.08772278 .1329956-.06472778 .11399841-.056732179 .09899902-.056732179 .08299255-.056732179 .04798889-.068725589 .04798889-.11772156 .04798889-.16899109 .09098816-.20410156 .147995-.20410156 .24798584-.20410156 .34899903-.11172485 .3769989-.00077819827L.47499085 .38868714C.47599793 .39367677 .47799684 .39967347 .47799684 .4056549 .47799684 .4206543 .46598817 .43066407 .45098878 .43066407 .44198609 .43066407 .42099 .426651 .41299439 .39666749L.33898927 .10308838C.33399964 .085113529 .33399964 .08312988 .32598878 .072143558 .30599977 .04423523 .272995 .010223389 .22499085 .010223389 .16899109 .010223389 .1639862 .06524658 .1639862 .09225464 .1639862 .14929199 .19099427 .22631836 .21798706 .2983551 .22898865 .32736207 .23498535 .34136964 .23498535 .3613739 .23498535 .4033966 .20498657 .44140626 .1559906 .44140626 .06399536 .44140626 .026992798 .29634095 .026992798 .28834535 .026992798 .28434754 .0309906 .27934266 .037994386 .27934266 .04699707 .27934266 .04798889 .28334046 .051986696 .29734803 .07598877 .38137818 .11399841 .42140199 .15299988 .42140199 .1619873 .42140199 .1789856 .42140199 .1789856 .38838197 .1789856 .36238099 .16799927 .33335877 .15299988 .29534913 .10398865 .16429138 .10398865 .13127136 .10398865 .10726929 .10398865 .01222229 .17199707-.009765625 .22200012-.009765625 .25099183-.009765625 .2869873-.00077819827 .32199098 .036239625L.32299806 .035232545C.30799867-.023757935 .2979889-.06272888 .2630005-.11172485Z"/>
<path id="font_2_6" d="M.25-.25V-.2130127H.15299988V.71299746H.25V.75H.115997318V-.25H.25Z"/>
<path id="font_2_3" d="M.44799806 .31976319C.44799806 .40283204 .44299317 .48390199 .40699769 .55996707 .3659973 .64302065 .2939911 .66503909 .24499512 .66503909 .18699646 .66503909 .115997318 .63601687 .07899475 .552948 .050994874 .48989869 .040985109 .42785646 .040985109 .31976319 .040985109 .22268677 .04798889 .14962769 .083999637 .078567508 .12298584 .0025177003 .19198609-.021484375 .24398804-.021484375 .33099366-.021484375 .3809967 .030532837 .4099884 .08857727 .44599916 .16363526 .44799806 .26171876 .44799806 .31976319M.24398804-.0014953613C.21199036-.0014953613 .14698792 .016525269 .12799073 .12561035 .116989139 .18565369 .116989139 .26171876 .116989139 .33177186 .116989139 .41384889 .116989139 .48789979 .1329956 .5469513 .1499939 .6139984 .20098877 .6450348 .24398804 .6450348 .28199769 .6450348 .33999635 .6220093 .35899354 .53593447 .37199403 .4788971 .37199403 .39982606 .37199403 .33177186 .37199403 .26472474 .37199403 .18865967 .36099244 .12760926 .34199525 .01751709 .2789917-.0014953613 .24398804-.0014953613Z"/>
<path id="font_1_2" d="M.19499207-.0040130617C.19499207 .053985597 .17599488 .09700012 .1349945 .09700012 .102996829 .09700012 .08699036 .070999149 .08699036 .04899597 .08699036 .026992798 .101989749 0 .13598633 0 .14898682 0 .1599884 .0039978029 .16899109 .0129852299 .17098999 .01499939 .17199707 .01499939 .17298889 .01499939 .1749878 .01499939 .1749878 .0009918213 .1749878-.0040130617 .1749878-.037078859 .16899109-.10221863 .11099243-.1673584 .099990848-.17936707 .099990848-.18136597 .099990848-.18336487 .099990848-.18836975 .10499573-.19335938 .10998535-.19335938 .117996219-.19335938 .19499207-.119262699 .19499207-.0040130617Z"/>
<path id="font_2_4" d="M.28799439 .64105227C.28799439 .664032 .28799439 .66503909 .2679901 .66503909 .24398804 .6380615 .19400025 .6012573 .09098816 .6012573V.5722656C.11399841 .5722656 .1639862 .5722656 .21899414 .59825137V.07701111C.21899414 .041000368 .21598816 .0289917 .12799073 .0289917H.09700012V0C.12399292 .0019989014 .22099304 .0019989014 .2539978 .0019989014 .2869873 .0019989014 .3829956 .0019989014 .4099884 0V.0289917H.3789978C.29100038 .0289917 .28799439 .041000368 .28799439 .07701111V.64105227Z"/>
<path id="font_2_7" d="M.15499878 .75H.020996094V.71299746H.117996219V-.2130127H.020996094V-.25H.15499878V.75Z"/>
<path id="font_1_4" d="M.36799623 .61460879C.3769989 .6516113 .3809967 .6536102 .41999818 .6536102H.49198915C.5779877 .6536102 .6419983 .62760928 .6419983 .54959109 .6419983 .49858094 .6159973 .3515625 .4149933 .3515625H.3019867L.36799623 .61460879M.5069885 .33955384C.6309967 .3665619 .7279968 .44657899 .7279968 .5325928 .7279968 .6105957 .6489868 .6826172 .5099945 .6826172H.23899842C.21899414 .6826172 .20999146 .6826172 .20999146 .66360476 .20999146 .6536102 .21699524 .6536102 .23599243 .6536102 .29599 .6536102 .29599 .6456146 .29599 .63461306 .29599 .6325989 .29599 .6266022 .2919922 .6116028L.15699768 .073516849C.147995 .038513185 .1459961 .028518677 .07699585 .028518677 .053985597 .028518677 .04699707 .028518677 .04699707 .009506226 .04699707-.00048828127 .057998659-.00048828127 .06098938-.00048828127 .07899475-.00048828127 .099990848 .0015106201 .11898804 .0015106201H.23699951C.25498963 .0015106201 .27598573-.00048828127 .2939911-.00048828127 .3019867-.00048828127 .31298829-.00048828127 .31298829 .018508912 .31298829 .028518677 .3039856 .028518677 .2889862 .028518677 .22799683 .028518677 .22799683 .036514284 .22799683 .04650879 .22799683 .04751587 .22799683 .054519655 .22999573 .06251526L.29699708 .33155824H.4169922C.5119934 .33155824 .5299988 .2715454 .5299988 .23854065 .5299988 .22354126 .519989 .1845398 .5130005 .15852356 .5019989 .11251831 .49899293 .10151672 .49899293 .08251953 .49899293 .011505127 .5569916-.021484375 .6239929-.021484375 .7049866-.021484375 .73999026 .07751465 .73999026 .09152222 .73999026 .098526 .7350006 .10151672 .72898867 .10151672 .72099307 .10151672 .71899417 .09552002 .71699526 .087524417 .69299319 .01651001 .6519928-.0014953613 .6269989-.0014953613 .60198977-.0014953613 .58599856 .009506226 .58599856 .054519655 .58599856 .07852173 .59799197 .16952515 .598999 .17453003 .60398867 .2115326 .60398867 .2155304 .60398867 .22354126 .60398867 .29655458 .54499819 .32754518 .5069885 .33955384Z"/>
<path id="font_3_1" d="M.45498658 .5001831C.45498658 .56614688 .43699647 .7050781 .33499146 .7050781 .19599915 .7050781 .041992189 .42323304 .041992189 .19425965 .041992189 .100250247 .070999149-.0107421879 .1619873-.0107421879 .30299378-.0107421879 .45498658 .27627564 .45498658 .5001831M.147995 .36328126C.16499329 .42723084 .18499756 .5071869 .22499085 .57814028 .2519989 .6271057 .2889862 .68307498 .33399964 .68307498 .3829956 .68307498 .3889923 .6191101 .3889923 .56214907 .3889923 .5131836 .3809967 .46220399 .35699464 .36328126H.147995M.34799195 .3312683C.33699037 .28527833 .31599427 .2002716 .27799989 .12826538 .24299622 .060256959 .20498657 .011245728 .1619873 .011245728 .1289978 .011245728 .10798645 .040252687 .10798645 .133255 .10798645 .17526245 .11399841 .23326111 .13999939 .3312683H.34799195Z"/>
<path id="font_2_1" d="M.32499696-.24298096C.32499696-.23999024 .32499696-.23799134 .30799867-.22097779 .20799256-.11997986 .1519928 .045013429 .1519928 .24900818 .1519928 .44299317 .19898987 .60998538 .31498719 .7279968 .32499696 .7369995 .32499696 .7389984 .32499696 .74198916 .32499696 .74798586 .31999208 .75 .31599427 .75 .30299378 .75 .22099304 .6779938 .17199707 .5799866 .12098694 .47898866 .09799194 .37199403 .09799194 .24900818 .09799194 .16000366 .11199951 .041015626 .1639862-.06599426 .22299195-.18598938 .30499269-.25097657 .31599427-.25097657 .31999208-.25097657 .32499696-.24897766 .32499696-.24298096Z"/>
<path id="font_2_2" d="M.28199769 .24900818C.28199769 .32499696 .27198792 .44898988 .21598816 .5649872 .15699768 .68499758 .07499695 .75 .06399536 .75 .05999756 .75 .054992677 .74798586 .054992677 .74198916 .054992677 .7389984 .054992677 .7369995 .07199097 .71998599 .17199707 .61898806 .22799683 .45399476 .22799683 .25 .22799683 .056015016 .18099976-.11099243 .06498718-.22898865 .054992677-.23799134 .054992677-.23999024 .054992677-.24298096 .054992677-.24897766 .05999756-.25097657 .06399536-.25097657 .07699585-.25097657 .15899658-.1789856 .20799256-.08099365 .25898744 .021011353 .28199769 .12901306 .28199769 .24900818Z"/>
<path id="font_2_5" d="M.6749878 .32421876C.68899539 .32421876 .70700076 .32421876 .70700076 .34220887 .70700076 .36120606 .6899872 .36120606 .6749878 .36120606H.085998538C.07199097 .36120606 .053985597 .36120606 .053985597 .34321595 .053985597 .32421876 .070999149 .32421876 .085998538 .32421876H.6749878M.6749878 .13780213C.68899539 .13780213 .70700076 .13780213 .70700076 .15579224 .70700076 .17480469 .6899872 .17480469 .6749878 .17480469H.085998538C.07199097 .17480469 .053985597 .17480469 .053985597 .15679932 .053985597 .13780213 .070999149 .13780213 .085998538 .13780213H.6749878Z"/>
<path id="font_4_1" d="M.6589966 .23046875C.6759949 .23046875 .69400027 .23046875 .69400027 .25045777 .69400027 .27046205 .6759949 .27046205 .6589966 .27046205H.117996219C.100997928 .27046205 .08299255 .27046205 .08299255 .25045777 .08299255 .23046875 .100997928 .23046875 .117996219 .23046875H.6589966Z"/>
<path id="font_2_12" d="M.32798768 .4232788C.32798768 .44128419 .32798768 .44628907 .31799317 .44628907 .30999757 .44628907 .29100038 .4242859 .28399659 .4152832 .25299073 .4402771 .22200012 .44628907 .18998719 .44628907 .068984989 .44628907 .032989503 .38027955 .032989503 .3252716 .032989503 .31427003 .032989503 .27926637 .070999149 .2442627 .102996829 .21624756 .13699341 .20925904 .18299866 .20025635 .23799134 .18925476 .25099183 .18624878 .27598573 .1662445 .2939911 .15124512 .30699159 .12924195 .30699159 .101242069 .30699159 .05822754 .28199769 .010223389 .19400025 .010223389 .12799073 .010223389 .07998657 .048233034 .057998659 .14823914 .053985597 .1662445 .053985597 .16725159 .052993776 .16824341 .050994874 .17225647 .04699707 .17225647 .04399109 .17225647 .032989503 .17225647 .032989503 .16725159 .032989503 .14924622V.01322937C.032989503-.004776001 .032989503-.009765625 .042999269-.009765625 .04798889-.009765625 .04899597-.008773804 .06599426 .01222229 .070999149 .019226075 .070999149 .021224976 .085998538 .037231447 .12399292-.009765625 .17799378-.009765625 .19499207-.009765625 .2999878-.009765625 .35198976 .048233034 .35198976 .12724304 .35198976 .1812439 .31900025 .21325684 .30999757 .22225952 .27398683 .25326539 .24699402 .25926209 .18099976 .2712555 .15098572 .27726747 .07798767 .29125978 .07798767 .35127259 .07798767 .38227845 .09899902 .4282837 .18899536 .4282837 .2979889 .4282837 .3039856 .3352661 .30599977 .30426026 .30699159 .29626466 .31399537 .29626466 .31698609 .29626466 .32798768 .29626466 .32798768 .30126954 .32798768 .3192749V.4232788Z"/>
<path id="font_2_9" d="M.17399597 .61602786C.17399597 .6420288 .15299988 .66503909 .125 .66503909 .09899902 .66503909 .07699585 .6440277 .07699585 .6170349 .07699585 .58703616 .100997928 .5680237 .125 .5680237 .1559906 .5680237 .17399597 .59402468 .17399597 .61602786M.035995485 .43040467V.4013977C.099990848 .4013977 .10899353 .39538575 .10899353 .346344V.074035648C.10899353 .0289917 .09799194 .0289917 .032989503 .0289917V0C.06098938 .0019989014 .10899353 .0019989014 .13798523 .0019989014 .14898682 .0019989014 .20698548 .0019989014 .24099732 0V.0289917C.17599488 .0289917 .17199707 .033996583 .17199707 .07304382V.44140626L.035995485 .43040467Z"/>
<path id="font_2_10" d="M.44499208 .24320984C.44499208 .3363037 .44499208 .3643341 .42199708 .39637757 .3929901 .4353943 .34599305 .44140626 .31199647 .44140626 .21499634 .44140626 .1769867 .3583374 .16899109 .33831788H.16799927V.44140626L.03199768 .43040467V.40138246C.099990848 .40138246 .10798645 .3943634 .10798645 .34532167V.074035648C.10798645 .0289917 .09700012 .0289917 .03199768 .0289917V0C.057998659 .0019989014 .11199951 .0019989014 .13999939 .0019989014 .16899109 .0019989014 .22299195 .0019989014 .24899292 0V.0289917C.18499756 .0289917 .17298889 .0289917 .17298889 .074035648V.2602234C.17298889 .3653412 .24198914 .42140199 .3039856 .42140199 .3659973 .42140199 .37998963 .37034608 .37998963 .3092804V.074035648C.37998963 .0289917 .36898805 .0289917 .3039856 .0289917V0C.32998658 .0019989014 .38398744 .0019989014 .4119873 .0019989014 .44099427 .0019989014 .49499513 .0019989014 .5209961 0V.0289917C.47099305 .0289917 .44599916 .0289917 .44499208 .059020997V.24320984Z"/>
<path id="font_1_1" d="M.44299317 .50320437C.44299317 .6051483 .41099549 .70410159 .32899476 .70410159 .18899536 .70410159 .039993287 .41127015 .039993287 .19126892 .039993287 .14524842 .049987794-.009765625 .15499878-.009765625 .29100038-.009765625 .44299317 .27627564 .44299317 .50320437M.13999939 .3623047C.15499878 .42126466 .17599488 .50520327 .21598816 .5761566 .24899292 .63612368 .28399659 .6840973 .32798768 .6840973 .36099244 .6840973 .3829956 .6561127 .3829956 .56018069 .3829956 .52420046 .37998963 .4742279 .35099793 .3623047H.13999939M.34399415 .33229066C.31900025 .23426819 .2979889 .17126465 .2619934 .10824585 .23298645 .057235719 .19799805 .010223389 .1559906 .010223389 .125 .010223389 .099990848 .034225465 .099990848 .133255 .099990848 .1982727 .115997318 .26628114 .13198853 .33229066H.34399415Z"/>
<path id="font_2_8" d="M.3619995 .3701172C.34999085 .3701172 .31298829 .3701172 .31298829 .32911683 .31298829 .30511476 .32998658 .28811646 .35398866 .28811646 .3769989 .28811646 .3959961 .30210877 .3959961 .33111573 .3959961 .39819337 .32598878 .44628907 .24499512 .44628907 .12799073 .44628907 .034988405 .34210206 .034988405 .21614075 .034988405 .0881958 .1309967-.009765625 .24398804-.009765625 .37599183-.009765625 .4059906 .110183719 .4059906 .1191864 .4059906 .12817383 .39898683 .12817383 .3959961 .12817383 .3869934 .12817383 .38598634 .1251831 .3829956 .1131897 .36099244 .04222107 .30699159 .01222229 .25299073 .01222229 .19198609 .01222229 .11099243 .065200809 .11099243 .21713257 .11099243 .3831482 .19599915 .4242859 .24598694 .4242859 .28399659 .4242859 .33898927 .40924073 .3619995 .3701172Z"/>
<path id="font_2_11" d="M.45899964 .21424866C.45899964 .34327699 .36099244 .44628907 .24499512 .44628907 .125 .44628907 .02999878 .340271 .02999878 .21424866 .02999878 .086242679 .12998963-.009765625 .24398804-.009765625 .3619995-.009765625 .45899964 .08824158 .45899964 .21424866M.24499512 .01222229C.20799256 .01222229 .16299439 .02822876 .13398743 .07723999 .10699463 .12223816 .10598755 .1812439 .10598755 .22325135 .10598755 .261261 .10598755 .32226563 .13699341 .36727906 .16499329 .41027833 .20899964 .4262848 .24398804 .4262848 .2829895 .4262848 .32499696 .40827943 .35198976 .36927796 .3829956 .3232727 .3829956 .2602539 .3829956 .22325135 .3829956 .18824768 .3829956 .12623596 .35699464 .07923889 .32899476 .031234742 .2829895 .01222229 .24499512 .01222229Z"/>
</defs>
<path transform="matrix(1.0001,0,0,-1.00003,207.0282,177.50295)" stroke-width=".3985" stroke-linecap="butt" stroke-miterlimit="10" stroke-linejoin="miter" fill="none" stroke="#000000" d="M0 0"/>
<use data-text="O" xlink:href="#font_1_3" transform="matrix(14.347635,0,0,-14.346631,192.38173,190.82634)"/>
<path transform="matrix(1.0001,0,0,-1.00003,207.0282,177.50295)" stroke-width=".59776" stroke-linecap="butt" stroke-miterlimit="10" stroke-linejoin="miter" fill="none" stroke="#000000" d="M-162.99326 0H27.7486"/>
<path transform="matrix(1.0001,0,0,-1.00003,235.07848,177.50295)" stroke-width=".59776" stroke-linecap="round" stroke-linejoin="round" fill="none" stroke="#000000" d="M-2.31136 2.751C-1.88908 1.10037-.94807 .32094 0 0-.94807-.32094-1.88908-1.10037-2.31136-2.751"/>
<use data-text="x" xlink:href="#font_1_5" transform="matrix(14.347635,0,0,-14.346631,238.99739,180.59104)"/>
<path transform="matrix(1.0001,0,0,-1.00003,207.0282,177.50295)" stroke-width=".59776" stroke-linecap="butt" stroke-miterlimit="10" stroke-linejoin="miter" fill="none" stroke="#000000" d="M0-28.34636V162.39548"/>
<path transform="matrix(0,-1.00003,-1.0001,-0,207.0282,14.803696)" stroke-width=".59776" stroke-linecap="round" stroke-linejoin="round" fill="none" stroke="#000000" d="M-2.31136 2.751C-1.88908 1.10037-.94807 .32094 0 0-.94807-.32094-1.88908-1.10037-2.31136-2.751"/>
<use data-text="y" xlink:href="#font_1_6" transform="matrix(14.347635,0,0,-14.346631,203.34583,8.095856)"/>
<path transform="matrix(1.0001,0,0,-1.00003,207.0282,177.50295)" stroke-width="1.59404" stroke-linecap="butt" stroke-miterlimit="10" stroke-linejoin="miter" fill="none" stroke="#0000ff" d="M0 0V140.14"/>
<path transform="matrix(0,-1.00003,-1.0001,-0,207.0282,36.561708)" stroke-width="1.59404" stroke-linecap="round" stroke-linejoin="round" fill="none" stroke="#0000ff" d="M-3.5069 4.55072C-2.8662 1.82025-1.43846 .5309 0 0-1.43846-.5309-2.8662-1.82025-3.5069-4.55072"/>
<path transform="matrix(1.0001,0,0,-1.00003,207.0282,177.50295)" stroke-width="1.59404" stroke-linecap="butt" stroke-miterlimit="10" stroke-linejoin="miter" fill="none" stroke="#0000ff" d="M0 0-121.92586 70.07274"/>
<path transform="matrix(-.8670767,-.49827496,-.49830983,.867016,84.39907,107.030979)" stroke-width="1.59404" stroke-linecap="round" stroke-linejoin="round" fill="none" stroke="#0000ff" d="M-3.5069 4.55072C-2.8662 1.82025-1.43846 .5309 0 0-1.43846-.5309-2.8662-1.82025-3.5069-4.55072"/>
<path transform="matrix(1.0001,0,0,-1.00003,207.0282,177.50295)" stroke-width=".3985" stroke-linecap="butt" stroke-dasharray="2.98883,2.98883" stroke-miterlimit="10" stroke-linejoin="miter" fill="none" stroke="#000000" d="M-123.30788 70.86697V0"/>
<path transform="matrix(1.0001,0,0,-1.00003,207.0282,177.50295)" stroke-width=".3985" stroke-linecap="butt" stroke-dasharray="2.98883,2.98883" stroke-miterlimit="10" stroke-linejoin="miter" fill="none" stroke="#000000" d="M0-7.08708H-123.30788"/>
<path transform="matrix(1.0001,0,0,-1.00003,207.0282,177.50295)" stroke-width=".3985" stroke-linecap="butt" stroke-miterlimit="10" stroke-linejoin="miter" fill="none" stroke="#000000" d="M0 141.73404"/>
<use data-text="[" xlink:href="#font_2_6" transform="matrix(14.347635,0,0,-14.346631,210.54856,39.35179)" fill="#0000ff"/>
<use data-text="0" xlink:href="#font_2_3" transform="matrix(14.347635,0,0,-14.346631,214.43677,39.35179)" fill="#0000ff"/>
<use data-text="," xlink:href="#font_1_2" transform="matrix(14.347635,0,0,-14.346631,221.47565,39.35179)" fill="#0000ff"/>
<use data-text="1" xlink:href="#font_2_4" transform="matrix(14.347635,0,0,-14.346631,227.76926,39.35179)" fill="#0000ff"/>
<use data-text="]" xlink:href="#font_2_7" transform="matrix(14.347635,0,0,-14.346631,234.78525,39.35179)" fill="#0000ff"/>
<path transform="matrix(1.0001,0,0,-1.00003,207.0282,177.50295)" stroke-width=".3985" stroke-linecap="butt" stroke-miterlimit="10" stroke-linejoin="miter" fill="none" stroke="#000000" d="M-127.55972 70.86697"/>
<use data-text="R" xlink:href="#font_1_4" transform="matrix(14.347635,0,0,-14.346631,1.2145996,99.5276)" fill="#0000ff"/>
<use data-text="&#x03b8;" xlink:href="#font_3_1" transform="matrix(9.963596,0,0,-9.962899,11.908661,101.67966)" fill="#0000ff"/>
<use data-text="(" xlink:href="#font_2_1" transform="matrix(14.347635,0,0,-14.346631,17.360199,99.5276)" fill="#0000ff"/>
<use data-text="[" xlink:href="#font_2_6" transform="matrix(14.347635,0,0,-14.346631,22.812317,99.5276)" fill="#0000ff"/>
<use data-text="0" xlink:href="#font_2_3" transform="matrix(14.347635,0,0,-14.346631,26.700531,99.5276)" fill="#0000ff"/>
<use data-text="," xlink:href="#font_1_2" transform="matrix(14.347635,0,0,-14.346631,33.750856,99.5276)" fill="#0000ff"/>
<use data-text="1" xlink:href="#font_2_4" transform="matrix(14.347635,0,0,-14.346631,40.044466,99.5276)" fill="#0000ff"/>
<use data-text="]" xlink:href="#font_2_7" transform="matrix(14.347635,0,0,-14.346631,47.060457,99.5276)" fill="#0000ff"/>
<use data-text=")" xlink:href="#font_2_2" transform="matrix(14.347635,0,0,-14.346631,50.94867,99.5276)" fill="#0000ff"/>
<use data-text="=" xlink:href="#font_2_5" transform="matrix(14.347635,0,0,-14.346631,60.37509,99.5276)" fill="#0000ff"/>
<use data-text="[" xlink:href="#font_2_6" transform="matrix(14.347635,0,0,-14.346631,75.28229,99.5276)" fill="#0000ff"/>
<use data-text="&#x2212;" xlink:href="#font_4_1" transform="matrix(14.347635,0,0,-14.346631,79.234409,99.5276)" fill="#0000ff"/>
<use data-text="s" xlink:href="#font_2_12" transform="matrix(14.347635,0,0,-14.346631,92.78476,99.5276)" fill="#0000ff"/>
<use data-text="i" xlink:href="#font_2_9" transform="matrix(14.347635,0,0,-14.346631,98.32294,99.5276)" fill="#0000ff"/>
<use data-text="n" xlink:href="#font_2_10" transform="matrix(14.347635,0,0,-14.346631,102.21115,99.5276)" fill="#0000ff"/>
<use data-text="&#x03b8;" xlink:href="#font_1_1" transform="matrix(14.347635,0,0,-14.346631,112.42471,99.5276)" fill="#0000ff"/>
<use data-text="," xlink:href="#font_1_2" transform="matrix(14.347635,0,0,-14.346631,119.354648,99.5276)" fill="#0000ff"/>
<use data-text="c" xlink:href="#font_2_8" transform="matrix(14.347635,0,0,-14.346631,125.65506,99.5276)" fill="#0000ff"/>
<use data-text="o" xlink:href="#font_2_11" transform="matrix(14.347635,0,0,-14.346631,131.89627,99.5276)" fill="#0000ff"/>
<use data-text="s" xlink:href="#font_2_12" transform="matrix(14.347635,0,0,-14.346631,138.91226,99.5276)" fill="#0000ff"/>
<use data-text="&#x03b8;" xlink:href="#font_1_1" transform="matrix(14.347635,0,0,-14.346631,146.85617,99.5276)" fill="#0000ff"/>
<use data-text="]" xlink:href="#font_2_7" transform="matrix(14.347635,0,0,-14.346631,153.79288,99.5276)" fill="#0000ff"/>
<path transform="matrix(1.0001,0,0,-1.00003,207.0282,177.50295)" stroke-width=".3985" stroke-linecap="butt" stroke-miterlimit="10" stroke-linejoin="miter" fill="none" stroke="#000000" d="M-123.30788 35.43344"/>
<use data-text="c" xlink:href="#font_2_8" transform="matrix(14.347635,0,0,-14.346631,52.049699,147.05004)"/>
<use data-text="o" xlink:href="#font_2_11" transform="matrix(14.347635,0,0,-14.346631,58.29091,147.05004)"/>
<use data-text="s" xlink:href="#font_2_12" transform="matrix(14.347635,0,0,-14.346631,65.3069,147.05004)"/>
<use data-text="&#x03b8;" xlink:href="#font_1_1" transform="matrix(14.347635,0,0,-14.346631,73.25081,147.05004)"/>
<path transform="matrix(1.0001,0,0,-1.00003,207.0282,177.50295)" stroke-width=".3985" stroke-linecap="butt" stroke-miterlimit="10" stroke-linejoin="miter" fill="none" stroke="#000000" d="M-70.86697-14.17424"/>
<use data-text="s" xlink:href="#font_2_12" transform="matrix(14.347635,0,0,-14.346631,139.67447,196.65952)"/>
<use data-text="i" xlink:href="#font_2_9" transform="matrix(14.347635,0,0,-14.346631,145.21265,196.65952)"/>
<use data-text="n" xlink:href="#font_2_10" transform="matrix(14.347635,0,0,-14.346631,149.10086,196.65952)"/>
<use data-text="&#x03b8;" xlink:href="#font_1_1" transform="matrix(14.347635,0,0,-14.346631,159.31443,196.65952)"/>
</svg>
