<svg xmlns="http://www.w3.org/2000/svg" xmlns:xlink="http://www.w3.org/1999/xlink" xmlns:inkscape="http://www.inkscape.org/namespaces/inkscape" version="1.1" width="413" height="234" viewBox="0 0 413 234">
<defs>
<path id="font_1_5" d="M.48599244 .38136292C.48999024 .39537049 .48999024 .39736939 .48999024 .40437318 .48999024 .42237855 .47599793 .43138124 .46099855 .43138124 .45098878 .43138124 .43499757 .42536927 .42599488 .41036988 .42399598 .405365 .41600038 .37435914 .4119873 .35635377 .40499879 .33035279 .397995 .30334474 .3919983 .27633668L.34700013 .09628296C.34298707 .08126831 .2999878 .011245728 .23399353 .011245728 .18299866 .011245728 .17199707 .055267335 .17199707 .0922699 .17199707 .1382904 .18899536 .20030213 .22299195 .28833009 .23899842 .3293457 .24299622 .3403473 .24299622 .36035157 .24299622 .405365 .21099854 .4423828 .16099549 .4423828 .06599426 .4423828 .0289917 .29733277 .0289917 .28833009 .0289917 .27833558 .038986207 .27833558 .040985109 .27833558 .050994874 .27833558 .051986696 .28033448 .056991579 .29634095 .083999637 .3903656 .12399292 .42037965 .1579895 .42037965 .1659851 .42037965 .18299866 .42037965 .18299866 .3883667 .18299866 .36335755 .17298889 .3373413 .1659851 .31834413 .12599182 .21231079 .10798645 .1552887 .10798645 .10827637 .10798645 .019256592 .17098999-.0107421879 .22999573-.0107421879 .2689972-.0107421879 .30299378 .0062561037 .33099366 .03425598 .31799317-.017745972 .30599977-.06674194 .2659912-.11973572 .23999024-.15385437 .20199585-.18309021 .1559906-.18309021 .14199829-.18309021 .09700012-.18005371 .07998657-.14074707 .09599304-.14074707 .10899353-.14074707 .12298584-.1287384 .1329956-.11973572 .14299011-.10673523 .14299011-.08773804 .14299011-.056747438 .115997318-.052734376 .10598755-.052734376 .08299255-.052734376 .049987794-.068740848 .049987794-.11773682 .049987794-.16796875 .09399414-.20507813 .1559906-.20507813 .25898744-.20507813 .3619995-.11373901 .3899994-.00074768069L.48599244 .38136292Z"/>
<path id="font_1_4" d="M.33399964 .30233766C.33999635 .32835389 .36299134 .42037965 .43299867 .42037965 .43798829 .42037965 .46199037 .42037965 .48298646 .40734864 .45498658 .402359 .43499757 .37734986 .43499757 .35334779 .43499757 .33735658 .44599916 .31835938 .47299195 .31835938 .49499513 .31835938 .5269928 .3363495 .5269928 .37635804 .5269928 .42837525 .46798707 .4423828 .43399049 .4423828 .37599183 .4423828 .34098817 .38935853 .32899476 .36634828 .3039856 .43237306 .25 .4423828 .22099304 .4423828 .116989139 .4423828 .05999756 .3133545 .05999756 .28834535 .05999756 .27833558 .069992069 .27833558 .07199097 .27833558 .07998657 .27833558 .08299255 .28033448 .084991458 .28933717 .11898804 .39535523 .18499756 .42037965 .21899414 .42037965 .23799134 .42037965 .272995 .4113617 .272995 .35334779 .272995 .32235719 .2559967 .25532533 .21899414 .11528015 .20298767 .053268434 .16799927 .011245728 .12399292 .011245728 .117996219 .011245728 .09498596 .011245728 .07398987 .024276734 .09899902 .029266358 .12098694 .05027771 .12098694 .07827759 .12098694 .105270389 .09899902 .11328125 .083999637 .11328125 .053985597 .11328125 .0289917 .08728027 .0289917 .055267335 .0289917 .009246826 .07899475-.0107421879 .12298584-.0107421879 .18899536-.0107421879 .22499085 .059280397 .22799683 .0652771 .23999024 .028274537 .27598573-.0107421879 .33599855-.0107421879 .43899537-.0107421879 .49598695 .118270877 .49598695 .14328003 .49598695 .1532898 .4869995 .1532898 .48399354 .1532898 .47499085 .1532898 .47299195 .14929199 .47099305 .14228821 .43798829 .03527832 .36999513 .011245728 .33799745 .011245728 .29899598 .011245728 .2829895 .043273927 .2829895 .07727051 .2829895 .09927368 .2889862 .121276859 .2999878 .16529846L.33399964 .30233766Z"/>
<path id="font_2_1" d="M.28799439 .64105227C.28799439 .664032 .28799439 .66503909 .2679901 .66503909 .24398804 .6380615 .19400025 .6012573 .09098816 .6012573V.5722656C.11399841 .5722656 .1639862 .5722656 .21899414 .59825137V.07701111C.21899414 .041000368 .21598816 .0289917 .12799073 .0289917H.09700012V0C.12399292 .0019989014 .22099304 .0019989014 .2539978 .0019989014 .2869873 .0019989014 .3829956 .0019989014 .4099884 0V.0289917H.3789978C.29100038 .0289917 .28799439 .041000368 .28799439 .07701111V.64105227Z"/>
<path id="font_3_95" d="M.83499148 .0921936C.83499148 .109176639 .82699587 .11216736 .81399539 .11216736 .79499819 .11216736 .7939911 .10517883 .79299929 .0921936 .7879944 .042251588 .7569885 .021270752 .72898867 .021270752 .6649933 .021270752 .6579895 .0881958 .6499939 .18008423 .6439972 .23301697 .6369934 .30693055 .5289917 .3399048 .6639862 .3758545 .69699099 .44776917 .69699099 .501709 .69699099 .601593 .59199526 .6855469 .40699769 .6855469H.037994386V.64253237H.14399719V.042999269H.037994386V0C.066986087 .0019989014 .17098999 .0019989014 .20698548 .0019989014 .24299622 .0019989014 .34799195 .0019989014 .3769989 0V.042999269H.2709961V.32714845H.3899994C.42999269 .32714845 .46199037 .31513978 .48399354 .28912355 .5139923 .25509645 .5139923 .23309326 .5139923 .1660614 .5139923 .09901428 .5139923 .057998659 .5649872 .023986817 .61698916-.010726929 .69898989-.01171875 .72099307-.01171875 .82299807-.01171875 .83499148 .07824707 .83499148 .09223938V.0921936M.55599978 .50183108C.55599978 .44696046 .5549927 .36013795 .3880005 .36013795H.2709961V.64253237H.3899994C.5529938 .64253237 .55599978 .5607147 .55599978 .50183108Z"/>
<path id="font_3_81" d="M.5299988 .21913147C.5299988 .35412599 .43798829 .453125 .2809906 .453125 .117996219 .453125 .0309906 .3491211 .0309906 .21913147 .0309906 .088134769 .12298584-.005859375 .27999879-.005859375 .44299317-.005859375 .5299988 .09312439 .5299988 .21913147M.4099884 .22912598C.4099884 .14613343 .4099884 .030136109 .2809906 .030136109 .15098572 .030136109 .15098572 .14712525 .15098572 .22912598 .15098572 .27612306 .15098572 .3261261 .16999817 .36212159 .19198609 .40211488 .23699951 .42012025 .27999879 .42012025 .33699037 .42012025 .37298585 .39311219 .3899994 .3651123 .4099884 .32911683 .4099884 .27713014 .4099884 .22912598Z"/>
<path id="font_3_105" d="M.37399293 .124176029V.17721558H.33198548V.1251831C.33198548 .059143068 .3019867 .030136109 .2709961 .030136109 .21099854 .030136109 .21099854 .09716797 .21099854 .12017822V.4013214H.35499574V.44433595H.21099854V.6357422H.16899109C.16799927 .53652957 .11999512 .43733216 .020996094 .43432618V.4013214H.101989749V.123184207C.101989749 .01713562 .18399048-.005859375 .2559967-.005859375 .32998658-.005859375 .37399293 .05014038 .37399293 .124176029Z"/>
<path id="font_3_28" d="M.54100039 .022140503C.54100039 .043136598 .5319977 .043136598 .5179901 .043136598 .45498658 .044128419 .45498658 .060134889 .45498658 .08312988V.29911805C.45498658 .39111329 .38198854 .453125 .24099732 .453125 .18499756 .453125 .066986087 .44812013 .066986087 .36412049 .066986087 .32211305 .09899902 .30412293 .12599182 .30412293 .1559906 .30412293 .18499756 .32511903 .18499756 .3631134 .18499756 .3821106 .17799378 .40011598 .16099549 .41111756 .19400025 .42012025 .21798706 .42012025 .23699951 .42012025 .30499269 .42012025 .34599305 .3821106 .34599305 .30012513V.26011659C.18798828 .26011659 .0289917 .21612549 .0289917 .10513306 .0289917 .014129639 .14498902-.005859375 .21398926-.005859375 .29100038-.005859375 .33999635 .036132814 .3600006 .0801239 .3600006 .042999269 .3600006 0 .46099855 0H.5119934C.5329895 0 .54100039 0 .54100039 .021987915V.022140503M.34599305 .13899231C.34599305 .04499817 .2619934 .026992798 .22999573 .026992798 .18099976 .026992798 .13999939 .05999756 .13999939 .10598755 .13999939 .19699097 .24798584 .22799683 .34599305 .23298645V.13899231Z"/>
<path id="font_3_66" d="M.2789917 0V.042999269H.21699524V.4501953L.04699707 .4423828V.3993683C.10598755 .3993683 .11299133 .3993683 .11299133 .3603363V.042999269H.04399109V0C.066986087 .0019989014 .13598633 .0019989014 .16299439 .0019989014 .19099427 .0019989014 .25498963 .0019989014 .2789917 0M.22898865 .6081238C.22898865 .64912417 .19499207 .68013 .15699768 .68013 .115997318 .68013 .083999637 .64712527 .083999637 .6081238 .083999637 .5671234 .117996219 .5361328 .1559906 .5361328 .19699097 .5361328 .22898865 .5691223 .22898865 .6081238Z"/>
<path id="font_3_77" d="M.59999087 0V.042999269H.5309906V.30613709C.5309906 .40118409 .48999024 .4501953 .37998963 .4501953 .30799867 .4501953 .24598694 .41519166 .21199036 .34014894H.21099854V.4501953L.041992189 .4423828V.3993683C.10398865 .3993683 .11099243 .3993683 .11099243 .36035157V.042999269H.041992189V0C.06498718 .0019989014 .13699341 .0019989014 .16499329 .0019989014 .19299317 .0019989014 .2659912 .0019989014 .2889862 0V.042999269H.21998596V.25627137C.21998596 .3643341 .2999878 .41719056 .3639984 .41719056 .40098573 .41719056 .42199708 .3932495 .42199708 .31733705V.042999269H.35299684V0C.37599183 .0019989014 .44799806 .0019989014 .47599793 .0019989014 .5039978 .0019989014 .57699587 .0019989014 .59999087 0Z"/>
<path id="font_3_98" d="M.40499879 .13912964C.40499879 .18711853 .3789978 .22012329 .35899354 .23812866 .31799317 .27212525 .28399659 .27812196 .22999573 .28811646 .1659851 .29911805 .10598755 .31011964 .10598755 .35812379 .10598755 .42311097 .19499207 .42311097 .21598816 .42311097 .32699586 .42311097 .33299256 .3531189 .33499146 .328125 .33599855 .3151245 .34399415 .3151245 .35598756 .3151245 .3769989 .3151245 .3769989 .31811524 .3769989 .34111024V.42712403C.3769989 .44612123 .3769989 .453125 .3619995 .453125 .35598756 .453125 .35398866 .453125 .33898927 .4441223 .33499146 .44111634 .32398988 .43411256 .31900025 .43112184 .29100038 .44711305 .2539978 .453125 .21798706 .453125 .18798828 .453125 .037994386 .453125 .037994386 .32312013 .037994386 .21812439 .1619873 .19612122 .19299317 .19113159 .21998596 .18612671 .25299073 .18013 .25698854 .18013 .29699708 .17112732 .33699037 .14613343 .33699037 .10412598 .33699037 .027130127 .24598694 .027130127 .22499085 .027130127 .17399597 .027130127 .11099243 .043136598 .08299255 .14012146 .07699585 .16012573 .07598877 .16113281 .05899048 .16113281 .037994386 .16113281 .037994386 .15812683 .037994386 .13513184V.020126343C.037994386 .0011291504 .037994386-.005859375 .052993776-.005859375 .05999756-.005859375 .06199646-.005859375 .08198547 .010131836L.10798645 .029129029C.15299988-.005859375 .20698548-.005859375 .22499085-.005859375 .27999879-.005859375 .40499879 .006134033 .40499879 .13912964Z"/>
<path id="font_4_4" d="M.41600038 .6529541 .3999939 .66796877C.3999939 .66696169 .3619995 .6199646 .31799317 .6199646 .29499818 .6199646 .269989 .634964 .25299073 .6449585 .22599793 .66096499 .20799256 .66796877 .19099427 .66796877 .15299988 .66796877 .13398743 .6459656 .08299255 .5899658L.09899902 .57496646C.09899902 .57595828 .13699341 .6229553 .18099976 .6229553 .20399475 .6229553 .22898865 .60795596 .24598694 .5979614 .272995 .58195498 .29100038 .57496646 .30799867 .57496646 .34599305 .57496646 .36499024 .59695437 .41600038 .6529541Z"/>
<path id="font_1_2" d="M.34999085 .056259157C.36099244 .015258789 .3959961-.0107421879 .43899537-.0107421879 .47399903-.0107421879 .49699403 .012252808 .5130005 .044265748 .5299988 .08027649 .54299929 .14129639 .54299929 .14329529 .54299929 .1532898 .5339966 .1532898 .5309906 .1532898 .5209961 .1532898 .519989 .14929199 .5169983 .13528443 .5029907 .07926941 .48399354 .011245728 .44198609 .011245728 .42099 .011245728 .41099549 .024261475 .41099549 .057266237 .41099549 .07926941 .4229889 .12628174 .43099977 .16130066L.45899964 .2693329C.46199037 .28433229 .47200013 .32234193 .47599793 .3373413 .48098756 .36035157 .4909973 .3983612 .4909973 .40437318 .4909973 .42237855 .47698976 .43138124 .46199037 .43138124 .45700074 .43138124 .43099977 .43037416 .4229889 .3963623 .4039917 .323349 .3600006 .14828491 .34799195 .09527588 .34700013 .091278079 .30699159 .011245728 .23399353 .011245728 .18199158 .011245728 .17199707 .056259157 .17199707 .09327698 .17199707 .14929199 .19999695 .22831726 .22599793 .29733277 .23799134 .3273468 .24299622 .34135438 .24299622 .36035157 .24299622 .405365 .21099854 .4423828 .16099549 .4423828 .06599426 .4423828 .0289917 .29733277 .0289917 .28833009 .0289917 .27833558 .038986207 .27833558 .040985109 .27833558 .050994874 .27833558 .051986696 .28033448 .056991579 .29634095 .08198547 .38336183 .11999512 .42037965 .1579895 .42037965 .16699219 .42037965 .18299866 .41937257 .18299866 .38735963 .18299866 .36335755 .17199707 .3343506 .1659851 .31933595 .1289978 .2203064 .10798645 .15829468 .10798645 .10928345 .10798645 .014251709 .1769867-.0107421879 .23098755-.0107421879 .29699708-.0107421879 .33299256 .03425598 .34999085 .056259157Z"/>
<path id="font_1_3" d="M.46798707 .37236024C.46798707 .42637635 .44198609 .4423828 .42399598 .4423828 .39898683 .4423828 .375 .41636659 .375 .3943634 .375 .38136292 .37998963 .3753662 .3909912 .36434938 .4119873 .3443451 .4249878 .31834413 .4249878 .28233338 .4249878 .24032593 .3639984 .011245728 .24699402 .011245728 .19599915 .011245728 .17298889 .04626465 .17298889 .09828186 .17298889 .15429688 .19999695 .22731018 .23098755 .31033326 .23799134 .3273468 .24299622 .34135438 .24299622 .36035157 .24299622 .405365 .21099854 .4423828 .16099549 .4423828 .066986087 .4423828 .0289917 .29733277 .0289917 .28833009 .0289917 .27833558 .038986207 .27833558 .040985109 .27833558 .050994874 .27833558 .051986696 .28033448 .056991579 .29634095 .085998538 .39736939 .1289978 .42037965 .1579895 .42037965 .1659851 .42037965 .18299866 .42037965 .18299866 .3883667 .18299866 .36335755 .17298889 .3363495 .1659851 .31834413 .12199402 .20230103 .10899353 .15629578 .10899353 .11328125 .10899353 .0052490236 .19699097-.0107421879 .24299622-.0107421879 .41099549-.0107421879 .46798707 .32034303 .46798707 .37236024Z"/>
<path id="font_4_3" d="M.40899659 .23046875H.6879883C.70199587 .23046875 .72099307 .23046875 .72099307 .25045777 .72099307 .27046205 .70199587 .27046205 .6879883 .27046205H.40899659V.5500183C.40899659 .56399539 .40899659 .5830078 .3889923 .5830078 .36898805 .5830078 .36898805 .56399539 .36898805 .5500183V.27046205H.08898926C.07499695 .27046205 .055999757 .27046205 .055999757 .25045777 .055999757 .23046875 .07499695 .23046875 .08898926 .23046875H.36898805V-.05000305C.36898805-.06401062 .36898805-.08300781 .3889923-.08300781 .40899659-.08300781 .40899659-.06401062 .40899659-.05000305V.23046875Z"/>
<path id="font_5_1" d="M.3809967 .6125946C.3869934 .63760378 .3899994 .6476135 .4079895 .65060427 .4169922 .6516113 .44999696 .6516113 .47099305 .6516113 .5499878 .6516113 .6599884 .6516113 .6599884 .5505829 .6599884 .51356509 .644989 .4385376 .58799746 .39552308 .56399539 .3795166 .5139923 .35351563 .43299867 .35351563H.31599427L.3809967 .6125946M.5359955 .33850099C.6719971 .3735199 .7559967 .44953919 .7559967 .53157046 .7559967 .61860659 .6609955 .6826172 .5279999 .6826172H.23799134C.21998596 .6826172 .20799256 .6826172 .20799256 .6646118 .20799256 .6516113 .21699524 .6516113 .23799134 .6516113 .24198914 .6516113 .2599945 .6516113 .27598573 .6496124 .29299928 .6476135 .2999878 .6456146 .2999878 .6345978 .2999878 .62960818 .29899598 .6255951 .29599 .6145935L.16099549 .075531009C.1519928 .039535524 .1499939 .030532837 .07499695 .030532837 .055999757 .030532837 .04499817 .030532837 .04499817 .012527466 .04499817 .0015258789 .052993776-.00047302247 .05999756-.00047302247 .07598877-.00047302247 .10598755 .0005340576 .12298584 .0015258789 .14399719 .002532959 .1459961 .002532959 .18499756 .002532959 .21699524 .002532959 .21899414 .002532959 .24899292 .0015258789 .2689972 .0005340576 .2939911-.00047302247 .31298829-.00047302247 .31999208-.00047302247 .33299256-.00047302247 .33299256 .017532349 .33299256 .030532837 .32299806 .030532837 .3019867 .030532837 .2979889 .030532837 .27999879 .030532837 .2639923 .03253174 .24198914 .03552246 .24099732 .039535524 .24099732 .04852295 .24099732 .05152893 .24099732 .053527833 .24598694 .0715332L.30999757 .32850648H.43299867C.522995 .32850648 .54599 .27650453 .54599 .23851013 .54599 .2315216 .54599 .22451782 .5399933 .20251465 .5159912 .11051941 .5159912 .10151672 .5159912 .08653259 .5159912-.0034637452 .6009979-.022460938 .6519928-.022460938 .7389984-.022460938 .7749939 .07852173 .7749939 .0945282 .7749939 .10151672 .7689972 .10652161 .7619934 .10652161 .7509918 .10652161 .75 .10151672 .74598696 .089523319 .72898867 .037521364 .69200137 .002532959 .6549988 .002532959 .61698916 .002532959 .61499026 .03253174 .61499026 .061523439 .61499026 .08653259 .621994 .14451599 .6230011 .15151978 .625 .16752625 .6299896 .20751953 .6299896 .22251892 .6299896 .2795105 .59399417 .31851197 .5359955 .33850099Z"/>
<path id="font_6_2" d="M.35899354 .6349335C.35899354 .66503909 .35499574 .66503909 .32499696 .66503909 .25898744 .60058596 .15699768 .60058596 .12098694 .60058596V.5615845C.14698792 .5615845 .21299744 .5615845 .272995 .58958438V.08496094C.272995 .051986696 .272995 .038986207 .16999817 .038986207H.1269989V0C.18199158 .0039978029 .2599945 .0039978029 .31599427 .0039978029 .37199403 .0039978029 .44999696 .0039978029 .5049896 0V.038986207H.46199037C.35899354 .038986207 .35899354 .051986696 .35899354 .08496094V.6349335Z"/>
<path id="font_6_3" d="M.5379944 .18702698H.5009918C.49899293 .17301941 .4889984 .10699463 .47399903 .09599304 .46699525 .08999634 .38598634 .08999634 .37199403 .08999634H.18499756L.31298829 .19403076C.34700013 .22103882 .43598939 .28504945 .46699525 .31506349 .49699403 .3450775 .5379944 .39608766 .5379944 .46710206 .5379944 .5920563 .4249878 .66503909 .29100038 .66503909 .1619873 .66503909 .07199097 .58006289 .07199097 .48609925 .07199097 .43510438 .114990238 .42910768 .12599182 .42910768 .15098572 .42910768 .17999268 .44709779 .17999268 .48310853 .17999268 .50509646 .16699219 .5371094 .12298584 .5371094 .1459961 .5880585 .20698548 .6260376 .27598573 .6260376 .3809967 .6260376 .43699647 .5480957 .43699647 .46710206 .43699647 .39608766 .3899994 .32305909 .31999208 .25904847L.08299255 .041992189C.07299805 .03199768 .07199097 .0309906 .07199097 0H.5069885L.5379944 .18702698Z"/>
<path id="font_6_1" d="M.5499878 .31877137C.5499878 .39183045 .5499878 .66503909 .30499269 .66503909 .05999756 .66503909 .05999756 .39183045 .05999756 .31877137 .05999756 .2467041 .05999756-.021484375 .30499269-.021484375 .5499878-.021484375 .5499878 .2467041 .5499878 .31877137M.30499269 .010513306C.2630005 .010513306 .19499207 .030517579 .17098999 .113601688 .15499878 .17164612 .15499878 .2697296 .15499878 .33177186 .15499878 .39883424 .15499878 .4758911 .16899109 .52993777 .19400025 .6200104 .269989 .6330261 .30499269 .6330261 .35099793 .6330261 .4169922 .6110077 .43899537 .5349426 .45399476 .48190309 .45498658 .408844 .45498658 .33177186 .45498658 .26771546 .45498658 .16664124 .43798829 .1105957 .4099884 .023513794 .33799745 .010513306 .30499269 .010513306Z"/>
<path id="font_7_1" d="M.34098817-.23803711C.34098817-.23303223 .33799745-.23002625 .33198548-.22303772 .20298767-.105026248 .1639862 .07498169 .1639862 .24996948 .1639862 .40498353 .19400025 .59298709 .33499146 .72698977 .33898927 .73098757 .34098817 .73399356 .34098817 .7389984 .34098817 .74598696 .33599855 .75 .32899476 .75 .31698609 .75 .22698975 .6779785 .17298889 .568985 .125 .47297669 .100997928 .36997987 .100997928 .25097657 .100997928 .17897034 .10998535 .064971927 .16499329-.053024293 .22399903-.17602539 .31698609-.24902344 .32899476-.24902344 .33599855-.24902344 .34098817-.24502564 .34098817-.23803711Z"/>
<path id="font_5_2" d="M.4869995 .32635499C.49299623 .35235597 .5049896 .39837647 .5049896 .40237428 .5049896 .41537477 .49598695 .43138124 .47399903 .43138124 .45999146 .43138124 .44499208 .42237855 .43798829 .41036988 .43299867 .40037538 .36499024 .12928772 .35899354 .09628296 .33799745 .060272218 .2979889 .014251709 .24299622 .014251709 .18099976 .014251709 .18099976 .07727051 .18099976 .09628296 .18099976 .14129639 .19400025 .19030762 .23699951 .30233766 .24499512 .3253479 .25099183 .33935548 .25099183 .35835267 .25099183 .40737916 .21398926 .4423828 .16499329 .4423828 .068984989 .4423828 .0289917 .30033876 .0289917 .28833009 .0289917 .2793274 .035995485 .27633668 .042999269 .27633668 .053985597 .27633668 .054992677 .28233338 .05899048 .29533387 .07998657 .36735536 .11898804 .41737367 .1619873 .41737367 .18299866 .41737367 .18598938 .40237428 .18598938 .3843689 .18598938 .36735536 .18199158 .34934999 .17298889 .3253479 .12599182 .2013092 .11299133 .15930176 .11299133 .11128235 .11299133 .00024414063 .20298767-.0107421879 .23999024-.0107421879 .29699708-.0107421879 .33799745 .024246216 .3619995 .055267335 .3809967-.0107421879 .44699098-.0107421879 .45298768-.0107421879 .48199464-.0107421879 .5069885 .003250122 .5279999 .042251588 .54599 .07527161 .5609894 .13928223 .5609894 .14329529 .5609894 .14828491 .55799868 .1552887 .5479889 .1552887 .5359955 .1552887 .5349884 .15029907 .5309906 .13128662 .5109863 .052261354 .48999024 .014251709 .45599366 .014251709 .43199159 .014251709 .4249878 .03526306 .4249878 .060272218 .4249878 .07926941 .42999269 .09927368 .43899537 .1342926L.46398927 .23731995 .4869995 .32635499Z"/>
<path id="font_7_2" d="M.2979889 .25097657C.2979889 .3329773 .28599549 .4429779 .23399353 .5539856 .1749878 .6769867 .08198547 .75 .069992069 .75 .05999756 .75 .057998659 .74198916 .057998659 .7389984 .057998659 .73399356 .05999756 .73098757 .066986087 .72398379 .125 .6719818 .23498535 .5359802 .23498535 .25097657 .23498535 .10797119 .20899964-.091033939 .06399536-.22602844 .06199646-.22903443 .057998659-.23303223 .057998659-.23803711 .057998659-.24102783 .05999756-.24902344 .069992069-.24902344 .08198547-.24902344 .17199707-.17703247 .22599793-.06802368 .27398683 .02796936 .2979889 .13098145 .2979889 .25097657Z"/>
<path id="font_1_1" d="M.375 .6136017C.3809967 .63760378 .38398744 .6476135 .40299989 .65060427 .4119873 .6516113 .44400025 .6516113 .46398927 .6516113 .5349884 .6516113 .6459961 .6516113 .6459961 .5525818 .6459961 .51856997 .6299896 .44955445 .59098818 .41055299 .5649872 .38453675 .5119934 .35253907 .42199708 .35253907H.30999757L.375 .6136017M.5189972 .33953858C.6199951 .3615265 .7389984 .43154908 .7389984 .5325775 .7389984 .61860659 .6489868 .6826172 .5179901 .6826172H.23298645C.21299744 .6826172 .20399475 .6826172 .20399475 .6626129 .20399475 .6516113 .21299744 .6516113 .23199463 .6516113 .23399353 .6516113 .25299073 .6516113 .269989 .6496124 .28799439 .6476135 .29699708 .64660647 .29699708 .63360598 .29699708 .62960818 .29599 .6266022 .29299928 .6145935L.15899658 .07752991C.14898682 .038528444 .14698792 .030532837 .067993167 .030532837 .049987794 .030532837 .040985109 .030532837 .040985109 .010528564 .040985109-.00047302247 .052993776-.00047302247 .054992677-.00047302247 .08299255-.00047302247 .15299988 .002532959 .18099976 .002532959 .20899964 .002532959 .27999879-.00047302247 .30799867-.00047302247 .31599427-.00047302247 .32798768-.00047302247 .32798768 .01953125 .32798768 .030532837 .31900025 .030532837 .2999878 .030532837 .2630005 .030532837 .23498535 .030532837 .23498535 .048538209 .23498535 .054534913 .23699951 .059524537 .23799134 .0655365L.3039856 .3305359H.4229889C.5139923 .3305359 .5319977 .27453614 .5319977 .23953247 .5319977 .22453308 .5239868 .19352722 .5179901 .17053223 .5109863 .14253235 .5019989 .105529788 .5019989 .08552551 .5019989-.022460938 .621994-.022460938 .6349945-.022460938 .7200012-.022460938 .7549896 .07853699 .7549896 .0925293 .7549896 .104537967 .74398806 .104537967 .7429962 .104537967 .73399356 .104537967 .7319946 .09753418 .7299957 .090530399 .7049866 .016525269 .6619873-.00047302247 .6389923-.00047302247 .60598757-.00047302247 .598999 .021530152 .598999 .060531618 .598999 .091537479 .6049957 .14253235 .60899356 .17453003 .61099246 .1885376 .61299136 .20753479 .61299136 .2215271 .61299136 .2985382 .54599 .3295288 .5189972 .33953858Z"/>
<path id="font_8_2" d="M.33499146 .63612368C.33499146 .6630554 .33299256 .6640625 .30499269 .6640625 .24099732 .6014404 .1499939 .6004486 .10899353 .6004486V.5644531C.1329956 .5644531 .19898987 .5644531 .2539978 .592453V.08203125C.2539978 .04899597 .2539978 .035995485 .1539917 .035995485H.115997318V0C.13398743 .0009918213 .25698854 .0039978029 .2939911 .0039978029 .32499696 .0039978029 .45098878 .0009918213 .47299195 0V.035995485H.43499757C.33499146 .035995485 .33499146 .04899597 .33499146 .08203125V.63612368Z"/>
<path id="font_8_3" d="M.5049896 .18203736H.47099305C.46798707 .16001892 .45799256 .100997928 .44499208 .09098816 .43699647 .084991458 .3600006 .084991458 .34599305 .084991458H.1619873C.2669983 .17803955 .3019867 .20603943 .3619995 .25306703 .43598939 .312088 .5049896 .374115 .5049896 .46914674 .5049896 .5900879 .39898683 .6640625 .2709961 .6640625 .14698792 .6640625 .06298828 .57710269 .06298828 .4851532 .06298828 .43414308 .10598755 .42915345 .115997318 .42915345 .13999939 .42915345 .16899109 .44615174 .16899109 .48214723 .16899109 .5001526 .1619873 .53515627 .10998535 .53515627 .14099121 .6060791 .20899964 .62805178 .2559967 .62805178 .35598756 .62805178 .4079895 .5501404 .4079895 .46914674 .4079895 .38212586 .34599305 .3130951 .31399537 .27708436L.07299805 .038986207C.06298828 .02999878 .06298828 .027999878 .06298828 0H.47499085L.5049896 .18203736Z"/>
<path id="font_8_1" d="M.5159912 .31925965C.5159912 .42918397 .5029907 .50813296 .45700074 .5780945 .42599488 .62405398 .3639984 .6640625 .28399659 .6640625 .051986696 .6640625 .051986696 .39120484 .051986696 .31925965 .051986696 .2472992 .051986696-.01953125 .28399659-.01953125 .5159912-.01953125 .5159912 .2472992 .5159912 .31925965M.28399659 .008468628C.23799134 .008468628 .1769867 .035446168 .15699768 .117385867 .14299011 .17634583 .14299011 .25830079 .14299011 .33224488 .14299011 .40519715 .14299011 .4811554 .1579895 .53611758 .1789856 .6150665 .24299622 .63604739 .28399659 .63604739 .33799745 .63604739 .3899994 .6030731 .4079895 .545105 .42399598 .4911499 .4249878 .41918946 .4249878 .33224488 .4249878 .25830079 .4249878 .18434143 .4119873 .12138367 .3919983 .030441285 .32398988 .008468628 .28399659 .008468628Z"/>
<path id="font_4_1" d="M.33099366-.2400055C.33099366-.23701477 .33099366-.23500061 .31399537-.21800232 .18899536-.0920105 .15699768 .09700012 .15699768 .25 .15699768 .42399598 .19499207 .59799197 .31799317 .72299197 .33099366 .73498538 .33099366 .7369995 .33099366 .73999026 .33099366 .746994 .32699586 .75 .32099916 .75 .31098939 .75 .22099304 .6819916 .1619873 .5549927 .11099243 .44499208 .09899902 .33399964 .09899902 .25 .09899902 .17199707 .10998535 .050994874 .16499329-.06201172 .22499085-.18501282 .31098939-.25 .32099916-.25 .32699586-.25 .33099366-.24700928 .33099366-.2400055Z"/>
<path id="font_4_2" d="M.2889862 .25C.2889862 .32798768 .27799989 .44898988 .22299195 .56199648 .16299439 .68499758 .07699585 .75 .066986087 .75 .06098938 .75 .056991579 .74598696 .056991579 .73999026 .056991579 .7369995 .056991579 .73498538 .07598877 .71699526 .17399597 .6179962 .23098755 .45899964 .23098755 .25 .23098755 .07899475 .19400025-.09700012 .069992069-.2230072 .056991579-.23500061 .056991579-.23701477 .056991579-.2400055 .056991579-.2460022 .06098938-.25 .066986087-.25 .07699585-.25 .16699219-.18200684 .22599793-.055007936 .2769928 .054992677 .2889862 .16600037 .2889862 .25Z"/>
<path id="font_7_3" d="M.70599368 .22944641C.7200012 .22944641 .7409973 .22944641 .7409973 .25045777 .7409973 .27246095 .7220001 .27246095 .70599368 .27246095H.42099V.5578003C.42099 .573761 .42099 .59277346 .39898683 .59277346 .37799073 .59277346 .37799073 .57177737 .37799073 .5578003V.27246095H.09199524C.07798767 .27246095 .056991579 .27246095 .056991579 .25144959 .056991579 .22944641 .07598877 .22944641 .09199524 .22944641H.37799073V-.056793214C.37799073-.07279968 .37799073-.091796878 .3999939-.091796878 .42099-.091796878 .42099-.07080078 .42099-.056793214V.22944641H.70599368Z"/>
<path id="font_5_3" d="M.48098756 .3693695C.48098756 .43937684 .44400025 .44337464 .43499757 .44337464 .4099884 .44337464 .38398744 .41638185 .38398744 .39337159 .38398744 .3783722 .3929901 .37036134 .3999939 .36436463 .4269867 .33935548 .43598939 .30734254 .43598939 .28134156 .43598939 .23731995 .37298585 .014251709 .25698854 .014251709 .18199158 .014251709 .18199158 .08427429 .18199158 .10227966 .18199158 .14529419 .19599915 .19630432 .23098755 .28733827 .24699402 .3293457 .25099183 .33935548 .25099183 .35835267 .25099183 .40737916 .21398926 .4423828 .16499329 .4423828 .068984989 .4423828 .0289917 .30033876 .0289917 .28833009 .0289917 .2793274 .035995485 .27633668 .042999269 .27633668 .053985597 .27633668 .054992677 .28233338 .05899048 .29533387 .07998657 .36836244 .11999512 .41737367 .1619873 .41737367 .18199158 .41737367 .18598938 .40437318 .18598938 .3843689 .18598938 .36735536 .18199158 .34934999 .17298889 .3253479 .13699341 .22932434 .11299133 .16529846 .11299133 .11528015 .11299133 .021255494 .18399048-.0107421879 .25299073-.0107421879 .42099-.0107421879 .48098756 .30534364 .48098756 .3693695Z"/>
<path id="font_7_4" d="M.40899659 .6689453C.38198854 .64193728 .35899354 .62294009 .32798768 .62294009 .30599977 .62294009 .2869873 .63194277 .2559967 .64894106 .24299622 .6559448 .21998596 .6689453 .19599915 .6689453 .15899658 .6689453 .13999939 .64894106 .085998538 .58973696L.10398865 .57273867C.1309967 .5997925 .1539917 .61894229 .18499756 .61894229 .20698548 .61894229 .22599793 .6098633 .25698854 .5927429 .269989 .58573916 .29299928 .57273867 .31698609 .57273867 .35398866 .57273867 .37298585 .5927429 .4269867 .65193179L.40899659 .6689453Z"/>
</defs>
<path transform="matrix(1.00002,0,0,-1.00003,206.41976,211.21186)" stroke-width="1.39478" stroke-linecap="round" stroke-linejoin="round" fill="none" stroke="#000000" d="M-163.27634 0H149.60608"/>
<path transform="matrix(1.00002,0,0,-1.00003,356.0288,211.21186)" d="M5.69255 0C4.9935 .17612 1.92058 1.17418 0 2.2603V-2.2603C1.92058-1.17418 4.9935-.17612 5.69255 0Z"/>
<path transform="matrix(1.00002,0,0,-1.00003,356.0288,211.21186)" stroke-width="1.39478" stroke-linecap="round" stroke-miterlimit="10" stroke-linejoin="miter" fill="none" stroke="#000000" d="M5.69255 0C4.9935 .17612 1.92058 1.17418 0 2.2603V-2.2603C1.92058-1.17418 4.9935-.17612 5.69255 0Z"/>
<path transform="matrix(1.00002,0,0,-1.00003,206.41976,211.21186)" stroke-width="1.39478" stroke-linecap="round" stroke-linejoin="round" fill="none" stroke="#000000" d="M0-10.2046V101.13351"/>
<path transform="matrix(0,-1.00003,-1.00002,-0,206.41976,110.07531)" d="M5.69255 0C4.9935 .17612 1.92058 1.17418 0 2.2603V-2.2603C1.92058-1.17418 4.9935-.17612 5.69255 0Z"/>
<path transform="matrix(0,-1.00003,-1.00002,-0,206.41976,110.07531)" stroke-width="1.39478" stroke-linecap="round" stroke-miterlimit="10" stroke-linejoin="miter" fill="none" stroke="#000000" d="M5.69255 0C4.9935 .17612 1.92058 1.17418 0 2.2603V-2.2603C1.92058-1.17418 4.9935-.17612 5.69255 0Z"/>
<use data-text="y" xlink:href="#font_1_5" transform="matrix(9.962799,0,0,-9.962899,197.65758,97.32543)"/>
<use data-text="x" xlink:href="#font_1_4" transform="matrix(9.962799,0,0,-9.962899,366.84098,219.02109)"/>
<use data-text="1" xlink:href="#font_2_1" transform="matrix(11.95544,0,0,-11.95556,238.00339,111.91387)" fill="#0000bf"/>
<use data-text="R" xlink:href="#font_3_95" transform="matrix(11.95544,0,0,-11.95556,255.81177,111.91387)" fill="#0000bf"/>
<use data-text="o" xlink:href="#font_3_81" transform="matrix(11.95544,0,0,-11.95556,265.8424,111.91387)" fill="#0000bf"/>
<use data-text="t" xlink:href="#font_3_105" transform="matrix(11.95544,0,0,-11.95556,272.5733,111.91387)" fill="#0000bf"/>
<use data-text="a" xlink:href="#font_3_28" transform="matrix(11.95544,0,0,-11.95556,277.80979,111.91387)" fill="#0000bf"/>
<use data-text="t" xlink:href="#font_3_105" transform="matrix(11.95544,0,0,-11.95556,284.34944,111.91387)" fill="#0000bf"/>
<use data-text="i" xlink:href="#font_3_66" transform="matrix(11.95544,0,0,-11.95556,289.5859,111.91387)" fill="#0000bf"/>
<use data-text="o" xlink:href="#font_3_81" transform="matrix(11.95544,0,0,-11.95556,293.32798,111.91387)" fill="#0000bf"/>
<use data-text="n" xlink:href="#font_3_77" transform="matrix(11.95544,0,0,-11.95556,300.05888,111.91387)" fill="#0000bf"/>
<use data-text="s" xlink:href="#font_3_98" transform="matrix(11.95544,0,0,-11.95556,307.531,111.91387)" fill="#0000bf"/>
<path transform="matrix(1.00002,0,0,-1.00003,206.41976,211.21186)" stroke-width="1.19553" stroke-linecap="round" stroke-linejoin="round" fill="none" stroke="#0000bf" d="M57.40187 98.9865H154.34738"/>
<path transform="matrix(1.00002,0,0,-1.00003,206.41976,211.21186)" stroke-width="2.1918" stroke-linecap="round" stroke-linejoin="round" fill="none" stroke="#0000bf" d="M0 0H95.39365"/>
<path transform="matrix(1.00002,0,0,-1.00003,301.8153,211.21186)" d="M7.23756 0C6.34877 .22687 2.44183 1.51244 0 2.91142V-2.91142C2.44183-1.51244 6.34877-.22687 7.23756 0Z" fill="#0000bf"/>
<path transform="matrix(1.00002,0,0,-1.00003,301.8153,211.21186)" stroke-width="2.1918" stroke-linecap="round" stroke-miterlimit="10" stroke-linejoin="miter" fill="none" stroke="#0000bf" d="M7.23756 0C6.34877 .22687 2.44183 1.51244 0 2.91142V-2.91142C2.44183-1.51244 6.34877-.22687 7.23756 0Z"/>
<use data-text="&#x02dc;" xlink:href="#font_4_4" transform="matrix(9.962799,0,0,-9.962899,311.3569,222.28218)" fill="#0000bf"/>
<use data-text="u" xlink:href="#font_1_2" transform="matrix(9.962799,0,0,-9.962899,310.71989,222.28218)" fill="#0000bf"/>
<path transform="matrix(1.00002,0,0,-1.00003,206.41976,211.21186)" stroke-width="1.59404" stroke-linecap="round" stroke-linejoin="round" fill="none" stroke="#0000bf" d="M0 0 63.55594 40.85748"/>
<path transform="matrix(.84115687,-.5407463,-.54074087,-.84116527,269.97697,170.35315)" d="M6.07884 0C5.33234 .18881 2.0509 1.25874 0 2.4231V-2.4231C2.0509-1.25874 5.33234-.18881 6.07884 0Z" fill="#0000bf"/>
<path transform="matrix(.84115687,-.5407463,-.54074087,-.84116527,269.97697,170.35315)" stroke-width="1.59404" stroke-linecap="round" stroke-miterlimit="10" stroke-linejoin="miter" fill="none" stroke="#0000bf" d="M6.07884 0C5.33234 .18881 2.0509 1.25874 0 2.4231V-2.4231C2.0509-1.25874 5.33234-.18881 6.07884 0Z"/>
<use data-text="&#x02dc;" xlink:href="#font_4_4" transform="matrix(9.962799,0,0,-9.962899,275.6402,161.17136)" fill="#0000bf"/>
<use data-text="v" xlink:href="#font_1_3" transform="matrix(9.962799,0,0,-9.962899,275.26118,161.17136)" fill="#0000bf"/>
<path transform="matrix(1.00002,0,0,-1.00003,206.41976,211.21186)" stroke-width="2.1918" stroke-linecap="round" stroke-linejoin="round" fill="none" stroke="#0000bf" d="M0 0 167.19722 42.99385"/>
<path transform="matrix(.96845939,-.24901748,-.24901499,-.9684691,373.6203,168.2167)" d="M7.23756 0C6.34877 .22687 2.44183 1.51244 0 2.91142V-2.91142C2.44183-1.51244 6.34877-.22687 7.23756 0Z" fill="#0000bf"/>
<path transform="matrix(.96845939,-.24901748,-.24901499,-.9684691,373.6203,168.2167)" stroke-width="2.1918" stroke-linecap="round" stroke-miterlimit="10" stroke-linejoin="miter" fill="none" stroke="#0000bf" d="M7.23756 0C6.34877 .22687 2.44183 1.51244 0 2.91142V-2.91142C2.44183-1.51244 6.34877-.22687 7.23756 0Z"/>
<use data-text="&#x02dc;" xlink:href="#font_4_4" transform="matrix(9.962799,0,0,-9.962899,390.05946,160.04232)" fill="#0000bf"/>
<use data-text="u" xlink:href="#font_1_2" transform="matrix(9.962799,0,0,-9.962899,389.42243,160.04232)" fill="#0000bf"/>
<use data-text="+" xlink:href="#font_4_3" transform="matrix(9.962799,0,0,-9.962899,397.3396,160.04232)" fill="#0000bf"/>
<use data-text="&#x02dc;" xlink:href="#font_4_4" transform="matrix(9.962799,0,0,-9.962899,407.67103,160.04232)" fill="#0000bf"/>
<use data-text="v" xlink:href="#font_1_3" transform="matrix(9.962799,0,0,-9.962899,407.30183,160.04232)" fill="#0000bf"/>
<path transform="matrix(1.00002,0,0,-1.00003,206.41976,211.21186)" stroke-width="1.29515" stroke-linecap="round" stroke-dasharray="2.98883,2.98883" stroke-linejoin="round" fill="none" stroke="#a6a6e9" d="M107.1497 0 178.5823 45.9212"/>
<path transform="matrix(1.00002,0,0,-1.00003,206.41976,211.21186)" stroke-width="1.29515" stroke-linecap="round" stroke-dasharray="2.98883,2.98883" stroke-linejoin="round" fill="none" stroke="#a6a6e9" d="M71.43324 45.92139 178.5823 45.9212"/>
<path transform="matrix(1.00002,0,0,-1.00003,206.41976,211.21186)" stroke-width="1.59404" stroke-linecap="round" stroke-linejoin="round" fill="none" stroke="#0000bf" d="M29.33858 0C29.33858 16.20345 16.20345 29.33858 0 29.33858-5.14867 29.33858-10.21048 27.98212-14.66928 25.40802"/>
<use data-text="R" xlink:href="#font_5_1" transform="matrix(8.966579,0,0,-8.966669,222.86008,181.56296)" fill="#cc0000"/>
<use data-text="1" xlink:href="#font_6_2" transform="matrix(5.97772,0,0,-5.97778,229.83225,182.55899)" fill="#cc0000"/>
<use data-text="2" xlink:href="#font_6_3" transform="matrix(5.97772,0,0,-5.97778,233.48462,182.55899)" fill="#cc0000"/>
<use data-text="0" xlink:href="#font_6_1" transform="matrix(5.97772,0,0,-5.97778,237.13703,182.55899)" fill="#cc0000"/>
<use data-text="(" xlink:href="#font_7_1" transform="matrix(8.966579,0,0,-8.966669,241.28946,181.56296)" fill="#cc0000"/>
<use data-text="u" xlink:href="#font_5_2" transform="matrix(8.966579,0,0,-8.966669,244.87357,181.56296)" fill="#cc0000"/>
<use data-text=")" xlink:href="#font_7_2" transform="matrix(8.966579,0,0,-8.966669,250.17667,181.56296)" fill="#cc0000"/>
<path transform="matrix(1.00002,0,0,-1.00003,206.41976,211.21186)" stroke-width="2.1918" stroke-linecap="round" stroke-linejoin="round" fill="none" stroke="#cc0000" d="M0 0-47.6968 82.61337"/>
<path transform="matrix(-.49999003,-.866036,-.86602738,.49999503,158.722,128.59601)" d="M7.23756 0C6.34877 .22687 2.44183 1.51244 0 2.91142V-2.91142C2.44183-1.51244 6.34877-.22687 7.23756 0Z" fill="#cc0000"/>
<path transform="matrix(-.49999003,-.866036,-.86602738,.49999503,158.722,128.59601)" stroke-width="2.1918" stroke-linecap="round" stroke-miterlimit="10" stroke-linejoin="miter" fill="none" stroke="#cc0000" d="M7.23756 0C6.34877 .22687 2.44183 1.51244 0 2.91142V-2.91142C2.44183-1.51244 6.34877-.22687 7.23756 0Z"/>
<use data-text="R" xlink:href="#font_1_1" transform="matrix(9.962799,0,0,-9.962899,139.1074,162.6644)" fill="#cc0000"/>
<use data-text="1" xlink:href="#font_8_2" transform="matrix(6.97394,0,0,-6.9740097,146.67156,164.15845)" fill="#cc0000"/>
<use data-text="2" xlink:href="#font_8_3" transform="matrix(6.97394,0,0,-6.9740097,150.63973,164.15845)" fill="#cc0000"/>
<use data-text="0" xlink:href="#font_8_1" transform="matrix(6.97394,0,0,-6.9740097,154.60787,164.15845)" fill="#cc0000"/>
<use data-text="(" xlink:href="#font_4_1" transform="matrix(9.962799,0,0,-9.962899,159.08379,162.6644)" fill="#cc0000"/>
<use data-text="u" xlink:href="#font_1_2" transform="matrix(9.962799,0,0,-9.962899,162.95787,162.6644)" fill="#cc0000"/>
<use data-text=")" xlink:href="#font_4_2" transform="matrix(9.962799,0,0,-9.962899,168.662,162.6644)" fill="#cc0000"/>
<path transform="matrix(1.00002,0,0,-1.00003,206.41976,211.21186)" stroke-width="2.1918" stroke-linecap="round" stroke-linejoin="round" fill="none" stroke="#cc0000" d="M0 0-65.03609 33.51706"/>
<path transform="matrix(-.8888678,-.45809377,-.45808918,.8888767,141.38239,177.6938)" d="M7.23756 0C6.34877 .22687 2.44183 1.51244 0 2.91142V-2.91142C2.44183-1.51244 6.34877-.22687 7.23756 0Z" fill="#cc0000"/>
<path transform="matrix(-.8888678,-.45809377,-.45808918,.8888767,141.38239,177.6938)" stroke-width="2.1918" stroke-linecap="round" stroke-miterlimit="10" stroke-linejoin="miter" fill="none" stroke="#cc0000" d="M7.23756 0C6.34877 .22687 2.44183 1.51244 0 2.91142V-2.91142C2.44183-1.51244 6.34877-.22687 7.23756 0Z"/>
<use data-text="R" xlink:href="#font_1_1" transform="matrix(9.962799,0,0,-9.962899,127.572177,201.70357)" fill="#cc0000"/>
<use data-text="1" xlink:href="#font_8_2" transform="matrix(6.97394,0,0,-6.9740097,135.13632,203.19762)" fill="#cc0000"/>
<use data-text="2" xlink:href="#font_8_3" transform="matrix(6.97394,0,0,-6.9740097,139.10449,203.19762)" fill="#cc0000"/>
<use data-text="0" xlink:href="#font_8_1" transform="matrix(6.97394,0,0,-6.9740097,143.07263,203.19762)" fill="#cc0000"/>
<use data-text="(" xlink:href="#font_4_1" transform="matrix(9.962799,0,0,-9.962899,147.54856,201.70357)" fill="#cc0000"/>
<use data-text="v" xlink:href="#font_1_3" transform="matrix(9.962799,0,0,-9.962899,151.42264,201.70357)" fill="#cc0000"/>
<use data-text=")" xlink:href="#font_4_2" transform="matrix(9.962799,0,0,-9.962899,156.60974,201.70357)" fill="#cc0000"/>
<path transform="matrix(1.00002,0,0,-1.00003,206.41976,211.21186)" stroke-width="10.95905" stroke-linecap="round" stroke-linejoin="round" fill="none" stroke="#dbb8db" d="M0 0-200.04216 204.1286"/>
<path transform="matrix(1.00002,0,0,-1.00003,206.41976,211.21186)" stroke-width="1.29515" stroke-linecap="round" stroke-dasharray="2.98883,2.98883" stroke-linejoin="round" fill="none" stroke="#e37373" d="M0 0-200.04216 204.1286"/>
<path transform="matrix(1.00002,0,0,-1.00003,206.41976,211.21186)" stroke-width="2.1918" stroke-linecap="round" stroke-linejoin="round" fill="none" stroke="#cc0000" d="M0 0-191.81423 195.73258"/>
<path transform="matrix(-.699904,-.71421149,-.7142043,.69991108,14.6017,15.473404)" d="M7.23756 0C6.34877 .22687 2.44183 1.51244 0 2.91142V-2.91142C2.44183-1.51244 6.34877-.22687 7.23756 0Z" fill="#cc0000"/>
<path transform="matrix(-.699904,-.71421149,-.7142043,.69991108,14.6017,15.473404)" stroke-width="2.1918" stroke-linecap="round" stroke-miterlimit="10" stroke-linejoin="miter" fill="none" stroke="#cc0000" d="M7.23756 0C6.34877 .22687 2.44183 1.51244 0 2.91142V-2.91142C2.44183-1.51244 6.34877-.22687 7.23756 0Z"/>
<use data-text="R" xlink:href="#font_5_1" transform="matrix(8.966579,0,0,-8.966669,88.49939,185.38907)" fill="#cc0000"/>
<use data-text="1" xlink:href="#font_6_2" transform="matrix(5.97772,0,0,-5.97778,95.47156,186.3851)" fill="#cc0000"/>
<use data-text="2" xlink:href="#font_6_3" transform="matrix(5.97772,0,0,-5.97778,99.12393,186.3851)" fill="#cc0000"/>
<use data-text="0" xlink:href="#font_6_1" transform="matrix(5.97772,0,0,-5.97778,102.77634,186.3851)" fill="#cc0000"/>
<use data-text="(" xlink:href="#font_7_1" transform="matrix(8.966579,0,0,-8.966669,106.92877,185.38907)" fill="#cc0000"/>
<use data-text="u" xlink:href="#font_5_2" transform="matrix(8.966579,0,0,-8.966669,110.51288,185.38907)" fill="#cc0000"/>
<use data-text=")" xlink:href="#font_7_2" transform="matrix(8.966579,0,0,-8.966669,115.81598,185.38907)" fill="#cc0000"/>
<use data-text="+" xlink:href="#font_7_3" transform="matrix(8.966579,0,0,-8.966669,121.43805,185.38907)" fill="#cc0000"/>
<use data-text="R" xlink:href="#font_5_1" transform="matrix(8.966579,0,0,-8.966669,130.6633,185.38907)" fill="#cc0000"/>
<use data-text="1" xlink:href="#font_6_2" transform="matrix(5.97772,0,0,-5.97778,137.63544,186.3851)" fill="#cc0000"/>
<use data-text="2" xlink:href="#font_6_3" transform="matrix(5.97772,0,0,-5.97778,141.28781,186.3851)" fill="#cc0000"/>
<use data-text="0" xlink:href="#font_6_1" transform="matrix(5.97772,0,0,-5.97778,144.94019,186.3851)" fill="#cc0000"/>
<use data-text="(" xlink:href="#font_7_1" transform="matrix(8.966579,0,0,-8.966669,149.09265,185.38907)" fill="#cc0000"/>
<use data-text="v" xlink:href="#font_5_3" transform="matrix(8.966579,0,0,-8.966669,152.67673,185.38907)" fill="#cc0000"/>
<use data-text=")" xlink:href="#font_7_2" transform="matrix(8.966579,0,0,-8.966669,157.47486,185.38907)" fill="#cc0000"/>
<path transform="matrix(1.00002,0,0,-1.00003,206.41976,211.21186)" stroke-width="10.95905" stroke-linecap="round" stroke-linejoin="round" fill="none" stroke="#dbb8db" d="M0 0-129.05968 131.69612"/>
<path transform="matrix(1.00002,0,0,-1.00003,206.41976,211.21186)" stroke-width="1.39478" stroke-linecap="round" stroke-dasharray="2.98883,2.98883" stroke-linejoin="round" fill="none" stroke="#6666d9" d="M0 0-129.05968 131.69612"/>
<path transform="matrix(1.00002,0,0,-1.00003,206.41976,211.21186)" stroke-width="2.1918" stroke-linecap="round" stroke-linejoin="round" fill="none" stroke="#0000bf" d="M0 0-120.83174 123.3001"/>
<path transform="matrix(-.699904,-.71421149,-.7142043,.69991108,85.5856,87.90805)" d="M7.23756 0C6.34877 .22687 2.44183 1.51244 0 2.91142V-2.91142C2.44183-1.51244 6.34877-.22687 7.23756 0Z" fill="#0000bf"/>
<path transform="matrix(-.699904,-.71421149,-.7142043,.69991108,85.5856,87.90805)" stroke-width="2.1918" stroke-linecap="round" stroke-miterlimit="10" stroke-linejoin="miter" fill="none" stroke="#0000bf" d="M7.23756 0C6.34877 .22687 2.44183 1.51244 0 2.91142V-2.91142C2.44183-1.51244 6.34877-.22687 7.23756 0Z"/>
<use data-text="R" xlink:href="#font_5_1" transform="matrix(8.966579,0,0,-8.966669,172.73407,230.0364)" fill="#0000bf"/>
<use data-text="1" xlink:href="#font_6_2" transform="matrix(5.97772,0,0,-5.97778,179.70624,231.03244)" fill="#0000bf"/>
<use data-text="2" xlink:href="#font_6_3" transform="matrix(5.97772,0,0,-5.97778,183.35861,231.03244)" fill="#0000bf"/>
<use data-text="0" xlink:href="#font_6_1" transform="matrix(5.97772,0,0,-5.97778,187.01102,231.03244)" fill="#0000bf"/>
<use data-text="(" xlink:href="#font_7_1" transform="matrix(8.966579,0,0,-8.966669,191.16345,230.0364)" fill="#0000bf"/>
<use data-text="&#x02dc;" xlink:href="#font_7_4" transform="matrix(8.966579,0,0,-8.966669,195.34189,230.0364)" fill="#0000bf"/>
<use data-text="u" xlink:href="#font_5_2" transform="matrix(8.966579,0,0,-8.966669,194.74756,230.0364)" fill="#0000bf"/>
<use data-text="+" xlink:href="#font_7_3" transform="matrix(8.966579,0,0,-8.966669,202.09873,230.0364)" fill="#0000bf"/>
<use data-text="&#x02dc;" xlink:href="#font_7_4" transform="matrix(8.966579,0,0,-8.966669,211.6571,230.0364)" fill="#0000bf"/>
<use data-text="v" xlink:href="#font_5_3" transform="matrix(8.966579,0,0,-8.966669,211.3139,230.0364)" fill="#0000bf"/>
<use data-text=")" xlink:href="#font_7_2" transform="matrix(8.966579,0,0,-8.966669,216.112,230.0364)" fill="#0000bf"/>
</svg>
