<svg xmlns="http://www.w3.org/2000/svg" xmlns:xlink="http://www.w3.org/1999/xlink" xmlns:inkscape="http://www.inkscape.org/namespaces/inkscape" version="1.1" width="177" height="90" viewBox="0 0 177 90">
<defs>
<path id="font_1_2" d="M.43798829 .072143558V-.005859375L.61499026 .0001373291V.0471344C.5529938 .0471344 .54599 .0471344 .54599 .086135867V.4501953L.36299134 .44218446V.39518739C.4249878 .39518739 .43199159 .39518739 .43199159 .3561859V.16514588C.43199159 .08314514 .3809967 .030136109 .30799867 .030136109 .23098755 .030136109 .22799683 .055130006 .22799683 .10914612V.4501953L.04499817 .44218446V.39518739C.10699463 .39518739 .11399841 .39518739 .11399841 .3561859V.12315369C.11399841 .01612854 .19499207-.005859375 .2939911-.005859375 .31999208-.005859375 .3919983-.005859375 .43798829 .072143558Z"/>
<path id="font_1_3" d="M.5059967 .37631227C.5119934 .39031983 .5159912 .3973236 .5799866 .3973236V.44433595C.5549927 .44232179 .526001 .44132997 .5009918 .44132997 .47599793 .44132997 .43099977 .44332887 .4099884 .44433595V.3973236C.42900086 .3973236 .45799256 .3943329 .45799256 .38632203 .45799256 .3853302 .45700074 .38331605 .45298768 .37431336L.33699037 .12416077 .20999146 .3973236H.2639923V.44433595C.23098755 .44232179 .14099121 .44132997 .13999939 .44132997 .11199951 .44132997 .066986087 .44332887 .025985718 .44433595V.3973236H.08999634L.2649994 .021087647C.2769928-.00390625 .2899933-.00390625 .30299378-.00390625 .31999208-.00390625 .32998658-.00091552737 .33999635 .020080567L.5059967 .37631227Z"/>
<path id="font_1_1" d="M.5289917 .31925965C.5289917 .41625978 .5279999 .65527346 .2869873 .65527346 .04598999 .65527346 .04499817 .41726686 .04499817 .31925965 .04499817 .22026062 .04598999-.0107421879 .2869873-.0107421879 .5269928-.0107421879 .5289917 .21925354 .5289917 .31925965M.2869873 .025253296C.25099183 .025253296 .19499207 .04725647 .18199158 .12025452 .17298889 .17225647 .17298889 .27626039 .17298889 .33125306 .17298889 .40325929 .17298889 .46826173 .18099976 .5202637 .19299317 .6092682 .2630005 .6192627 .2869873 .6192627 .32398988 .6192627 .36499024 .6002655 .38398744 .5562744 .40098573 .51927188 .40098573 .41326905 .40098573 .33125306 .40098573 .2752533 .40098573 .18424988 .3939972 .13224793 .37998963 .039245607 .31698609 .025253296 .2869873 .025253296Z"/>
</defs>
<g>
<path transform="matrix(1.00006,0,0,-1.00008,88.17881,45.36435)" d="M23.34538-43.5628 87.12566 11.6727-23.34538 43.5628-87.12566-11.6727Z" fill="#ccccff" fill-opacity=".5"/>
<path transform="matrix(1.00006,0,0,-1.00008,88.17881,45.36435)" stroke-width=".3985" stroke-linecap="butt" stroke-miterlimit="10" stroke-linejoin="miter" fill="none" stroke="#000000" stroke-opacity=".5" d="M23.34538-43.5628 87.12566 11.6727-23.34538 43.5628-87.12566-11.6727Z"/>
</g>
<path transform="matrix(1.00006,0,0,-1.00008,88.17881,45.36435)" stroke-width="1.19553" stroke-linecap="butt" stroke-miterlimit="10" stroke-linejoin="miter" fill="none" stroke="#000000" d="M0 0-20.3564-17.62923"/>
<path transform="matrix(-.7559453,.6546824,.6546693,.75596049,67.36933,63.38631)" stroke-width="1.19553" stroke-linecap="round" stroke-linejoin="round" fill="none" stroke="#000000" d="M-3.02867 3.83081C-2.47534 1.53229-1.24231 .44691 0 0-1.24231-.44691-2.47534-1.53229-3.02867-3.83081"/>
<use data-text="u" xlink:href="#font_1_2" transform="matrix(9.963197,0,0,-9.963397,60.333147,69.39327)"/>
<path transform="matrix(1.00006,0,0,-1.00008,88.17881,45.36435)" stroke-width="1.19553" stroke-linecap="butt" stroke-miterlimit="10" stroke-linejoin="miter" fill="none" stroke="#000000" d="M0 0 35.67513-10.29846"/>
<path transform="matrix(.9607776,.27736218,.27735663,-.96079686,124.43039,55.829439)" stroke-width="1.19553" stroke-linecap="round" stroke-linejoin="round" fill="none" stroke="#000000" d="M-3.02867 3.83081C-2.47534 1.53229-1.24231 .44691 0 0-1.24231-.44691-2.47534-1.53229-3.02867-3.83081"/>
<use data-text="v" xlink:href="#font_1_3" transform="matrix(9.963197,0,0,-9.963397,125.30304,61.61165)"/>
<path transform="matrix(1.00006,0,0,-1.00008,88.17881,45.36435)" d="M2.98883 0C2.98883 1.6507 1.6507 2.98883 0 2.98883-1.6507 2.98883-2.98883 1.6507-2.98883 0-2.98883-1.6507-1.6507-2.98883 0-2.98883 1.6507-2.98883 2.98883-1.6507 2.98883 0ZM0 0"/>
<use data-text="0" xlink:href="#font_1_1" transform="matrix(9.963197,0,0,-9.963397,85.31464,41.844068)"/>
</svg>
