<svg xmlns="http://www.w3.org/2000/svg" xmlns:xlink="http://www.w3.org/1999/xlink" xmlns:inkscape="http://www.inkscape.org/namespaces/inkscape" version="1.1" width="225" height="40" viewBox="0 0 225 40">
<defs>
<path id="font_1_1" d="M.34999085 .056259157C.36099244 .015258789 .3959961-.0107421879 .43899537-.0107421879 .47399903-.0107421879 .49699403 .012252808 .5130005 .044265748 .5299988 .08027649 .54299929 .14129639 .54299929 .14329529 .54299929 .1532898 .5339966 .1532898 .5309906 .1532898 .5209961 .1532898 .519989 .14929199 .5169983 .13528443 .5029907 .07926941 .48399354 .011245728 .44198609 .011245728 .42099 .011245728 .41099549 .024261475 .41099549 .057266237 .41099549 .07926941 .4229889 .12628174 .43099977 .16130066L.45899964 .2693329C.46199037 .28433229 .47200013 .32234193 .47599793 .3373413 .48098756 .36035157 .4909973 .3983612 .4909973 .40437318 .4909973 .42237855 .47698976 .43138124 .46199037 .43138124 .45700074 .43138124 .43099977 .43037416 .4229889 .3963623 .4039917 .323349 .3600006 .14828491 .34799195 .09527588 .34700013 .091278079 .30699159 .011245728 .23399353 .011245728 .18199158 .011245728 .17199707 .056259157 .17199707 .09327698 .17199707 .14929199 .19999695 .22831726 .22599793 .29733277 .23799134 .3273468 .24299622 .34135438 .24299622 .36035157 .24299622 .405365 .21099854 .4423828 .16099549 .4423828 .06599426 .4423828 .0289917 .29733277 .0289917 .28833009 .0289917 .27833558 .038986207 .27833558 .040985109 .27833558 .050994874 .27833558 .051986696 .28033448 .056991579 .29634095 .08198547 .38336183 .11999512 .42037965 .1579895 .42037965 .16699219 .42037965 .18299866 .41937257 .18299866 .38735963 .18299866 .36335755 .17199707 .3343506 .1659851 .31933595 .1289978 .2203064 .10798645 .15829468 .10798645 .10928345 .10798645 .014251709 .1769867-.0107421879 .23098755-.0107421879 .29699708-.0107421879 .33299256 .03425598 .34999085 .056259157Z"/>
<path id="font_2_1" d="M.33499146 .63612368C.33499146 .6630554 .33299256 .6640625 .30499269 .6640625 .24099732 .6014404 .1499939 .6004486 .10899353 .6004486V.5644531C.1329956 .5644531 .19898987 .5644531 .2539978 .592453V.08203125C.2539978 .04899597 .2539978 .035995485 .1539917 .035995485H.115997318V0C.13398743 .0009918213 .25698854 .0039978029 .2939911 .0039978029 .32499696 .0039978029 .45098878 .0009918213 .47299195 0V.035995485H.43499757C.33499146 .035995485 .33499146 .04899597 .33499146 .08203125V.63612368Z"/>
<path id="font_2_2" d="M.5049896 .18203736H.47099305C.46798707 .16001892 .45799256 .100997928 .44499208 .09098816 .43699647 .084991458 .3600006 .084991458 .34599305 .084991458H.1619873C.2669983 .17803955 .3019867 .20603943 .3619995 .25306703 .43598939 .312088 .5049896 .374115 .5049896 .46914674 .5049896 .5900879 .39898683 .6640625 .2709961 .6640625 .14698792 .6640625 .06298828 .57710269 .06298828 .4851532 .06298828 .43414308 .10598755 .42915345 .115997318 .42915345 .13999939 .42915345 .16899109 .44615174 .16899109 .48214723 .16899109 .5001526 .1619873 .53515627 .10998535 .53515627 .14099121 .6060791 .20899964 .62805178 .2559967 .62805178 .35598756 .62805178 .4079895 .5501404 .4079895 .46914674 .4079895 .38212586 .34599305 .3130951 .31399537 .27708436L.07299805 .038986207C.06298828 .02999878 .06298828 .027999878 .06298828 0H.47499085L.5049896 .18203736Z"/>
<path id="font_2_3" d="M.272995 .33428956C.35099793 .33428956 .40699769 .2803192 .40699769 .1733551 .40699769 .04940796 .33499146 .012466431 .2769928 .012466431 .23699951 .012466431 .14898682 .0234375 .10699463 .082351688 .1539917 .084350589 .16499329 .11735535 .16499329 .13835144 .16499329 .17034912 .14099121 .19335938 .10998535 .19335938 .08198547 .19335938 .053985597 .17634583 .053985597 .13534546 .053985597 .041412355 .1579895-.01953125 .2789917-.01953125 .41799928-.01953125 .5139923 .07336426 .5139923 .1733551 .5139923 .2513275 .44999696 .32929994 .33999635 .35229493 .44499208 .39024354 .48298646 .4650879 .48298646 .5260773 .48298646 .60505679 .3919983 .6640625 .2809906 .6640625 .16999817 .6640625 .084991458 .61006167 .084991458 .5300751 .084991458 .49606324 .10699463 .47706605 .13699341 .47706605 .16799927 .47706605 .18798828 .5000763 .18798828 .5280762 .18798828 .5570679 .16799927 .57806399 .13699341 .5800781 .17199707 .62405398 .24099732 .63505557 .27799989 .63505557 .32299806 .63505557 .38598634 .6130676 .38598634 .5260773 .38598634 .48406983 .37199403 .43814088 .34599305 .4072113 .31298829 .36927796 .2849884 .3672943 .23498535 .36428834 .20999146 .3623047 .20799256 .3623047 .20298767 .3612976 .20098877 .3612976 .19299317 .3592987 .19299317 .34829713 .19299317 .33428956 .20199585 .33428956 .21899414 .33428956H.272995Z"/>
<path id="font_1_2" d="M.46798707 .37236024C.46798707 .42637635 .44198609 .4423828 .42399598 .4423828 .39898683 .4423828 .375 .41636659 .375 .3943634 .375 .38136292 .37998963 .3753662 .3909912 .36434938 .4119873 .3443451 .4249878 .31834413 .4249878 .28233338 .4249878 .24032593 .3639984 .011245728 .24699402 .011245728 .19599915 .011245728 .17298889 .04626465 .17298889 .09828186 .17298889 .15429688 .19999695 .22731018 .23098755 .31033326 .23799134 .3273468 .24299622 .34135438 .24299622 .36035157 .24299622 .405365 .21099854 .4423828 .16099549 .4423828 .066986087 .4423828 .0289917 .29733277 .0289917 .28833009 .0289917 .27833558 .038986207 .27833558 .040985109 .27833558 .050994874 .27833558 .051986696 .28033448 .056991579 .29634095 .085998538 .39736939 .1289978 .42037965 .1579895 .42037965 .1659851 .42037965 .18299866 .42037965 .18299866 .3883667 .18299866 .36335755 .17298889 .3363495 .1659851 .31834413 .12199402 .20230103 .10899353 .15629578 .10899353 .11328125 .10899353 .0052490236 .19699097-.0107421879 .24299622-.0107421879 .41099549-.0107421879 .46798707 .32034303 .46798707 .37236024Z"/>
</defs>
<use data-text="u" xlink:href="#font_1_1" transform="matrix(9.963496,0,0,-9.963397,1.1908417,5.539482)"/>
<use data-text="1" xlink:href="#font_2_1" transform="matrix(6.9744279,0,0,-6.974358,6.894348,7.034603)"/>
<use data-text="u" xlink:href="#font_1_1" transform="matrix(9.963496,0,0,-9.963397,43.86467,5.539482)"/>
<use data-text="2" xlink:href="#font_2_2" transform="matrix(6.9744279,0,0,-6.974358,49.56819,7.034603)"/>
<use data-text="u" xlink:href="#font_1_1" transform="matrix(9.963496,0,0,-9.963397,86.539539,5.539482)"/>
<use data-text="3" xlink:href="#font_2_3" transform="matrix(6.9744279,0,0,-6.974358,92.24306,7.034603)"/>
<use data-text="u" xlink:href="#font_1_1" transform="matrix(9.963496,0,0,-9.963397,129.21337,5.539482)"/>
<use data-text="1" xlink:href="#font_2_1" transform="matrix(6.9744279,0,0,-6.974358,134.9179,7.034603)"/>
<use data-text="u" xlink:href="#font_1_1" transform="matrix(9.963496,0,0,-9.963397,171.88823,5.539482)"/>
<use data-text="2" xlink:href="#font_2_2" transform="matrix(6.9744279,0,0,-6.974358,177.59175,7.034603)"/>
<use data-text="u" xlink:href="#font_1_1" transform="matrix(9.963496,0,0,-9.963397,214.56307,5.539482)"/>
<use data-text="3" xlink:href="#font_2_3" transform="matrix(6.9744279,0,0,-6.974358,220.26656,7.034603)"/>
<use data-text="v" xlink:href="#font_1_2" transform="matrix(9.963496,0,0,-9.963397,1.6278839,36.558965)"/>
<use data-text="1" xlink:href="#font_2_1" transform="matrix(6.9744279,0,0,-6.974358,6.457306,38.05308)"/>
<use data-text="v" xlink:href="#font_1_2" transform="matrix(9.963496,0,0,-9.963397,44.301713,36.558965)"/>
<use data-text="2" xlink:href="#font_2_2" transform="matrix(6.9744279,0,0,-6.974358,49.13115,38.05308)"/>
<use data-text="v" xlink:href="#font_1_2" transform="matrix(9.963496,0,0,-9.963397,86.97658,36.558965)"/>
<use data-text="3" xlink:href="#font_2_3" transform="matrix(6.9744279,0,0,-6.974358,91.806018,38.05308)"/>
<use data-text="v" xlink:href="#font_1_2" transform="matrix(9.963496,0,0,-9.963397,129.6504,36.558965)"/>
<use data-text="1" xlink:href="#font_2_1" transform="matrix(6.9744279,0,0,-6.974358,134.48082,38.05308)"/>
<use data-text="v" xlink:href="#font_1_2" transform="matrix(9.963496,0,0,-9.963397,172.32527,36.558965)"/>
<use data-text="2" xlink:href="#font_2_2" transform="matrix(6.9744279,0,0,-6.974358,177.15471,38.05308)"/>
<use data-text="v" xlink:href="#font_1_2" transform="matrix(9.963496,0,0,-9.963397,215.0001,36.558965)"/>
<use data-text="3" xlink:href="#font_2_3" transform="matrix(6.9744279,0,0,-6.974358,219.82955,38.05308)"/>
<path transform="matrix(1.00009,0,0,-1.00008,129.21436,19.651612)" stroke-width=".39848" stroke-linecap="butt" stroke-miterlimit="10" stroke-linejoin="miter" fill="none" stroke="#000000" d="M-70.67644 9.64131-45.3547-8.76724"/>
<path transform="matrix(1.00009,0,0,-1.00008,129.21436,19.651612)" stroke-width=".39848" stroke-linecap="butt" stroke-miterlimit="10" stroke-linejoin="miter" fill="none" stroke="#000000" d="M-28.00528 9.64131-2.68353-8.76724"/>
<path transform="matrix(1.00009,0,0,-1.00008,129.21436,19.651612)" stroke-width=".39848" stroke-linecap="butt" stroke-miterlimit="10" stroke-linejoin="miter" fill="none" stroke="#000000" d="M14.66588 9.64131 39.98761-8.76724"/>
<path transform="matrix(1.00009,0,0,-1.00008,129.21436,19.651612)" stroke-width=".39848" stroke-linecap="butt" stroke-dasharray="2.78941,1.59395" stroke-miterlimit="10" stroke-linejoin="miter" fill="none" stroke="#000000" d="M-72.48714-8.76724-47.16435 9.63899"/>
<path transform="matrix(1.00009,0,0,-1.00008,129.21436,19.651612)" stroke-width=".39848" stroke-linecap="butt" stroke-dasharray="2.78941,1.59395" stroke-miterlimit="10" stroke-linejoin="miter" fill="none" stroke="#000000" d="M-29.81596-8.76724-4.4932 9.63899"/>
<path transform="matrix(1.00009,0,0,-1.00008,129.21436,19.651612)" stroke-width=".39848" stroke-linecap="butt" stroke-dasharray="2.78941,1.59395" stroke-miterlimit="10" stroke-linejoin="miter" fill="none" stroke="#000000" d="M12.85518-8.76724 38.17795 9.63899"/>
</svg>
