<svg xmlns="http://www.w3.org/2000/svg" xmlns:xlink="http://www.w3.org/1999/xlink" xmlns:inkscape="http://www.inkscape.org/namespaces/inkscape" version="1.1" width="293" height="183" viewBox="0 0 293 183">
<defs>
<path id="font_1_82" d="M.4099884 0V.0289917H.3789978C.29100038 .0289917 .28799439 .041000368 .28799439 .07701111V.6411133C.28799439 .664032 .28799439 .66503909 .2679901 .66503909 .24398804 .63812258 .19400025 .6012573 .09098816 .6012573V.5722656C.11399841 .5722656 .1639862 .5722656 .21899414 .59825137V.07701111C.21899414 .041000368 .21598816 .0289917 .12799073 .0289917H.09700012V0C.12399292 .0019989014 .22099304 .0019989014 .2539978 .0019989014 .2869873 .0019989014 .3829956 .0019989014 .4099884 0Z"/>
<path id="font_1_107" d="M.43998719 .16799927H.41799928C.4149933 .15098572 .40699769 .09599304 .39698792 .07998657 .3899994 .070999149 .33299256 .070999149 .30299378 .070999149H.117996219C.14498902 .09399414 .20599365 .1579895 .23199463 .18199158 .38398744 .3217926 .43998719 .37374879 .43998719 .47270204 .43998719 .5878906 .34899903 .66503909 .23298645 .66503909 .116989139 .66503909 .04899597 .5658264 .04899597 .4797058 .04899597 .42871095 .09298706 .42871095 .09599304 .42871095 .116989139 .42871095 .14299011 .44371034 .14299011 .475708 .14299011 .5037079 .12399292 .5227051 .09599304 .5227051 .08699036 .5227051 .084991458 .5227051 .08198547 .521698 .100997928 .5899048 .15499878 .6360321 .21998596 .6360321 .30499269 .6360321 .35699464 .56481936 .35699464 .47270204 .35699464 .3877411 .30799867 .313797 .25099183 .24984741L.04899597 .023986817V0H.4139862L.43998719 .16799927Z"/>
<path id="font_1_106" d="M.44799806 .17103577C.44799806 .263031 .37399293 .33503724 .27799989 .35203553 .36499024 .37702943 .42099 .45002748 .42099 .5280304 .42099 .60702517 .33898927 .66503909 .24198914 .66503909 .14199829 .66503909 .067993167 .6040344 .067993167 .5310364 .067993167 .49121095 .09899902 .48321534 .11399841 .48321534 .1349945 .48321534 .15899658 .49821473 .15899658 .5282135 .15899658 .5602112 .1349945 .57421877 .11299133 .57421877 .10699463 .57421877 .10499573 .57421877 .101989749 .57321169 .13999939 .641037 .23399353 .641037 .23899842 .641037 .27198792 .641037 .33699037 .6260681 .33699037 .5282135 .33699037 .5092163 .33399964 .453125 .30499269 .41001893 .2749939 .3658905 .24099732 .36288453 .21398926 .36187745L.18399048 .35888673C.16699219 .35787965 .16299439 .35688783 .16299439 .34788514 .16299439 .33789063 .16799927 .33789063 .18598938 .33789063H.23199463C.31698609 .33789063 .35499574 .267807 .35499574 .17172241 .35499574 .04058838 .2869873 .005508423 .23799134 .005508423 .18998719 .005508423 .10798645 .028564454 .07899475 .09472656 .11099243 .08955383 .13999939 .107543949 .13999939 .14355469 .13999939 .17271424 .11898804 .1927185 .09098816 .1927185 .066986087 .1927185 .040985109 .1787262 .040985109 .14071656 .040985109 .051620485 .12998963-.021484375 .24099732-.021484375 .3600006-.021453858 .44799806 .06954956 .44799806 .17054749V.17103577Z"/>
<path id="font_2_82" d="M.43199159 0V.0309906H.3999939C.30699159 .0309906 .3039856 .042999269 .3039856 .08001709V.63912966C.3039856 .6640167 .30299378 .6660156 .27799989 .6660156 .21598816 .60227969 .12399292 .60227969 .09298706 .60227969V.57128909C.11199951 .57128909 .17298889 .57128909 .22698975 .5972748V.08001709C.22698975 .042999269 .22399903 .0309906 .1309967 .0309906H.09899902V0C.1349945 .0029907227 .22399903 .0029907227 .2649994 .0029907227 .30599977 .0029907227 .3959961 .0029907227 .43199159 0Z"/>
<path id="font_2_121" d="M.47299195 .31976319C.47299195 .38682557 .46998597 .47288514 .43499757 .5479431 .3909912 .64201357 .31498719 .6660156 .25698854 .6660156 .19699097 .6660156 .12098694 .64201357 .07699585 .5459442 .04499817 .47688294 .039993287 .39582826 .039993287 .31976319 .039993287 .25471498 .041992189 .15765381 .084991458 .07858276 .13198853-.0064697267 .20999146-.022460938 .2559967-.022460938 .32099916-.022460938 .394989 .0055389406 .43699647 .097595218 .46699525 .1646576 .47299195 .23971558 .47299195 .31976319M.3869934 .33177186C.3869934 .2697296 .3869934 .18566895 .3769989 .12661743 .35598756 .012542725 .28199769 .002532959 .25698854 .002532959 .22698975 .002532959 .15499878 .016540528 .13598633 .12962342 .12599182 .18867493 .12599182 .2747345 .12599182 .33177186 .12599182 .39982606 .12599182 .47888185 .13798523 .53393557 .1579895 .6230011 .22200012 .64100649 .2559967 .64100649 .2939911 .64100649 .35699464 .62098696 .37599183 .5279236 .3869934 .47288514 .3869934 .39482118 .3869934 .33177186Z"/>
</defs>
<use data-text="1" xlink:href="#font_1_82" transform="matrix(14.3462,0,0,-14.3462,143.066,40.422998)" fill="#3b3ef7"/>
<use data-text="2" xlink:href="#font_1_107" transform="matrix(14.3462,0,0,-14.3462,35.914995,120.785999)" fill="#ff333d"/>
<use data-text="3" xlink:href="#font_1_106" transform="matrix(14.3462,0,0,-14.3462,250.21799,120.634998)" fill="#995cd6"/>
<path transform="matrix(1,0,0,-1,146.581,108.362)" stroke-width="1.0959" stroke-linecap="butt" stroke-miterlimit="10" stroke-linejoin="miter" fill="none" stroke="#3b3ef7" d="M-3.01617 81.01466C-11.06798 103.13206 11.06798 103.13206 4.69069 85.61447"/>
<path transform="matrix(-.34207,.93965,.93965,.34207,152.3065,19.904908)" d="M6.35986 0 1.76953 1.73935 3.29916 0 1.76953-1.73935Z" fill="#3b3ef7"/>
<path transform="matrix(-.34207,.93965,.93965,.34207,152.3065,19.904908)" stroke-width="1.0959" stroke-linecap="butt" stroke-miterlimit="10" stroke-linejoin="miter" fill="none" stroke="#3b3ef7" d="M6.35986 0 1.76953 1.73935 3.29916 0 1.76953-1.73935Z"/>
<use data-text="1" xlink:href="#font_2_82" transform="matrix(8.9664,0,0,-8.9664,144.277,6.890999)" fill="#3b3ef7"/>
<path transform="matrix(1,0,0,-1,146.581,108.362)" stroke-width="1.0959" stroke-linecap="butt" stroke-miterlimit="10" stroke-linejoin="miter" fill="none" stroke="#ff333d" d="M-114.1321-15.94647C-138.70763-45.23732-150.13849 7.98389-118.80722-3.42238"/>
<path transform="matrix(.93965,.34209,.34209,-.93965,24.931138,110.74951)" d="M6.35986 0 1.76953 1.73935 3.29916 0 1.76953-1.73935Z" fill="#ff333d"/>
<path transform="matrix(.93965,.34209,.34209,-.93965,24.931138,110.74951)" stroke-width="1.0959" stroke-linecap="butt" stroke-miterlimit="10" stroke-linejoin="miter" fill="none" stroke="#ff333d" d="M6.35986 0 1.76953 1.73935 3.29916 0 1.76953-1.73935Z"/>
<use data-text="0" xlink:href="#font_2_121" transform="matrix(8.9664,0,0,-8.9664,1.243988,127.85)" fill="#ff333d"/>
<path transform="matrix(1,0,0,-1,146.581,108.362)" stroke-width="1.0959" stroke-linecap="butt" stroke-miterlimit="10" stroke-linejoin="miter" fill="none" stroke="#995cd6" d="M114.20743-10.21344C150.31134-23.35672 138.90399 30.1629 117.3535 4.47374"/>
<path transform="matrix(-.64268,.7661,.7661,.64268,265.87876,101.57065)" d="M6.35986 0 1.76953 1.73935 3.29916 0 1.76953-1.73935Z" fill="#995cd6"/>
<path transform="matrix(-.64268,.7661,.7661,.64268,265.87876,101.57065)" stroke-width="1.0959" stroke-linecap="butt" stroke-miterlimit="10" stroke-linejoin="miter" fill="none" stroke="#995cd6" d="M6.35986 0 1.76953 1.73935 3.29916 0 1.76953-1.73935Z"/>
<use data-text="0" xlink:href="#font_2_121" transform="matrix(8.9664,0,0,-8.9664,287.457,109.882999)" fill="#995cd6"/>
<path transform="matrix(1,0,0,-1,146.581,108.362)" stroke-width="1.0959" stroke-linecap="butt" stroke-miterlimit="10" stroke-linejoin="miter" fill="none" stroke="#3b3ef7" d="M-7.03596 70.31944C-50.55794 55.79234-74.677 37.97083-98.50279 4.61958"/>
<path transform="matrix(-.58125,.81366,.81366,.58125,49.836618,101.28093)" d="M6.35986 0 1.76953 1.73935 3.29916 0 1.76953-1.73935Z" fill="#3b3ef7"/>
<path transform="matrix(-.58125,.81366,.81366,.58125,49.836618,101.28093)" stroke-width="1.0959" stroke-linecap="butt" stroke-miterlimit="10" stroke-linejoin="miter" fill="none" stroke="#3b3ef7" d="M6.35986 0 1.76953 1.73935 3.29916 0 1.76953-1.73935Z"/>
<use data-text="0" xlink:href="#font_2_121" transform="matrix(8.9664,0,0,-8.9664,73.21199,70.588)" fill="#3b3ef7"/>
<path transform="matrix(1,0,0,-1,146.581,108.362)" stroke-width="1.0959" stroke-linecap="butt" stroke-miterlimit="10" stroke-linejoin="miter" fill="none" stroke="#3b3ef7" d="M7.03596 70.31944C50.51604 55.8301 74.58295 38.06635 98.39497 4.76874"/>
<path transform="matrix(.58167,.81335,.81335,-.58167,243.21631,101.13269)" d="M6.35986 0 1.76953 1.73935 3.29916 0 1.76953-1.73935Z" fill="#3b3ef7"/>
<path transform="matrix(.58167,.81335,.81335,-.58167,243.21631,101.13269)" stroke-width="1.0959" stroke-linecap="butt" stroke-miterlimit="10" stroke-linejoin="miter" fill="none" stroke="#3b3ef7" d="M6.35986 0 1.76953 1.73935 3.29916 0 1.76953-1.73935Z"/>
<use data-text="0" xlink:href="#font_2_121" transform="matrix(8.9664,0,0,-8.9664,215.272,70.511)" fill="#3b3ef7"/>
<path transform="matrix(1,0,0,-1,146.581,108.362)" stroke-width="1.0959" stroke-linecap="butt" stroke-miterlimit="10" stroke-linejoin="miter" fill="none" stroke="#ff333d" d="M-100.13544-7.05577C-53.11708-3.43095-20.55478 20.58281-5.00253 59.88014"/>
<path transform="matrix(.36797,-.92978,-.92978,-.36797,140.4653,51.29462)" d="M6.35986 0 1.76953 1.73935 3.29916 0 1.76953-1.73935Z" fill="#ff333d"/>
<path transform="matrix(.36797,-.92978,-.92978,-.36797,140.4653,51.29462)" stroke-width="1.0959" stroke-linecap="butt" stroke-miterlimit="10" stroke-linejoin="miter" fill="none" stroke="#ff333d" d="M6.35986 0 1.76953 1.73935 3.29916 0 1.76953-1.73935Z"/>
<use data-text="0" xlink:href="#font_2_121" transform="matrix(8.9664,0,0,-8.9664,102.30499,86.96)" fill="#ff333d"/>
<path transform="matrix(1,0,0,-1,146.581,108.362)" stroke-width="1.0959" stroke-linecap="butt" stroke-miterlimit="10" stroke-linejoin="miter" fill="none" stroke="#995cd6" d="M100.13544-7.05577C53.11708-3.43095 20.55478 20.58281 5.00253 59.88014"/>
<path transform="matrix(-.36797,-.92978,-.92978,.36797,152.69669,51.29462)" d="M6.35986 0 1.76953 1.73935 3.29916 0 1.76953-1.73935Z" fill="#995cd6"/>
<path transform="matrix(-.36797,-.92978,-.92978,.36797,152.69669,51.29462)" stroke-width="1.0959" stroke-linecap="butt" stroke-miterlimit="10" stroke-linejoin="miter" fill="none" stroke="#995cd6" d="M6.35986 0 1.76953 1.73935 3.29916 0 1.76953-1.73935Z"/>
<use data-text="0" xlink:href="#font_2_121" transform="matrix(8.9664,0,0,-8.9664,186.24799,86.96)" fill="#995cd6"/>
<path transform="matrix(1,0,0,-1,146.581,108.362)" stroke-width="1.0959" stroke-linecap="butt" stroke-miterlimit="10" stroke-linejoin="miter" fill="none" stroke="#ff333d" d="M-100.13544-7.65494H95.24022"/>
<path transform="matrix(1,0,0,-1,238.796,116.01694)" d="M6.35986 0 1.76953 1.73935 3.29916 0 1.76953-1.73935Z" fill="#ff333d"/>
<path transform="matrix(1,0,0,-1,238.796,116.01694)" stroke-width="1.0959" stroke-linecap="butt" stroke-miterlimit="10" stroke-linejoin="miter" fill="none" stroke="#ff333d" d="M6.35986 0 1.76953 1.73935 3.29916 0 1.76953-1.73935Z"/>
<use data-text="1" xlink:href="#font_2_82" transform="matrix(8.9664,0,0,-8.9664,144.277,112.148)" fill="#ff333d"/>
<path transform="matrix(1,0,0,-1,146.581,108.362)" stroke-width="1.0959" stroke-linecap="butt" stroke-miterlimit="10" stroke-linejoin="miter" fill="none" stroke="#995cd6" d="M101.27492-16.09714C55.89758-80.79962-56.0996-80.71674-98.57552-19.9584"/>
<path transform="matrix(-.57294,-.81956,-.81956,.57294,49.738725,130.79976)" d="M6.35986 0 1.76953 1.73935 3.29916 0 1.76953-1.73935Z" fill="#995cd6"/>
<path transform="matrix(-.57294,-.81956,-.81956,.57294,49.738725,130.79976)" stroke-width="1.0959" stroke-linecap="butt" stroke-miterlimit="10" stroke-linejoin="miter" fill="none" stroke="#995cd6" d="M6.35986 0 1.76953 1.73935 3.29916 0 1.76953-1.73935Z"/>
<use data-text="1" xlink:href="#font_2_82" transform="matrix(8.9664,0,0,-8.9664,132.405,182.282)" fill="#995cd6"/>
</svg>
