<svg xmlns="http://www.w3.org/2000/svg" xmlns:xlink="http://www.w3.org/1999/xlink" xmlns:inkscape="http://www.inkscape.org/namespaces/inkscape" version="1.1" width="204" height="206" viewBox="0 0 204 206">
<defs>
<path id="font_1_1" d="M.73999026 .4358673C.73999026 .5970001 .6339874 .7050781 .4850006 .7050781 .2689972 .7050781 .04899597 .47790528 .04899597 .24472046 .04899597 .07859802 .16099549-.022460938 .30499269-.022460938 .5169983-.022460938 .73999026 .19668579 .73999026 .4358673M.31098939 .0035247803C.21199036 .0035247803 .14199829 .08459473 .14199829 .21670532 .14199829 .2607422 .1559906 .4068451 .23298645 .52394106 .3019867 .62802127 .3999939 .68006899 .47898866 .68006899 .5609894 .68006899 .651001 .62402346 .651001 .4748993 .651001 .4028473 .6239929 .24671936 .5249939 .12362671 .47698976 .062576297 .394989 .0035247803 .31098939 .0035247803Z"/>
<path id="font_1_2" d="M.33399964 .30233766C.33999635 .32835389 .36299134 .42037965 .43299867 .42037965 .43798829 .42037965 .46199037 .42037965 .48298646 .40734864 .45498658 .402359 .43499757 .37734986 .43499757 .35334779 .43499757 .33735658 .44599916 .31835938 .47299195 .31835938 .49499513 .31835938 .5269928 .3363495 .5269928 .37635804 .5269928 .42837525 .46798707 .4423828 .43399049 .4423828 .37599183 .4423828 .34098817 .38935853 .32899476 .36634828 .3039856 .43237306 .25 .4423828 .22099304 .4423828 .116989139 .4423828 .05999756 .3133545 .05999756 .28834535 .05999756 .27833558 .069992069 .27833558 .07199097 .27833558 .07998657 .27833558 .08299255 .28033448 .084991458 .28933717 .11898804 .39535523 .18499756 .42037965 .21899414 .42037965 .23799134 .42037965 .272995 .4113617 .272995 .35334779 .272995 .32235719 .2559967 .25532533 .21899414 .11528015 .20298767 .053268434 .16799927 .011245728 .12399292 .011245728 .117996219 .011245728 .09498596 .011245728 .07398987 .024276734 .09899902 .029266358 .12098694 .05027771 .12098694 .07827759 .12098694 .105270389 .09899902 .11328125 .083999637 .11328125 .053985597 .11328125 .0289917 .08728027 .0289917 .055267335 .0289917 .009246826 .07899475-.0107421879 .12298584-.0107421879 .18899536-.0107421879 .22499085 .059280397 .22799683 .0652771 .23999024 .028274537 .27598573-.0107421879 .33599855-.0107421879 .43899537-.0107421879 .49598695 .118270877 .49598695 .14328003 .49598695 .1532898 .4869995 .1532898 .48399354 .1532898 .47499085 .1532898 .47299195 .14929199 .47099305 .14228821 .43798829 .03527832 .36999513 .011245728 .33799745 .011245728 .29899598 .011245728 .2829895 .043273927 .2829895 .07727051 .2829895 .09927368 .2889862 .121276859 .2999878 .16529846L.33399964 .30233766Z"/>
<path id="font_1_3" d="M.48599244 .38136292C.48999024 .39537049 .48999024 .39736939 .48999024 .40437318 .48999024 .42237855 .47599793 .43138124 .46099855 .43138124 .45098878 .43138124 .43499757 .42536927 .42599488 .41036988 .42399598 .405365 .41600038 .37435914 .4119873 .35635377 .40499879 .33035279 .397995 .30334474 .3919983 .27633668L.34700013 .09628296C.34298707 .08126831 .2999878 .011245728 .23399353 .011245728 .18299866 .011245728 .17199707 .055267335 .17199707 .0922699 .17199707 .1382904 .18899536 .20030213 .22299195 .28833009 .23899842 .3293457 .24299622 .3403473 .24299622 .36035157 .24299622 .405365 .21099854 .4423828 .16099549 .4423828 .06599426 .4423828 .0289917 .29733277 .0289917 .28833009 .0289917 .27833558 .038986207 .27833558 .040985109 .27833558 .050994874 .27833558 .051986696 .28033448 .056991579 .29634095 .083999637 .3903656 .12399292 .42037965 .1579895 .42037965 .1659851 .42037965 .18299866 .42037965 .18299866 .3883667 .18299866 .36335755 .17298889 .3373413 .1659851 .31834413 .12599182 .21231079 .10798645 .1552887 .10798645 .10827637 .10798645 .019256592 .17098999-.0107421879 .22999573-.0107421879 .2689972-.0107421879 .30299378 .0062561037 .33099366 .03425598 .31799317-.017745972 .30599977-.06674194 .2659912-.11973572 .23999024-.15385437 .20199585-.18309021 .1559906-.18309021 .14199829-.18309021 .09700012-.18005371 .07998657-.14074707 .09599304-.14074707 .10899353-.14074707 .12298584-.1287384 .1329956-.11973572 .14299011-.10673523 .14299011-.08773804 .14299011-.056747438 .115997318-.052734376 .10598755-.052734376 .08299255-.052734376 .049987794-.068740848 .049987794-.11773682 .049987794-.16796875 .09399414-.20507813 .1559906-.20507813 .25898744-.20507813 .3619995-.11373901 .3899994-.00074768069L.48599244 .38136292Z"/>
<path id="font_2_1" d="M.69898989 .22743225C.71499636 .22743225 .7369995 .22743225 .7369995 .25042726 .7369995 .2734375 .71499636 .2734375 .69898989 .2734375H.12599182C.10998535 .2734375 .08799744 .2734375 .08799744 .25042726 .08799744 .22743225 .10998535 .22743225 .12599182 .22743225H.69898989Z"/>
<path id="font_3_3" d="M.25299073 .33370973C.33198548 .33370973 .38198854 .27557374 .38198854 .17037964 .38198854 .045440675 .31098939 .008514404 .2579956 .008514404 .20298767 .008514404 .12799073 .0284729 .09298706 .08137512 .1289978 .08137512 .1539917 .10437012 .1539917 .13737488 .1539917 .16937256 .1309967 .19238281 .09899902 .19238281 .07199097 .19238281 .04399109 .17536927 .04399109 .13537598 .04399109 .04045105 .1459961-.021484375 .2599945-.021484375 .3929901-.021484375 .48599244 .070388797 .48599244 .17037964 .48599244 .25352479 .41999818 .32969667 .31799317 .3517456 .39698792 .37982179 .45599366 .4479828 .45599366 .52804568 .45599366 .6080475 .3659973 .66503909 .2619934 .66503909 .15499878 .66503909 .07398987 .6070404 .07398987 .53105166 .07398987 .49404908 .09899902 .4780426 .125 .4780426 .1559906 .4780426 .17599488 .5000458 .17599488 .52905276 .17599488 .56604006 .14399719 .5800476 .12199402 .5810547 .1639862 .6360321 .24099732 .6390381 .25898744 .6390381 .2849884 .6390381 .36099244 .6310272 .36099244 .52804568 .36099244 .45799256 .33198548 .41589356 .31799317 .39985658 .28799439 .36878968 .2649994 .36679078 .20399475 .3627777 .18499756 .36177064 .1769867 .36076356 .1769867 .3477478 .1769867 .33370973 .18598938 .33370973 .20298767 .33370973H.25299073Z"/>
<path id="font_3_2" d="M.28199769 .20405579C.2979889 .21907044 .33999635 .2520752 .35598756 .26608277 .41799928 .32312013 .47698976 .3781433 .47698976 .46917726 .47698976 .588089 .3769989 .66503909 .2519989 .66503909 .13198853 .66503909 .052993776 .57411196 .052993776 .48516847 .052993776 .4361725 .09199524 .4291687 .10598755 .4291687 .1269989 .4291687 .1579895 .4441681 .1579895 .48217774 .1579895 .5341797 .10798645 .5341797 .09599304 .5341797 .125 .6070709 .19198609 .6320343 .24099732 .6320343 .33399964 .6320343 .38198854 .55314639 .38198854 .46917726 .38198854 .36514283 .30899049 .28910829 .19099427 .16804505L.06498718 .037994386C.052993776 .026992798 .052993776 .024993897 .052993776 0H.44799806L.47698976 .17904663H.44599916C.44299317 .1590271 .43499757 .10900879 .4229889 .08999634 .4169922 .08198547 .34098817 .08198547 .32499696 .08198547H.14698792L.28199769 .20405579Z"/>
<path id="font_3_1" d="M.31399537 .63708499C.31399537 .664032 .31199647 .66503909 .2849884 .66503909 .24398804 .6251831 .19099427 .6013489 .09599304 .6013489V.5683594C.12298584 .5683594 .1769867 .5683594 .23498535 .5953522V.08203125C.23498535 .04499817 .23199463 .032989503 .13699341 .032989503H.101989749V0C.14299011 .0029907227 .22898865 .0029907227 .27398683 .0029907227 .31900025 .0029907227 .4059906 .0029907227 .44699098 0V.032989503H.4119873C.31698609 .032989503 .31399537 .04499817 .31399537 .08203125V.63708499Z"/>
<path id="font_4_1" d="M.43798829 .072143558V-.005859375L.61499026 .0001373291V.0471344C.5529938 .0471344 .54599 .0471344 .54599 .086135867V.4501953L.36299134 .44218446V.39518739C.4249878 .39518739 .43199159 .39518739 .43199159 .3561859V.16514588C.43199159 .08314514 .3809967 .030136109 .30799867 .030136109 .23098755 .030136109 .22799683 .055130006 .22799683 .10914612V.4501953L.04499817 .44218446V.39518739C.10699463 .39518739 .11399841 .39518739 .11399841 .3561859V.12315369C.11399841 .01612854 .19499207-.005859375 .2939911-.005859375 .31999208-.005859375 .3919983-.005859375 .43798829 .072143558Z"/>
<path id="font_4_2" d="M.5059967 .37631227C.5119934 .39031983 .5159912 .3973236 .5799866 .3973236V.44433595C.5549927 .44232179 .526001 .44132997 .5009918 .44132997 .47599793 .44132997 .43099977 .44332887 .4099884 .44433595V.3973236C.42900086 .3973236 .45799256 .3943329 .45799256 .38632203 .45799256 .3853302 .45700074 .38331605 .45298768 .37431336L.33699037 .12416077 .20999146 .3973236H.2639923V.44433595C.23098755 .44232179 .14099121 .44132997 .13999939 .44132997 .11199951 .44132997 .066986087 .44332887 .025985718 .44433595V.3973236H.08999634L.2649994 .021087647C.2769928-.00390625 .2899933-.00390625 .30299378-.00390625 .31999208-.00390625 .32998658-.00091552737 .33999635 .020080567L.5059967 .37631227Z"/>
<path id="font_4_3" d="M.34599305 .2461853 .46299745 .37631227C.47599793 .39031983 .48199464 .3973236 .5649872 .3973236V.44433595C.5299988 .44232179 .47799684 .44132997 .47299195 .44132997 .44799806 .44132997 .397995 .44332887 .36999513 .44433595V.3973236C.38398744 .3973236 .3959961 .3953247 .4079895 .38832093 .4039917 .38230897 .4039917 .38031007 .3999939 .37631227L.31599427 .2822113 .21798706 .3973236H.2579956V.44433595C.23199463 .44332887 .16899109 .44132997 .13699341 .44132997 .10499573 .44132997 .05999756 .44332887 .026992798 .44433595V.3973236H.09799194L.2539978 .21315003 .12298584 .06600952C.10598755 .04699707 .069992069 .04699707 .021987915 .04699707V0C.056991579 .0019989014 .10899353 .0029907227 .11399841 .0029907227 .13899231 .0029907227 .19699097 .0009918213 .21699524 0V.04699707C.19898987 .04699707 .17999268 .052001954 .17999268 .057998659 .17999268 .059005739 .17999268 .05999756 .18699646 .06800842L.28399659 .17712403 .3939972 .04699707H.35499574V0C.3809967 .0009918213 .44198609 .0029907227 .47499085 .0029907227 .5069885 .0029907227 .5519867 .0009918213 .58499148 0V.04699707H.5139923L.34599305 .2461853Z"/>
</defs>
<path transform="matrix(1.00005,0,0,-1.00005,97.57898,108.14975)" stroke-width=".3985" stroke-linecap="butt" stroke-miterlimit="10" stroke-linejoin="miter" fill="none" stroke="#000000" d="M0 0"/>
<use data-text="O" xlink:href="#font_1_1" transform="matrix(9.963098,0,0,-9.963098,86.18241,118.478267)"/>
<path transform="matrix(1.00005,0,0,-1.00005,97.57898,108.14975)" stroke-width=".59776" stroke-linecap="butt" stroke-miterlimit="10" stroke-linejoin="miter" fill="none" stroke="#000000" d="M-96.37984 0H95.78206"/>
<path transform="matrix(1.00005,0,0,-1.00005,193.66474,108.14975)" stroke-width=".59776" stroke-linecap="round" stroke-linejoin="round" fill="none" stroke="#000000" d="M-2.31136 2.751C-1.88908 1.10037-.94807 .32094 0 0-.94807-.32094-1.88908-1.10037-2.31136-2.751"/>
<use data-text="x" xlink:href="#font_1_2" transform="matrix(9.963098,0,0,-9.963098,197.58298,110.29486)"/>
<path transform="matrix(1.00005,0,0,-1.00005,97.57898,108.14975)" stroke-width=".59776" stroke-linecap="butt" stroke-miterlimit="10" stroke-linejoin="miter" fill="none" stroke="#000000" d="M0-96.37984V95.78206"/>
<path transform="matrix(0,-1.00005,-1.00005,-0,97.57898,12.064003)" stroke-width=".59776" stroke-linecap="round" stroke-linejoin="round" fill="none" stroke="#000000" d="M-2.31136 2.751C-1.88908 1.10037-.94807 .32094 0 0-.94807-.32094-1.88908-1.10037-2.31136-2.751"/>
<use data-text="y" xlink:href="#font_1_3" transform="matrix(9.963098,0,0,-9.963098,94.95785,6.208664)"/>
<path transform="matrix(1.00005,0,0,-1.00005,97.57898,108.14975)" stroke-width=".3985" stroke-linecap="butt" stroke-miterlimit="10" stroke-linejoin="miter" fill="none" stroke="#000000" d="M-72.28487 2.40962V-2.40962"/>
<use data-text="&#x2212;" xlink:href="#font_2_1" transform="matrix(7.970498,0,0,-7.970498,19.880097,119.2163)"/>
<use data-text="3" xlink:href="#font_3_3" transform="matrix(7.970498,0,0,-7.970498,26.467423,119.2163)"/>
<path transform="matrix(1.00005,0,0,-1.00005,97.57898,108.14975)" stroke-width=".3985" stroke-linecap="butt" stroke-miterlimit="10" stroke-linejoin="miter" fill="none" stroke="#000000" d="M-48.18991 2.40962V-2.40962"/>
<use data-text="&#x2212;" xlink:href="#font_2_1" transform="matrix(7.970498,0,0,-7.970498,43.976305,119.2163)"/>
<use data-text="2" xlink:href="#font_3_2" transform="matrix(7.970498,0,0,-7.970498,50.56363,119.2163)"/>
<path transform="matrix(1.00005,0,0,-1.00005,97.57898,108.14975)" stroke-width=".3985" stroke-linecap="butt" stroke-miterlimit="10" stroke-linejoin="miter" fill="none" stroke="#000000" d="M-24.09494 2.40962V-2.40962"/>
<use data-text="&#x2212;" xlink:href="#font_2_1" transform="matrix(7.970498,0,0,-7.970498,68.07251,119.2163)"/>
<use data-text="1" xlink:href="#font_3_1" transform="matrix(7.970498,0,0,-7.970498,74.659839,119.2163)"/>
<path transform="matrix(1.00005,0,0,-1.00005,97.57898,108.14975)" stroke-width=".3985" stroke-linecap="butt" stroke-miterlimit="10" stroke-linejoin="miter" fill="none" stroke="#000000" d="M24.09494 2.40962V-2.40962"/>
<use data-text="1" xlink:href="#font_3_1" transform="matrix(7.970498,0,0,-7.970498,119.558078,119.2163)"/>
<path transform="matrix(1.00005,0,0,-1.00005,97.57898,108.14975)" stroke-width=".3985" stroke-linecap="butt" stroke-miterlimit="10" stroke-linejoin="miter" fill="none" stroke="#000000" d="M48.18991 2.40962V-2.40962"/>
<use data-text="2" xlink:href="#font_3_2" transform="matrix(7.970498,0,0,-7.970498,143.65428,119.2163)"/>
<path transform="matrix(1.00005,0,0,-1.00005,97.57898,108.14975)" stroke-width=".3985" stroke-linecap="butt" stroke-miterlimit="10" stroke-linejoin="miter" fill="none" stroke="#000000" d="M72.28487 2.40962V-2.40962"/>
<use data-text="3" xlink:href="#font_3_3" transform="matrix(7.970498,0,0,-7.970498,167.75049,119.2163)"/>
<path transform="matrix(1.00005,0,0,-1.00005,97.57898,108.14975)" stroke-width=".3985" stroke-linecap="butt" stroke-miterlimit="10" stroke-linejoin="miter" fill="none" stroke="#000000" d="M2.40962-72.28487H-2.40962"/>
<use data-text="&#x2212;" xlink:href="#font_2_1" transform="matrix(7.970498,0,0,-7.970498,80.82814,182.59146)"/>
<use data-text="3" xlink:href="#font_3_3" transform="matrix(7.970498,0,0,-7.970498,87.41547,182.59146)"/>
<path transform="matrix(1.00005,0,0,-1.00005,97.57898,108.14975)" stroke-width=".3985" stroke-linecap="butt" stroke-miterlimit="10" stroke-linejoin="miter" fill="none" stroke="#000000" d="M2.40962-48.18991H-2.40962"/>
<use data-text="&#x2212;" xlink:href="#font_2_1" transform="matrix(7.970498,0,0,-7.970498,80.82814,158.49527)"/>
<use data-text="2" xlink:href="#font_3_2" transform="matrix(7.970498,0,0,-7.970498,87.41547,158.49527)"/>
<path transform="matrix(1.00005,0,0,-1.00005,97.57898,108.14975)" stroke-width=".3985" stroke-linecap="butt" stroke-miterlimit="10" stroke-linejoin="miter" fill="none" stroke="#000000" d="M2.40962-24.09494H-2.40962"/>
<use data-text="&#x2212;" xlink:href="#font_2_1" transform="matrix(7.970498,0,0,-7.970498,80.82814,134.39907)"/>
<use data-text="1" xlink:href="#font_3_1" transform="matrix(7.970498,0,0,-7.970498,87.41547,134.39907)"/>
<path transform="matrix(1.00005,0,0,-1.00005,97.57898,108.14975)" stroke-width=".3985" stroke-linecap="butt" stroke-miterlimit="10" stroke-linejoin="miter" fill="none" stroke="#000000" d="M2.40962 24.09494H-2.40962"/>
<use data-text="1" xlink:href="#font_3_1" transform="matrix(7.970498,0,0,-7.970498,87.414478,86.62167)"/>
<path transform="matrix(1.00005,0,0,-1.00005,97.57898,108.14975)" stroke-width=".3985" stroke-linecap="butt" stroke-miterlimit="10" stroke-linejoin="miter" fill="none" stroke="#000000" d="M2.40962 48.18991H-2.40962"/>
<use data-text="2" xlink:href="#font_3_2" transform="matrix(7.970498,0,0,-7.970498,87.414478,62.52547)"/>
<path transform="matrix(1.00005,0,0,-1.00005,97.57898,108.14975)" stroke-width=".3985" stroke-linecap="butt" stroke-miterlimit="10" stroke-linejoin="miter" fill="none" stroke="#000000" d="M2.40962 72.28487H-2.40962"/>
<use data-text="3" xlink:href="#font_3_3" transform="matrix(7.970498,0,0,-7.970498,87.414478,38.429269)"/>
<path transform="matrix(1.00005,0,0,-1.00005,97.57898,108.14975)" stroke-width=".59776" stroke-linecap="butt" stroke-miterlimit="10" stroke-linejoin="miter" fill="none" stroke="#000000" d="M0 0 47.76724 47.76724"/>
<path transform="matrix(.7071353,-.7071353,-.7071353,-.7071353,145.55994,60.168794)" stroke-width=".59776" stroke-linecap="round" stroke-linejoin="round" fill="none" stroke="#000000" d="M-2.31136 2.751C-1.88908 1.10037-.94807 .32094 0 0-.94807-.32094-1.88908-1.10037-2.31136-2.751"/>
<path transform="matrix(1.00005,0,0,-1.00005,97.57898,108.14975)" stroke-width=".3985" stroke-linecap="butt" stroke-miterlimit="10" stroke-linejoin="miter" fill="none" stroke="#000000" d="M28.91386 31.3235"/>
<use data-text="u" xlink:href="#font_4_1" transform="matrix(9.963098,0,0,-9.963098,116.60893,79.0383)"/>
<path transform="matrix(1.00005,0,0,-1.00005,97.57898,108.14975)" stroke-width=".59776" stroke-linecap="butt" stroke-miterlimit="10" stroke-linejoin="miter" fill="none" stroke="#000000" d="M0 0-23.67227 23.67227"/>
<path transform="matrix(-.7071353,-.7071353,-.7071353,.7071353,73.6942,84.26497)" stroke-width=".59776" stroke-linecap="round" stroke-linejoin="round" fill="none" stroke="#000000" d="M-2.31136 2.751C-1.88908 1.10037-.94807 .32094 0 0-.94807-.32094-1.88908-1.10037-2.31136-2.751"/>
<use data-text="v" xlink:href="#font_4_2" transform="matrix(9.963098,0,0,-9.963098,63.657289,86.267658)"/>
<path transform="matrix(1.00005,0,0,-1.00005,97.57898,108.14975)" stroke-width=".59776" stroke-linecap="butt" stroke-miterlimit="10" stroke-linejoin="miter" fill="none" stroke="#000000" d="M0 0 71.8622-71.8622"/>
<path transform="matrix(.7071353,.7071353,.7071353,-.7071353,169.6561,180.22687)" stroke-width=".59776" stroke-linecap="round" stroke-linejoin="round" fill="none" stroke="#000000" d="M-2.31136 2.751C-1.88908 1.10037-.94807 .32094 0 0-.94807-.32094-1.88908-1.10037-2.31136-2.751"/>
<use data-text="x" xlink:href="#font_4_3" transform="matrix(9.963098,0,0,-9.963098,160.20111,182.65247)"/>
<path transform="matrix(1.00005,0,0,-1.00005,97.57898,108.14975)" stroke-width=".3985" stroke-linecap="butt" stroke-dasharray="2.98883,2.98883" stroke-miterlimit="10" stroke-linejoin="miter" fill="none" stroke="#000000" d="M-84.33235 84.33235 84.33235-84.33235"/>
</svg>
