<svg xmlns="http://www.w3.org/2000/svg" xmlns:xlink="http://www.w3.org/1999/xlink" xmlns:inkscape="http://www.inkscape.org/namespaces/inkscape" version="1.1" width="180" height="70" viewBox="0 0 180 70">
<defs>
<path id="font_1_3" d="M.015991211 .099243167C.01399231 .09625244 .010986328 .09324646 .010986328 .08924866 .010986328 .08425903 .016998291 .07624817 .022994996 .07624817 .027999878 .07624817 .0309906 .07925415 .05899048 .10723877 .066986087 .11424255 .08699036 .13323975 .09498596 .14123535 .10499573 .06225586 .13398743-.01171875 .20698548-.01171875 .24699402-.01171875 .28199769 .011276245 .30299378 .026275635 .31698609 .03627014 .3639984 .07525635 .3639984 .085250858 .3639984 .088256839 .36099244 .09724426 .35198976 .09724426 .34899903 .09724426 .34799195 .09625244 .33898927 .088256839 .2749939 .025268555 .23799134 .010269165 .20899964 .010269165 .1639862 .010269165 .147995 .06225586 .147995 .14022827 .147995 .14624024 .1499939 .19221497 .15299988 .19721985 .15499878 .20021057 .15499878 .20220948 .1749878 .22221375 .2559967 .30319215 .397995 .47213746 .397995 .62709048 .397995 .64408877 .397995 .7050781 .33898927 .7050781 .2559967 .7050781 .18199158 .54011538 .17199707 .51712039 .12399292 .40815736 .09298706 .29118348 .09298706 .17222595L.015991211 .099243167M.1579895 .23921204C.1599884 .25019837 .20298767 .47213746 .2599945 .58909609 .2869873 .64308169 .30799867 .68307498 .33999635 .68307498 .37399293 .68307498 .37399293 .64707949 .37399293 .63108828 .37399293 .46414186 .20599365 .28918458 .1579895 .23921204Z"/>
<path id="font_1_1" d="M.1789856 .114868167C.13899231 .047973634 .099990848 .033981325 .055999757 .0309906 .04399109 .02999878 .034988405 .02999878 .034988405 .010986328 .034988405 .004989624 .039993287 0 .04798889 0 .07499695 0 .10598755 .0029907227 .13398743 .0029907227 .16699219 .0029907227 .20199585 0 .23399353 0 .23999024 0 .25299073 0 .25299073 .018997193 .25299073 .02999878 .24398804 .0309906 .23699951 .0309906 .21398926 .032989503 .18998719 .04096985 .18998719 .06593323 .18998719 .077926639 .19599915 .088897708 .20399475 .102890018L.27999879 .23068238H.5309906C.5329895 .2097168 .5469971 .07392883 .5469971 .063949588 .5469971 .033981325 .49499513 .0309906 .47499085 .0309906 .46099855 .0309906 .45098878 .0309906 .45098878 .010986328 .45098878 0 .46299745 0 .46499635 0 .5059967 0 .548996 .0029907227 .58999636 .0029907227 .61499026 .0029907227 .6779938 0 .7029877 0 .70899966 0 .72099307 0 .72099307 .019989014 .72099307 .0309906 .71099856 .0309906 .69799807 .0309906 .6359863 .0309906 .6359863 .037979127 .6329956 .06694031L.57199099 .691803C.56999209 .71180728 .56999209 .7158203 .5529938 .7158203 .5369873 .7158203 .5329895 .7088165 .5269928 .69880679L.1789856 .114868167M.29899598 .26168824 .49598695 .5917816 .5279999 .26168824H.29899598Z"/>
<path id="font_1_2" d="M.1599884 .07795715C.1499939 .038986207 .147995 .0309906 .068984989 .0309906 .051986696 .0309906 .041992189 .0309906 .041992189 .010986328 .041992189 0 .050994874 0 .068984989 0H.42599488C.58399966 0 .70199587 .11791992 .70199587 .21585083 .70199587 .28778077 .6439972 .3457489 .5469971 .35673524 .651001 .37573243 .7559967 .44970704 .7559967 .5446625 .7559967 .6186218 .6899872 .6826172 .56999209 .6826172H.23399353C.21499634 .6826172 .20498657 .6826172 .20498657 .6626129 .20498657 .6516113 .21398926 .6516113 .23298645 .6516113 .23498535 .6516113 .2539978 .6516113 .2709961 .6496124 .2889862 .6476135 .2979889 .64660647 .2979889 .6336212 .2979889 .6296234 .29699708 .62661746 .2939911 .614624L.1599884 .07795715M.31098939 .36573792 .37298585 .6136322C.38198854 .64860537 .38398744 .6516113 .4269867 .6516113H.55599978C.6439972 .6516113 .6649933 .5926361 .6649933 .5486603 .6649933 .46069337 .57899478 .36573792 .45700074 .36573792H.31098939M.2659912 .0309906C.2519989 .0309906 .25 .0309906 .24398804 .03199768 .23399353 .032989503 .23098755 .033996583 .23098755 .04197693 .23098755 .04498291 .23098755 .04698181 .23599243 .064971927L.30499269 .34375H.49398805C.58999636 .34375 .60899356 .2698059 .60899356 .22683716 .60899356 .12791443 .519989 .0309906 .4019928 .0309906H.2659912Z"/>
<path id="font_2_1" d="M.41799928 .042999269V-.006011963L.6009979 0V.04699707C.5389862 .04699707 .5319977 .04699707 .5319977 .086013797V.69433596L.35499574 .6863251V.639328C.4169922 .639328 .42399598 .639328 .42399598 .600296V.40518189C.37399293 .44418336 .32199098 .4501953 .2889862 .4501953 .14299011 .4501953 .037994386 .36218263 .037994386 .22116089 .037994386 .089141849 .12998963-.005859375 .27799989-.005859375 .33898927-.006011963 .3869934 .017990113 .41799928 .042999269M.41799928 .35316468V.103027347C.40499879 .085006717 .3639984 .02999878 .28799439 .02999878 .1659851 .02999878 .1659851 .15104676 .1659851 .2210846 .1659851 .26911927 .1659851 .32313539 .19198609 .36216737 .22099304 .40419007 .2679901 .41418458 .29899598 .41418458 .35598756 .41418458 .3959961 .38217164 .41799928 .35316468Z"/>
<path id="font_3_1" d="M.68699648 .32714845C.70199587 .32714845 .72099307 .32714845 .72099307 .34713746 .72099307 .36714173 .70199587 .36714173 .6879883 .36714173H.08898926C.07499695 .36714173 .055999757 .36714173 .055999757 .34713746 .055999757 .32714845 .07499695 .32714845 .08999634 .32714845H.68699648M.6879883 .13284302C.70199587 .13284302 .72099307 .13284302 .72099307 .15284729 .72099307 .17285156 .70199587 .17285156 .68699648 .17285156H.08999634C.07499695 .17285156 .055999757 .17285156 .055999757 .15284729 .055999757 .13284302 .07499695 .13284302 .08898926 .13284302H.6879883Z"/>
<path id="font_4_1" d="M.6589966 .23046875C.6759949 .23046875 .69400027 .23046875 .69400027 .25045777 .69400027 .27046205 .6759949 .27046205 .6589966 .27046205H.117996219C.100997928 .27046205 .08299255 .27046205 .08299255 .25045777 .08299255 .23046875 .100997928 .23046875 .117996219 .23046875H.6589966Z"/>
<path id="font_4_2" d="M.83399966 .23046875C.7789917 .1884613 .7519989 .14746094 .74398806 .13446045 .69898989 .065460208 .69099429 .002456665 .69099429 .0014648438 .69099429-.010543823 .7029877-.010543823 .71099856-.010543823 .7279968-.010543823 .72898867-.008544922 .73298647 .009460449 .7559967 .10746765 .8149872 .19146729 .9279938 .23745728 .9399872 .24145508 .94299319 .24345398 .94299319 .25045777 .94299319 .25746156 .93699648 .26046754 .93499758 .26145936 .8909912 .27845765 .769989 .3284607 .7319946 .49645997 .72898867 .5084686 .7279968 .51145938 .71099856 .51145938 .7029877 .51145938 .69099429 .51145938 .69099429 .49946595 .69099429 .49746705 .69999697 .4344635 .74198916 .36746217 .7619934 .33746339 .79100039 .30245973 .83399966 .27046205H.09098816C.07299805 .27046205 .054992677 .27046205 .054992677 .25045777 .054992677 .23046875 .07299805 .23046875 .09098816 .23046875H.83399966Z"/>
</defs>
<path transform="matrix(1.00006,0,0,-1.00002,1.0959854,68.05312)" stroke-width=".3985" stroke-linecap="butt" stroke-miterlimit="10" stroke-linejoin="miter" fill="none" stroke="#000000" d="M0 0 170.08086 56.69362"/>
<use data-text="&#x2113;" xlink:href="#font_1_3" transform="matrix(9.963197,0,0,-9.962799,174.7074,7.838917)"/>
<path transform="matrix(1.00006,0,0,-1.00002,1.0959854,68.05312)" stroke-width=".3985" stroke-linecap="butt" stroke-miterlimit="10" stroke-linejoin="miter" fill="none" stroke="#000000" d="M28.3468 9.44878"/>
<path transform="matrix(1.00006,0,0,-1.00002,1.0959854,68.05312)" d="M30.92978 9.44878C30.92978 10.87534 29.77336 12.03177 28.3468 12.03177 26.92024 12.03177 25.76382 10.87534 25.76382 9.44878 25.76382 8.02223 26.92024 6.8658 28.3468 6.8658 29.77336 6.8658 30.92978 8.02223 30.92978 9.44878ZM28.3468 9.44878"/>
<use data-text="A" xlink:href="#font_1_1" transform="matrix(9.963197,0,0,-9.962799,25.708462,55.083864)"/>
<path transform="matrix(1.00006,0,0,-1.00002,1.0959854,68.05312)" stroke-width=".3985" stroke-linecap="butt" stroke-miterlimit="10" stroke-linejoin="miter" fill="none" stroke="#000000" d="M127.56062 42.5202"/>
<path transform="matrix(1.00006,0,0,-1.00002,1.0959854,68.05312)" d="M130.14362 42.5202C130.14362 43.94675 128.98719 45.10318 127.56062 45.10318 126.13408 45.10318 124.97765 43.94675 124.97765 42.5202 124.97765 41.09364 126.13408 39.93721 127.56062 39.93721 128.98719 39.93721 130.14362 41.09364 130.14362 42.5202ZM127.56062 42.5202"/>
<use data-text="B" xlink:href="#font_1_2" transform="matrix(9.963197,0,0,-9.962799,124.63539,22.0122)"/>
<path transform="matrix(1.00006,0,0,-1.00002,1.0959854,68.05312)" stroke-width=".59776" stroke-linecap="butt" stroke-miterlimit="10" stroke-linejoin="miter" fill="none" stroke="#000000" d="M28.3468 9.44878 126.99356 42.33119"/>
<path transform="matrix(.94869688,-.31621633,-.31622897,-.948659,128.3807,25.626584)" stroke-width=".59776" stroke-linecap="round" stroke-linejoin="round" fill="none" stroke="#000000" d="M-2.31136 2.751C-1.88908 1.10037-.94807 .32094 0 0-.94807-.32094-1.88908-1.10037-2.31136-2.751"/>
<use data-text="d" xlink:href="#font_2_1" transform="matrix(9.963197,0,0,-9.962799,61.464609,56.150888)"/>
<use data-text="=" xlink:href="#font_3_1" transform="matrix(9.963197,0,0,-9.962799,70.59715,56.150888)"/>
<use data-text="&#x2212;" xlink:href="#font_4_1" transform="matrix(9.963197,0,0,-9.962799,81.113788,49.34275)"/>
<use data-text="&#x2212;" xlink:href="#font_4_1" transform="matrix(9.963197,0,0,-9.962799,83.89352,49.34275)"/>
<use data-text="&#x2192;" xlink:href="#font_4_2" transform="matrix(9.963197,0,0,-9.962799,86.673259,49.34275)"/>
<use data-text="A" xlink:href="#font_1_1" transform="matrix(9.963197,0,0,-9.962799,81.113788,56.150888)"/>
<use data-text="B" xlink:href="#font_1_2" transform="matrix(9.963197,0,0,-9.962799,88.586177,56.150888)"/>
</svg>
