<svg xmlns="http://www.w3.org/2000/svg" xmlns:xlink="http://www.w3.org/1999/xlink" xmlns:inkscape="http://www.inkscape.org/namespaces/inkscape" version="1.1" width="317" height="184" viewBox="0 0 317 184">
<defs>
<path id="font_1_82" d="M.4099884 0V.0289917H.3789978C.29100038 .0289917 .28799439 .041000368 .28799439 .07701111V.6411133C.28799439 .664032 .28799439 .66503909 .2679901 .66503909 .24398804 .63812258 .19400025 .6012573 .09098816 .6012573V.5722656C.11399841 .5722656 .1639862 .5722656 .21899414 .59825137V.07701111C.21899414 .041000368 .21598816 .0289917 .12799073 .0289917H.09700012V0C.12399292 .0019989014 .22099304 .0019989014 .2539978 .0019989014 .2869873 .0019989014 .3829956 .0019989014 .4099884 0Z"/>
<path id="font_1_107" d="M.43998719 .16799927H.41799928C.4149933 .15098572 .40699769 .09599304 .39698792 .07998657 .3899994 .070999149 .33299256 .070999149 .30299378 .070999149H.117996219C.14498902 .09399414 .20599365 .1579895 .23199463 .18199158 .38398744 .3217926 .43998719 .37374879 .43998719 .47270204 .43998719 .5878906 .34899903 .66503909 .23298645 .66503909 .116989139 .66503909 .04899597 .5658264 .04899597 .4797058 .04899597 .42871095 .09298706 .42871095 .09599304 .42871095 .116989139 .42871095 .14299011 .44371034 .14299011 .475708 .14299011 .5037079 .12399292 .5227051 .09599304 .5227051 .08699036 .5227051 .084991458 .5227051 .08198547 .521698 .100997928 .5899048 .15499878 .6360321 .21998596 .6360321 .30499269 .6360321 .35699464 .56481936 .35699464 .47270204 .35699464 .3877411 .30799867 .313797 .25099183 .24984741L.04899597 .023986817V0H.4139862L.43998719 .16799927Z"/>
<path id="font_1_106" d="M.44799806 .17103577C.44799806 .263031 .37399293 .33503724 .27799989 .35203553 .36499024 .37702943 .42099 .45002748 .42099 .5280304 .42099 .60702517 .33898927 .66503909 .24198914 .66503909 .14199829 .66503909 .067993167 .6040344 .067993167 .5310364 .067993167 .49121095 .09899902 .48321534 .11399841 .48321534 .1349945 .48321534 .15899658 .49821473 .15899658 .5282135 .15899658 .5602112 .1349945 .57421877 .11299133 .57421877 .10699463 .57421877 .10499573 .57421877 .101989749 .57321169 .13999939 .641037 .23399353 .641037 .23899842 .641037 .27198792 .641037 .33699037 .6260681 .33699037 .5282135 .33699037 .5092163 .33399964 .453125 .30499269 .41001893 .2749939 .3658905 .24099732 .36288453 .21398926 .36187745L.18399048 .35888673C.16699219 .35787965 .16299439 .35688783 .16299439 .34788514 .16299439 .33789063 .16799927 .33789063 .18598938 .33789063H.23199463C.31698609 .33789063 .35499574 .267807 .35499574 .17172241 .35499574 .04058838 .2869873 .005508423 .23799134 .005508423 .18998719 .005508423 .10798645 .028564454 .07899475 .09472656 .11099243 .08955383 .13999939 .107543949 .13999939 .14355469 .13999939 .17271424 .11898804 .1927185 .09098816 .1927185 .066986087 .1927185 .040985109 .1787262 .040985109 .14071656 .040985109 .051620485 .12998963-.021484375 .24099732-.021484375 .3600006-.021453858 .44799806 .06954956 .44799806 .17054749V.17103577Z"/>
<path id="font_2_121" d="M.47299195 .31976319C.47299195 .38682557 .46998597 .47288514 .43499757 .5479431 .3909912 .64201357 .31498719 .6660156 .25698854 .6660156 .19699097 .6660156 .12098694 .64201357 .07699585 .5459442 .04499817 .47688294 .039993287 .39582826 .039993287 .31976319 .039993287 .25471498 .041992189 .15765381 .084991458 .07858276 .13198853-.0064697267 .20999146-.022460938 .2559967-.022460938 .32099916-.022460938 .394989 .0055389406 .43699647 .097595218 .46699525 .1646576 .47299195 .23971558 .47299195 .31976319M.3869934 .33177186C.3869934 .2697296 .3869934 .18566895 .3769989 .12661743 .35598756 .012542725 .28199769 .002532959 .25698854 .002532959 .22698975 .002532959 .15499878 .016540528 .13598633 .12962342 .12599182 .18867493 .12599182 .2747345 .12599182 .33177186 .12599182 .39982606 .12599182 .47888185 .13798523 .53393557 .1579895 .6230011 .22200012 .64100649 .2559967 .64100649 .2939911 .64100649 .35699464 .62098696 .37599183 .5279236 .3869934 .47288514 .3869934 .39482118 .3869934 .33177186Z"/>
<path id="font_2_88" d="M.19599915 .053985597C.19599915 .08299255 .17199707 .10798645 .14199829 .10798645 .11199951 .10798645 .08799744 .08299255 .08799744 .053985597 .08799744 .023986817 .11199951 0 .14199829 0 .17199707 0 .19599915 .023986817 .19599915 .053985597Z"/>
<path id="font_2_107" d="M.46199037 .17704773H.43399049C.43199159 .16404724 .42399598 .10501099 .41099549 .08900452 .40499879 .07998657 .33599855 .07998657 .31599427 .07998657H.13798523L.23699951 .17404175C.40098573 .3161316 .46199037 .36915589 .46199037 .4711914 .46199037 .5860901 .36698915 .6660156 .24398804 .6660156 .1289978 .6660156 .050994874 .575119 .050994874 .4841919 .050994874 .43418885 .09399414 .42919923 .102996829 .42919923 .125 .42919923 .15499878 .44519044 .15499878 .48120118 .15499878 .51119998 .13398743 .5332031 .102996829 .5332031 .09799194 .5332031 .09498596 .5332031 .09098816 .53219607 .114990238 .6030731 .1789856 .63500979 .23298645 .63500979 .33499146 .63500979 .36999513 .5401764 .36999513 .4711914 .36999513 .36915589 .29299928 .28611756 .24499512 .23408509L.06199646 .035995485C.050994874 .024993897 .050994874 .022994996 .050994874 0H.43399049L.46199037 .17704773Z"/>
<path id="font_2_56" d="M.46199037 .19992066C.46199037 .3209076 .37599183 .41992188 .2669983 .41992188 .21899414 .41992188 .16999817 .4039154 .1349945 .36791993V.5647888C.16499329 .55578616 .19599915 .55078127 .22698975 .55078127 .34999085 .55078127 .42199708 .63983157 .42199708 .6529236 .42199708 .6619873 .41600038 .6660156 .41099549 .6660156 .41099549 .6660156 .40699769 .6660156 .397995 .6609802 .35099793 .6418457 .30499269 .63378909 .2630005 .63378909 .21998596 .63378909 .1749878 .6418457 .1289978 .6609802 .11898804 .6660156 .115997318 .6660156 .115997318 .6660156 .10398865 .6660156 .10398865 .6559448 .10398865 .63882449V.34490968C.10398865 .32699586 .10398865 .31599427 .117996219 .31599427 .12599182 .31562806 .1289978 .3196411 .1349945 .32867433 .16499329 .37083436 .21299744 .39491273 .2649994 .39491273 .37199403 .39491273 .37199403 .24035645 .37199403 .20422364 .37199403 .17321778 .37199403 .11122131 .34399415 .06636047 .31698609 .024475098 .2749939 .0055389406 .23599243 .0055389406 .1769867 .0055389406 .10998535 .042419435 .085998538 .11621094 .085998538 .116882327 .09298706 .11488342 .099990848 .11488342 .11999512 .11488342 .14898682 .12788391 .14898682 .1638794 .14898682 .19488526 .1269989 .21289063 .099990848 .21289063 .07899475 .21289063 .050994874 .20088196 .050994874 .16088867 .050994874 .069732669 .1269989-.022460938 .23799134-.022460938 .35899354-.02279663 .46199037 .07521057 .46199037 .19921875V.19992066Z"/>
</defs>
<use data-text="1" xlink:href="#font_1_82" transform="matrix(14.347347,0,0,-14.346916,154.83219,40.62142)" fill="#3b3ef7"/>
<use data-text="2" xlink:href="#font_1_107" transform="matrix(14.347347,0,0,-14.346916,47.672624,120.98844)" fill="#ff333d"/>
<use data-text="3" xlink:href="#font_1_106" transform="matrix(14.347347,0,0,-14.346916,261.99278,120.83743)" fill="#995cd6"/>
<path transform="matrix(1.00008,0,0,-1.00005,158.34748,108.56382)" stroke-width="1.0959" stroke-linecap="butt" stroke-miterlimit="10" stroke-linejoin="miter" fill="none" stroke="#3b3ef7" d="M-3.01617 81.01466C-11.06798 103.13206 11.06798 103.13206 4.69069 85.61447"/>
<path transform="matrix(-.34209738,.9396969,.93972519,.3420871,164.07344,20.10231)" d="M6.35986 0 1.76953 1.73935 3.29916 0 1.76953-1.73935Z" fill="#3b3ef7"/>
<path transform="matrix(-.34209738,.9396969,.93972519,.3420871,164.07344,20.10231)" stroke-width="1.0959" stroke-linecap="butt" stroke-miterlimit="10" stroke-linejoin="miter" fill="none" stroke="#3b3ef7" d="M6.35986 0 1.76953 1.73935 3.29916 0 1.76953-1.73935Z"/>
<use data-text="0" xlink:href="#font_2_121" transform="matrix(8.967117,0,0,-8.966848,156.04329,6.8907396)" fill="#3b3ef7"/>
<path transform="matrix(1.00008,0,0,-1.00005,158.34748,108.56382)" stroke-width="1.0959" stroke-linecap="butt" stroke-miterlimit="10" stroke-linejoin="miter" fill="none" stroke="#ff333d" d="M-114.1321-15.94647C-138.70763-45.23732-150.13849 7.98389-118.80722-3.42238"/>
<path transform="matrix(.93972519,.3421071,.34211738,-.9396969,36.68789,110.95145)" d="M6.35986 0 1.76953 1.73935 3.29916 0 1.76953-1.73935Z" fill="#ff333d"/>
<path transform="matrix(.93972519,.3421071,.34211738,-.9396969,36.68789,110.95145)" stroke-width="1.0959" stroke-linecap="butt" stroke-miterlimit="10" stroke-linejoin="miter" fill="none" stroke="#ff333d" d="M6.35986 0 1.76953 1.73935 3.29916 0 1.76953-1.73935Z"/>
<use data-text="0" xlink:href="#font_2_121" transform="matrix(8.967117,0,0,-8.966848,1.2158966,128.0528)" fill="#ff333d"/>
<use data-text="." xlink:href="#font_2_88" transform="matrix(8.967117,0,0,-8.966848,5.824997,128.0528)" fill="#ff333d"/>
<use data-text="2" xlink:href="#font_2_107" transform="matrix(8.967117,0,0,-8.966848,8.389587,128.0528)" fill="#ff333d"/>
<use data-text="5" xlink:href="#font_2_56" transform="matrix(8.967117,0,0,-8.966848,12.998688,128.0528)" fill="#ff333d"/>
<path transform="matrix(1.00008,0,0,-1.00005,158.34748,108.56382)" stroke-width="1.0959" stroke-linecap="butt" stroke-miterlimit="10" stroke-linejoin="miter" fill="none" stroke="#995cd6" d="M114.20743-10.21344C150.31134-23.35672 138.90399 30.1629 117.3535 4.47374"/>
<path transform="matrix(-.64273139,.76613828,.76616129,.6427121,277.6548,101.77213)" d="M6.35986 0 1.76953 1.73935 3.29916 0 1.76953-1.73935Z" fill="#995cd6"/>
<path transform="matrix(-.64273139,.76613828,.76616129,.6427121,277.6548,101.77213)" stroke-width="1.0959" stroke-linecap="butt" stroke-miterlimit="10" stroke-linejoin="miter" fill="none" stroke="#995cd6" d="M6.35986 0 1.76953 1.73935 3.29916 0 1.76953-1.73935Z"/>
<use data-text="0" xlink:href="#font_2_121" transform="matrix(8.967117,0,0,-8.966848,299.23475,110.0849)" fill="#995cd6"/>
<use data-text="." xlink:href="#font_2_88" transform="matrix(8.967117,0,0,-8.966848,303.84385,110.0849)" fill="#995cd6"/>
<use data-text="2" xlink:href="#font_2_107" transform="matrix(8.967117,0,0,-8.966848,306.40846,110.0849)" fill="#995cd6"/>
<use data-text="5" xlink:href="#font_2_56" transform="matrix(8.967117,0,0,-8.966848,311.01753,110.0849)" fill="#995cd6"/>
<path transform="matrix(1.00008,0,0,-1.00005,158.34748,108.56382)" stroke-width="1.0959" stroke-linecap="butt" stroke-miterlimit="10" stroke-linejoin="miter" fill="none" stroke="#3b3ef7" d="M-7.03596 70.31944C-50.55794 55.79234-74.677 37.97083-98.50279 4.61958"/>
<path transform="matrix(-.5812965,.8137007,.8137251,.58127906,61.59536,101.4824)" d="M6.35986 0 1.76953 1.73935 3.29916 0 1.76953-1.73935Z" fill="#3b3ef7"/>
<path transform="matrix(-.5812965,.8137007,.8137251,.58127906,61.59536,101.4824)" stroke-width="1.0959" stroke-linecap="butt" stroke-miterlimit="10" stroke-linejoin="miter" fill="none" stroke="#3b3ef7" d="M6.35986 0 1.76953 1.73935 3.29916 0 1.76953-1.73935Z"/>
<use data-text="0" xlink:href="#font_2_121" transform="matrix(8.967117,0,0,-8.966848,77.798038,70.78793)" fill="#3b3ef7"/>
<use data-text="." xlink:href="#font_2_88" transform="matrix(8.967117,0,0,-8.966848,82.407138,70.78793)" fill="#3b3ef7"/>
<use data-text="5" xlink:href="#font_2_56" transform="matrix(8.967117,0,0,-8.966848,84.971729,70.78793)" fill="#3b3ef7"/>
<path transform="matrix(1.00008,0,0,-1.00005,158.34748,108.56382)" stroke-width="1.0959" stroke-linecap="butt" stroke-miterlimit="10" stroke-linejoin="miter" fill="none" stroke="#3b3ef7" d="M7.03596 70.31944C50.51604 55.8301 74.58295 38.06635 98.39497 4.76874"/>
<path transform="matrix(.58171656,.8133907,.8134151,-.581699,254.99051,101.33415)" d="M6.35986 0 1.76953 1.73935 3.29916 0 1.76953-1.73935Z" fill="#3b3ef7"/>
<path transform="matrix(.58171656,.8133907,.8134151,-.581699,254.99051,101.33415)" stroke-width="1.0959" stroke-linecap="butt" stroke-miterlimit="10" stroke-linejoin="miter" fill="none" stroke="#3b3ef7" d="M6.35986 0 1.76953 1.73935 3.29916 0 1.76953-1.73935Z"/>
<use data-text="0" xlink:href="#font_2_121" transform="matrix(8.967117,0,0,-8.966848,227.04398,70.71092)" fill="#3b3ef7"/>
<use data-text="." xlink:href="#font_2_88" transform="matrix(8.967117,0,0,-8.966848,231.65308,70.71092)" fill="#3b3ef7"/>
<use data-text="5" xlink:href="#font_2_56" transform="matrix(8.967117,0,0,-8.966848,234.21765,70.71092)" fill="#3b3ef7"/>
<path transform="matrix(1.00008,0,0,-1.00005,158.34748,108.56382)" stroke-width="1.0959" stroke-linecap="butt" stroke-miterlimit="10" stroke-linejoin="miter" fill="none" stroke="#ff333d" d="M-100.13544-7.05577C-53.11708-3.43095-20.55478 20.58281-5.00253 59.88014"/>
<path transform="matrix(.36799944,-.92982646,-.9298544,-.36798839,152.23128,51.49359)" d="M6.35986 0 1.76953 1.73935 3.29916 0 1.76953-1.73935Z" fill="#ff333d"/>
<path transform="matrix(.36799944,-.92982646,-.9298544,-.36798839,152.23128,51.49359)" stroke-width="1.0959" stroke-linecap="butt" stroke-miterlimit="10" stroke-linejoin="miter" fill="none" stroke="#ff333d" d="M6.35986 0 1.76953 1.73935 3.29916 0 1.76953-1.73935Z"/>
<use data-text="0" xlink:href="#font_2_121" transform="matrix(8.967117,0,0,-8.966848,102.28499,87.16075)" fill="#ff333d"/>
<use data-text="." xlink:href="#font_2_88" transform="matrix(8.967117,0,0,-8.966848,106.89409,87.16075)" fill="#ff333d"/>
<use data-text="2" xlink:href="#font_2_107" transform="matrix(8.967117,0,0,-8.966848,109.45868,87.16075)" fill="#ff333d"/>
<use data-text="5" xlink:href="#font_2_56" transform="matrix(8.967117,0,0,-8.966848,114.06778,87.16075)" fill="#ff333d"/>
<path transform="matrix(1.00008,0,0,-1.00005,158.34748,108.56382)" stroke-width="1.0959" stroke-linecap="butt" stroke-miterlimit="10" stroke-linejoin="miter" fill="none" stroke="#995cd6" d="M100.13544-7.05577C53.11708-3.43095 20.55478 20.58281 5.00253 59.88014"/>
<path transform="matrix(-.36799944,-.92982646,-.9298544,.36798839,164.46367,51.49359)" d="M6.35986 0 1.76953 1.73935 3.29916 0 1.76953-1.73935Z" fill="#995cd6"/>
<path transform="matrix(-.36799944,-.92982646,-.9298544,.36798839,164.46367,51.49359)" stroke-width="1.0959" stroke-linecap="butt" stroke-miterlimit="10" stroke-linejoin="miter" fill="none" stroke="#995cd6" d="M6.35986 0 1.76953 1.73935 3.29916 0 1.76953-1.73935Z"/>
<use data-text="0" xlink:href="#font_2_121" transform="matrix(8.967117,0,0,-8.966848,198.01764,87.16075)" fill="#995cd6"/>
<use data-text="." xlink:href="#font_2_88" transform="matrix(8.967117,0,0,-8.966848,202.62674,87.16075)" fill="#995cd6"/>
<use data-text="2" xlink:href="#font_2_107" transform="matrix(8.967117,0,0,-8.966848,205.19135,87.16075)" fill="#995cd6"/>
<use data-text="5" xlink:href="#font_2_56" transform="matrix(8.967117,0,0,-8.966848,209.80045,87.16075)" fill="#995cd6"/>
<path transform="matrix(1.00008,0,0,-1.00005,158.34748,108.56382)" stroke-width="1.0959" stroke-linecap="butt" stroke-miterlimit="10" stroke-linejoin="miter" fill="none" stroke="#ff333d" d="M-100.13544-7.65494H95.24022"/>
<path transform="matrix(1.00008,0,0,-1.00005,250.56986,116.21914)" d="M6.35986 0 1.76953 1.73935 3.29916 0 1.76953-1.73935Z" fill="#ff333d"/>
<path transform="matrix(1.00008,0,0,-1.00005,250.56986,116.21914)" stroke-width="1.0959" stroke-linecap="butt" stroke-miterlimit="10" stroke-linejoin="miter" fill="none" stroke="#ff333d" d="M6.35986 0 1.76953 1.73935 3.29916 0 1.76953-1.73935Z"/>
<use data-text="0" xlink:href="#font_2_121" transform="matrix(8.967117,0,0,-8.966848,152.456,112.153)" fill="#ff333d"/>
<use data-text="." xlink:href="#font_2_88" transform="matrix(8.967117,0,0,-8.966848,157.0651,112.153)" fill="#ff333d"/>
<use data-text="5" xlink:href="#font_2_56" transform="matrix(8.967117,0,0,-8.966848,159.6297,112.153)" fill="#ff333d"/>
<path transform="matrix(1.00008,0,0,-1.00005,158.34748,108.56382)" stroke-width="1.0959" stroke-linecap="butt" stroke-miterlimit="10" stroke-linejoin="miter" fill="none" stroke="#995cd6" d="M101.27492-16.09714C55.89758-80.79962-56.0996-80.71674-98.57552-19.9584"/>
<path transform="matrix(-.5729858,-.81960096,-.81962558,.5729686,61.49746,131.0027)" d="M6.35986 0 1.76953 1.73935 3.29916 0 1.76953-1.73935Z" fill="#995cd6"/>
<path transform="matrix(-.5729858,-.81960096,-.81962558,.5729686,61.49746,131.0027)" stroke-width="1.0959" stroke-linecap="butt" stroke-miterlimit="10" stroke-linejoin="miter" fill="none" stroke="#995cd6" d="M6.35986 0 1.76953 1.73935 3.29916 0 1.76953-1.73935Z"/>
<use data-text="0" xlink:href="#font_2_121" transform="matrix(8.967117,0,0,-8.966848,140.58306,182.48752)" fill="#995cd6"/>
<use data-text="." xlink:href="#font_2_88" transform="matrix(8.967117,0,0,-8.966848,145.19216,182.48752)" fill="#995cd6"/>
<use data-text="5" xlink:href="#font_2_56" transform="matrix(8.967117,0,0,-8.966848,147.75675,182.48752)" fill="#995cd6"/>
</svg>
