<svg xmlns="http://www.w3.org/2000/svg" xmlns:xlink="http://www.w3.org/1999/xlink" xmlns:inkscape="http://www.inkscape.org/namespaces/inkscape" version="1.1" width="209" height="95" viewBox="0 0 209 95">
<defs>
<path id="font_1_4" d="M.015991211 .099243167C.01399231 .09625244 .010986328 .09324646 .010986328 .08924866 .010986328 .08425903 .016998291 .07624817 .022994996 .07624817 .027999878 .07624817 .0309906 .07925415 .05899048 .10723877 .066986087 .11424255 .08699036 .13323975 .09498596 .14123535 .10499573 .06225586 .13398743-.01171875 .20698548-.01171875 .24699402-.01171875 .28199769 .011276245 .30299378 .026275635 .31698609 .03627014 .3639984 .07525635 .3639984 .085250858 .3639984 .088256839 .36099244 .09724426 .35198976 .09724426 .34899903 .09724426 .34799195 .09625244 .33898927 .088256839 .2749939 .025268555 .23799134 .010269165 .20899964 .010269165 .1639862 .010269165 .147995 .06225586 .147995 .14022827 .147995 .14624024 .1499939 .19221497 .15299988 .19721985 .15499878 .20021057 .15499878 .20220948 .1749878 .22221375 .2559967 .30319215 .397995 .47213746 .397995 .62709048 .397995 .64408877 .397995 .7050781 .33898927 .7050781 .2559967 .7050781 .18199158 .54011538 .17199707 .51712039 .12399292 .40815736 .09298706 .29118348 .09298706 .17222595L.015991211 .099243167M.1579895 .23921204C.1599884 .25019837 .20298767 .47213746 .2599945 .58909609 .2869873 .64308169 .30799867 .68307498 .33999635 .68307498 .37399293 .68307498 .37399293 .64707949 .37399293 .63108828 .37399293 .46414186 .20599365 .28918458 .1579895 .23921204Z"/>
<path id="font_1_1" d="M.1789856 .114868167C.13899231 .047973634 .099990848 .033981325 .055999757 .0309906 .04399109 .02999878 .034988405 .02999878 .034988405 .010986328 .034988405 .004989624 .039993287 0 .04798889 0 .07499695 0 .10598755 .0029907227 .13398743 .0029907227 .16699219 .0029907227 .20199585 0 .23399353 0 .23999024 0 .25299073 0 .25299073 .018997193 .25299073 .02999878 .24398804 .0309906 .23699951 .0309906 .21398926 .032989503 .18998719 .04096985 .18998719 .06593323 .18998719 .077926639 .19599915 .088897708 .20399475 .102890018L.27999879 .23068238H.5309906C.5329895 .2097168 .5469971 .07392883 .5469971 .063949588 .5469971 .033981325 .49499513 .0309906 .47499085 .0309906 .46099855 .0309906 .45098878 .0309906 .45098878 .010986328 .45098878 0 .46299745 0 .46499635 0 .5059967 0 .548996 .0029907227 .58999636 .0029907227 .61499026 .0029907227 .6779938 0 .7029877 0 .70899966 0 .72099307 0 .72099307 .019989014 .72099307 .0309906 .71099856 .0309906 .69799807 .0309906 .6359863 .0309906 .6359863 .037979127 .6329956 .06694031L.57199099 .691803C.56999209 .71180728 .56999209 .7158203 .5529938 .7158203 .5369873 .7158203 .5329895 .7088165 .5269928 .69880679L.1789856 .114868167M.29899598 .26168824 .49598695 .5917816 .5279999 .26168824H.29899598Z"/>
<path id="font_1_3" d="M.43798829 .0055236818C.59298709 .0644989 .73999026 .24256897 .73999026 .43579103 .73999026 .5969696 .6339874 .7050781 .4850006 .7050781 .2689972 .7050781 .04899597 .47784425 .04899597 .24456787 .04899597 .07847595 .16099549-.022460938 .30499269-.022460938 .32998658-.022460938 .3639984-.018463135 .40299989-.007461548 .39898683-.06939697 .39898683-.071380618 .39898683-.084365848 .39898683-.11634827 .39898683-.19433594 .48199464-.19433594 .6009979-.19433594 .6489868-.011474609 .6489868-.00047302247 .6489868 .0065307619 .6419983 .009521484 .6380005 .009521484 .6299896 .009521484 .6279907 .0045318605 .6259918-.0014648438 .60198977-.072387699 .5439911-.097335819 .5089874-.097335819 .46299745-.097335819 .44799806-.070388797 .43798829 .0055236818M.24899292 .013519287C.17098999 .044509889 .13699341 .12245178 .13699341 .21252442 .13699341 .2816162 .16299439 .4237671 .23899842 .5319061 .31199647 .63401797 .4059906 .68006899 .47898866 .68006899 .57899478 .68006899 .6519928 .6019745 .6519928 .4678192 .6519928 .3677063 .6009979 .13345337 .43299867 .039505006 .42799378 .07447815 .41799928 .14746094 .34498597 .14746094 .2919922 .14746094 .24299622 .097473148 .24299622 .04550171 .24299622 .025512696 .24899292 .014526367 .24899292 .013519287M.31098939 .002532959C.29699708 .002532959 .2649994 .002532959 .2649994 .04550171 .2649994 .08547974 .30299378 .12545777 .34498597 .12545777 .3869934 .12545777 .4059906 .10147095 .4059906 .040512086 .4059906 .025512696 .40499879 .024520874 .394989 .020523072 .36898805 .009521484 .33898927 .002532959 .31098939 .002532959Z"/>
<path id="font_1_2" d="M.30299378 .3157959H.47299195C.61499026 .3157959 .7539978 .41973878 .7539978 .53167727 .7539978 .6086273 .6879883 .6826172 .5569916 .6826172H.23298645C.21398926 .6826172 .20298767 .6826172 .20298767 .66360476 .20298767 .6516113 .21199036 .6516113 .23199463 .6516113 .24499512 .6516113 .2630005 .65060427 .2749939 .6496124 .29100038 .6476135 .29699708 .64460757 .29699708 .6336212 .29699708 .6296234 .29599 .62661746 .29299928 .614624L.15899658 .07795715C.14898682 .038986207 .14698792 .0309906 .067993167 .0309906 .050994874 .0309906 .039993287 .0309906 .039993287 .011993408 .039993287 0 .051986696 0 .054992677 0 .08299255 0 .1539917 .0029907227 .18199158 .0029907227 .20298767 .0029907227 .22499085 .0019989014 .24598694 .0019989014 .2679901 .0019989014 .2899933 0 .31098939 0 .31799317 0 .33099366 0 .33099366 .019989014 .33099366 .0309906 .32199098 .0309906 .30299378 .0309906 .2659912 .0309906 .23799134 .0309906 .23799134 .048980714 .23799134 .054977418 .23999024 .05996704 .24099732 .065963748L.30299378 .3157959M.375 .6136322C.38398744 .64860537 .38598634 .6516113 .42900086 .6516113H.5249939C.60798647 .6516113 .6609955 .62461856 .6609955 .55566409 .6609955 .5166931 .6409912 .43074037 .60198977 .39476014 .5519867 .34977723 .49198915 .34179688 .44799806 .34179688H.30699159L.375 .6136322Z"/>
<path id="font_2_2" d="M.5059967 .37631227C.5119934 .39031983 .5159912 .3973236 .5799866 .3973236V.44433595C.5549927 .44232179 .526001 .44132997 .5009918 .44132997 .47599793 .44132997 .43099977 .44332887 .4099884 .44433595V.3973236C.42900086 .3973236 .45799256 .3943329 .45799256 .38632203 .45799256 .3853302 .45700074 .38331605 .45298768 .37431336L.33699037 .12416077 .20999146 .3973236H.2639923V.44433595C.23098755 .44232179 .14099121 .44132997 .13999939 .44132997 .11199951 .44132997 .066986087 .44332887 .025985718 .44433595V.3973236H.08999634L.2649994 .021087647C.2769928-.00390625 .2899933-.00390625 .30299378-.00390625 .31999208-.00390625 .32998658-.00091552737 .33999635 .020080567L.5059967 .37631227Z"/>
<path id="font_2_1" d="M.11399841 .3561554V.04699707H.04499817V0C.07299805 .0009918213 .1329956 .0029907227 .17098999 .0029907227 .20999146 .0029907227 .2689972 .0009918213 .29699708 0V.04699707H.22799683V.25610353C.22799683 .36515809 .31399537 .41418458 .3769989 .41418458 .41099549 .41418458 .43199159 .39317323 .43199159 .31713868V.04699707H.36299134V0C.3909912 .0009918213 .45098878 .0029907227 .4889984 .0029907227 .5279999 .0029907227 .58699038 .0009918213 .61499026 0V.04699707H.54599V.30613709C.54599 .41119386 .49198915 .4501953 .3919983 .4501953 .29599 .4501953 .24299622 .39317323 .21699524 .34214784V.4501953L.04499817 .44218446V.39518739C.10699463 .39518739 .11399841 .39518739 .11399841 .3561554Z"/>
<path id="font_3_5" d="M.17199707 .37635804V.4423828L.027999878 .43138124V.40037538C.09899902 .40037538 .10598755 .3943634 .10598755 .35035707V-.11816406C.10598755-.16334534 .09498596-.16334534 .027999878-.16334534V-.19433594C.06199646-.19334412 .11399841-.19134522 .13999939-.19134522 .16699219-.19134522 .21798706-.19334412 .25299073-.19433594V-.16334534C.18598938-.16334534 .1749878-.16334534 .1749878-.11816406V.05026245 .059265138C.17999268 .043258668 .22200012-.0107421879 .2979889-.0107421879 .4169922-.0107421879 .5209961 .08728027 .5209961 .2163086 .5209961 .34335328 .42399598 .4423828 .31199647 .4423828 .23399353 .4423828 .19198609 .39837647 .17199707 .37635804M.1749878 .11428833V.33735658C.20399475 .3883667 .25299073 .41737367 .3039856 .41737367 .3769989 .41737367 .43798829 .3293457 .43798829 .2163086 .43798829 .09527588 .36799623 .011245728 .2939911 .011245728 .2539978 .011245728 .21598816 .03125 .18899536 .072265628 .1749878 .09327698 .1749878 .0942688 .1749878 .11428833Z"/>
<path id="font_3_6" d="M.16699219 .3323059V.4423828L.027999878 .43138124V.40037538C.09799194 .40037538 .10598755 .39337159 .10598755 .34431459V.076034549C.10598755 .0309906 .09498596 .0309906 .027999878 .0309906V0C.066986087 .0009918213 .11399841 .0029907227 .14199829 .0029907227 .18199158 .0029907227 .22898865 .0029907227 .2689972 0V.0309906H.24798584C.17399597 .0309906 .17199707 .042007448 .17199707 .07803345V.232193C.17199707 .33128358 .21398926 .42037965 .2899933 .42037965 .29699708 .42037965 .29899598 .42037965 .30099488 .41937257 .2979889 .41838075 .27799989 .4063568 .27799989 .38034059 .27799989 .35231019 .29899598 .33729554 .32099916 .33729554 .33898927 .33729554 .3639984 .3493042 .3639984 .3813324 .3639984 .41337586 .33299256 .4423828 .2899933 .4423828 .21699524 .4423828 .18099976 .37535096 .16699219 .3323059Z"/>
<path id="font_3_4" d="M.47099305 .21424866C.47099305 .34223939 .37098695 .4482422 .25 .4482422 .125 .4482422 .027999878 .3392334 .027999878 .21424866 .027999878 .085250858 .13198853-.0107421879 .24899292-.0107421879 .36999513-.0107421879 .47099305 .087249759 .47099305 .21424866M.25 .014251709C.20698548 .014251709 .16299439 .035247804 .13598633 .08125305 .11099243 .12524414 .11099243 .18624878 .11099243 .22224427 .11099243 .26124574 .11099243 .31523133 .1349945 .35923768 .1619873 .40522767 .20899964 .426239 .24899292 .426239 .29299928 .426239 .33599855 .40423585 .3619995 .36123658 .3880005 .3182373 .3880005 .26023866 .3880005 .22224427 .3880005 .18624878 .3880005 .13224793 .3659973 .08824158 .34399415 .04324341 .2999878 .014251709 .25 .014251709Z"/>
<path id="font_3_3" d="M.20999146 .4423828 .057998659 .43138124V.40037538C.1349945 .40037538 .14399719 .39337159 .14399719 .34432984V-.051971437C.14399719-.09700012 .1349945-.18309021 .070999149-.18309021 .06599426-.18309021 .042999269-.18309021 .016998291-.17001343 .03199768-.16600037 .051986696-.1519928 .051986696-.125 .051986696-.09899902 .033996583-.07899475 .005996704-.07899475-.022003174-.07899475-.040008546-.09899902-.040008546-.125-.040008546-.17704773 .015991211-.20507813 .07299805-.20507813 .147995-.20507813 .20999146-.14100647 .20999146-.049972536V.4423828M.20999146 .6159363C.20999146 .64494326 .18598938 .6689453 .15699768 .6689453 .12799073 .6689453 .10398865 .64494326 .10398865 .6159363 .10398865 .5869446 .12799073 .5629425 .15699768 .5629425 .18598938 .5629425 .20999146 .5869446 .20999146 .6159363Z"/>
<path id="font_4_1" d="M.6119995 .3011322C.6119995 .42419435 .5329895 .4501953 .44099427 .4501953 .31999208 .4501953 .2639923 .37817384 .24499512 .34614564V.4501953L.06399536 .44218446V.38616944C.12298584 .38616944 .1309967 .38616944 .1309967 .3471527V.055999757H.06399536V0C.06498718 0 .1459961 .0039978029 .19400025 .0039978029 .24299622 .0039978029 .32398988 0 .32499696 0V.055999757H.2579956V.24909973C.2579956 .36515809 .3619995 .40419007 .42199708 .40419007 .46598817 .40419007 .4850006 .3811798 .4850006 .3091278V.055999757H.41799928V0C.4189911 0 .5 .0039978029 .5479889 .0039978029 .5970001 .0039978029 .6779938 0 .67900088 0V.055999757H.6119995V.3011322Z"/>
<path id="font_3_1" d="M.33099366-.2400055C.33099366-.23701477 .33099366-.23500061 .31399537-.21800232 .18899536-.0920105 .15699768 .09700012 .15699768 .25 .15699768 .42399598 .19499207 .59799197 .31799317 .72299197 .33099366 .73498538 .33099366 .7369995 .33099366 .73999026 .33099366 .746994 .32699586 .75 .32099916 .75 .31098939 .75 .22099304 .6819916 .1619873 .5549927 .11099243 .44499208 .09899902 .33399964 .09899902 .25 .09899902 .17199707 .10998535 .050994874 .16499329-.06201172 .22499085-.18501282 .31098939-.25 .32099916-.25 .32699586-.25 .33099366-.24700928 .33099366-.2400055Z"/>
<path id="font_3_2" d="M.2889862 .25C.2889862 .32798768 .27799989 .44898988 .22299195 .56199648 .16299439 .68499758 .07699585 .75 .066986087 .75 .06098938 .75 .056991579 .74598696 .056991579 .73999026 .056991579 .7369995 .056991579 .73498538 .07598877 .71699526 .17399597 .6179962 .23098755 .45899964 .23098755 .25 .23098755 .07899475 .19400025-.09700012 .069992069-.2230072 .056991579-.23500061 .056991579-.23701477 .056991579-.2400055 .056991579-.2460022 .06098938-.25 .066986087-.25 .07699585-.25 .16699219-.18200684 .22599793-.055007936 .2769928 .054992677 .2889862 .16600037 .2889862 .25Z"/>
</defs>
<path transform="matrix(1.00003,0,0,-1.00005,57.99022,82.11851)" stroke-width=".79701" stroke-linecap="butt" stroke-miterlimit="10" stroke-linejoin="miter" fill="none" stroke="#000000" d="M-56.69362 0H141.73404"/>
<use data-text="&#x2113;" xlink:href="#font_1_4" transform="matrix(9.962899,0,0,-9.963098,203.44759,85.57768)"/>
<path transform="matrix(1.00003,0,0,-1.00005,57.99022,82.11851)" d="M1.99255 0C1.99255 1.10046 1.10046 1.99255 0 1.99255-1.10046 1.99255-1.99255 1.10046-1.99255 0-1.99255-1.10046-1.10046-1.99255 0-1.99255 1.10046-1.99255 1.99255-1.10046 1.99255 0ZM0 0"/>
<use data-text="A" xlink:href="#font_1_1" transform="matrix(9.962899,0,0,-9.963098,46.997888,92.44702)"/>
<path transform="matrix(1.00003,0,0,-1.00005,57.99022,82.11851)" d="M87.03297 0C87.03297 1.10046 86.1409 1.99255 85.04042 1.99255 83.93996 1.99255 83.04787 1.10046 83.04787 0 83.04787-1.10046 83.93996-1.99255 85.04042-1.99255 86.1409-1.99255 87.03297-1.10046 87.03297 0ZM85.04042 0"/>
<use data-text="Q" xlink:href="#font_1_3" transform="matrix(9.962899,0,0,-9.963098,139.09465,92.44702)"/>
<path transform="matrix(1.00003,0,0,-1.00005,57.99022,82.11851)" d="M87.03297 70.867C87.03297 71.96748 86.1409 72.85956 85.04042 72.85956 83.93996 72.85956 83.04787 71.96748 83.04787 70.867 83.04787 69.76654 83.93996 68.87445 85.04042 68.87445 86.1409 68.87445 87.03297 69.76654 87.03297 70.867ZM85.04042 70.867"/>
<use data-text="P" xlink:href="#font_1_2" transform="matrix(9.962899,0,0,-9.963098,146.55289,7.727791)"/>
<path transform="matrix(1.00003,0,0,-1.00005,57.99022,82.11851)" stroke-width="1.59404" stroke-linecap="butt" stroke-miterlimit="10" stroke-linejoin="miter" fill="none" stroke="#ec008c" d="M0 0 83.8159 69.84657"/>
<path transform="matrix(.7682131,-.64018198,-.64016929,-.7682284,142.42092,11.758194)" stroke-width="1.59404" stroke-linecap="round" stroke-linejoin="round" fill="none" stroke="#ec008c" d="M-3.5069 4.55072C-2.8662 1.82025-1.43846 .5309 0 0-1.43846-.5309-2.8662-1.82025-3.5069-4.55072"/>
<use data-text="v" xlink:href="#font_2_2" transform="matrix(9.962899,0,0,-9.963098,90.18819,48.896848)" fill="#ec008c"/>
<path transform="matrix(1.00003,0,0,-1.00005,57.99022,82.11851)" stroke-width="1.59404" stroke-linecap="butt" stroke-miterlimit="10" stroke-linejoin="miter" fill="none" stroke="#000000" d="M0 0V26.75275"/>
<path transform="matrix(0,-1.00005,-1.00003,-0,57.99022,54.56736)" stroke-width="1.59404" stroke-linecap="round" stroke-linejoin="round" fill="none" stroke="#000000" d="M-3.5069 4.55072C-2.8662 1.82025-1.43846 .5309 0 0-1.43846-.5309-2.8662-1.82025-3.5069-4.55072"/>
<use data-text="n" xlink:href="#font_2_1" transform="matrix(9.962899,0,0,-9.963098,47.506906,70.15891)"/>
<path transform="matrix(1.00003,0,0,-1.00005,57.99022,82.11851)" stroke-width="1.59404" stroke-linecap="butt" stroke-miterlimit="10" stroke-linejoin="miter" fill="none" stroke="#ec008c" d="M0 0V69.27296"/>
<path transform="matrix(0,-1.00005,-1.00003,-0,57.99022,12.045013)" stroke-width="1.59404" stroke-linecap="round" stroke-linejoin="round" fill="none" stroke="#ec008c" d="M-3.5069 4.55072C-2.8662 1.82025-1.43846 .5309 0 0-1.43846-.5309-2.8662-1.82025-3.5069-4.55072"/>
<use data-text="p" xlink:href="#font_3_5" transform="matrix(9.962899,0,0,-9.963098,16.392968,13.73909)" fill="#ec008c"/>
<use data-text="r" xlink:href="#font_3_6" transform="matrix(9.962899,0,0,-9.963098,21.922356,13.73909)" fill="#ec008c"/>
<use data-text="o" xlink:href="#font_3_4" transform="matrix(9.962899,0,0,-9.963098,25.817849,13.73909)" fill="#ec008c"/>
<use data-text="j" xlink:href="#font_3_3" transform="matrix(9.962899,0,0,-9.963098,31.347252,13.73909)" fill="#ec008c"/>
<use data-text="n" xlink:href="#font_4_1" transform="matrix(6.9740097,0,0,-6.9741489,34.409509,16.17421)" fill="#ec008c"/>
<use data-text="(" xlink:href="#font_3_1" transform="matrix(9.962899,0,0,-9.963098,39.91668,13.73909)" fill="#ec008c"/>
<use data-text="v" xlink:href="#font_2_2" transform="matrix(9.962899,0,0,-9.963098,43.790796,13.73909)" fill="#ec008c"/>
<use data-text=")" xlink:href="#font_3_2" transform="matrix(9.962899,0,0,-9.963098,49.99697,13.73909)" fill="#ec008c"/>
<path transform="matrix(1.00003,0,0,-1.00005,57.99022,82.11851)" stroke-width=".3985" stroke-linecap="butt" stroke-miterlimit="10" stroke-linejoin="miter" fill="none" stroke="#000000" d="M85.04042 0V8.50412H76.53629V0"/>
<path transform="matrix(1.00003,0,0,-1.00005,57.99022,82.11851)" stroke-width=".3985" stroke-linecap="butt" stroke-miterlimit="10" stroke-linejoin="miter" fill="none" stroke="#000000" d="M8.50412 70.867V62.36288H0"/>
<path transform="matrix(1.00003,0,0,-1.00005,57.99022,82.11851)" stroke-width=".3985" stroke-linecap="butt" stroke-dasharray="2.98883,2.98883" stroke-miterlimit="10" stroke-linejoin="miter" fill="none" stroke="#000000" d="M85.04042 0V70.867"/>
<path transform="matrix(1.00003,0,0,-1.00005,57.99022,82.11851)" stroke-width=".3985" stroke-linecap="butt" stroke-dasharray="2.98883,2.98883" stroke-miterlimit="10" stroke-linejoin="miter" fill="none" stroke="#000000" d="M0 70.867H85.04042"/>
</svg>
