<svg xmlns="http://www.w3.org/2000/svg" xmlns:xlink="http://www.w3.org/1999/xlink" xmlns:inkscape="http://www.inkscape.org/namespaces/inkscape" version="1.1" width="78" height="129" viewBox="0 0 78 129">
<g>
<path transform="matrix(1.00003,0,0,-1.00002,38.8739,67.66503)" d="M36.82368 26.19363V-47.45372L-36.82368-26.19363V47.45372Z" fill="#ccffcc" fill-opacity=".5"/>
<path transform="matrix(1.00003,0,0,-1.00002,38.8739,67.66503)" stroke-width=".3985" stroke-linecap="butt" stroke-miterlimit="10" stroke-linejoin="miter" fill="none" stroke="#000000" stroke-opacity=".5" d="M36.82368 26.19363V-47.45372L-36.82368-26.19363V47.45372Z"/>
</g>
<g>
<path transform="matrix(1.00003,0,0,-1.00002,38.8739,67.66503)" d="M36.82368 26.19363V-47.45372L-26.19363-16.98772V56.65964Z" fill="#ccccff" fill-opacity=".5"/>
<path transform="matrix(1.00003,0,0,-1.00002,38.8739,67.66503)" stroke-width=".3985" stroke-linecap="butt" stroke-miterlimit="10" stroke-linejoin="miter" fill="none" stroke="#000000" stroke-opacity=".5" d="M36.82368 26.19363V-47.45372L-26.19363-16.98772V56.65964Z"/>
</g>
<g>
<path transform="matrix(1.00003,0,0,-1.00002,38.8739,67.66503)" d="M36.82368 26.19363V-47.45372L-15.56358-7.7818V65.86555Z" fill="#ffcccc" fill-opacity=".5"/>
<path transform="matrix(1.00003,0,0,-1.00002,38.8739,67.66503)" stroke-width=".3985" stroke-linecap="butt" stroke-miterlimit="10" stroke-linejoin="miter" fill="none" stroke="#000000" stroke-opacity=".5" d="M36.82368 26.19363V-47.45372L-15.56358-7.7818V65.86555Z"/>
</g>
<path transform="matrix(1.00003,0,0,-1.00002,38.8739,67.66503)" stroke-width="1.19553" stroke-linecap="butt" stroke-miterlimit="10" stroke-linejoin="miter" fill="none" stroke="#000000" d="M36.82368-59.72827V38.4682"/>
</svg>
