<svg xmlns="http://www.w3.org/2000/svg" xmlns:xlink="http://www.w3.org/1999/xlink" xmlns:inkscape="http://www.inkscape.org/namespaces/inkscape" version="1.1" width="112" height="97" viewBox="0 0 112 97">
<defs>
<path id="font_1_1" d="M.37399293 .077056888C.37399293 .04598999 .37399293 0 .47799684 0H.526001C.54599 0 .55799868 0 .55799868 .023986817 .55799868 .04699707 .54499819 .04699707 .5319977 .04699707 .47099305 .04798889 .47099305 .061019899 .47099305 .08406067V.2993164C.47099305 .38816834 .3999939 .453125 .25099183 .453125 .19400025 .453125 .07199097 .44911195 .07199097 .36120606 .07199097 .317276 .10699463 .29830934 .13398743 .29830934 .16499329 .29830934 .19699097 .3192749 .19699097 .36120606 .19699097 .39115907 .17799378 .40812684 .1749878 .41012574 .20298767 .41612245 .23498535 .41711427 .24699402 .41711427 .32199098 .41711427 .35699464 .3751831 .35699464 .2993164V.2653656C.28599549 .26237489 .03199768 .2533722 .03199768 .10821533 .03199768 .012130737 .1559906-.005859375 .22499085-.005859375 .30499269-.006011963 .35198976 .034988405 .37399293 .077056888M.35699464 .234375V.13917542C.35699464 .042999269 .2649994 .02999878 .23999024 .02999878 .18899536 .02999878 .14898682 .06503296 .14898682 .1091156 .14898682 .21733094 .30699159 .23135376 .35699464 .234375Z"/>
<path id="font_1_2" d="M.21398926 .40118409V.69433596L.036987306 .6863251V.639328C.09899902 .639328 .10598755 .639328 .10598755 .600296V0H.15299988L.20199585 .056015016C.20999146 .04814148 .25898744-.005859375 .34799195-.005859375 .49699403-.005859375 .59999087 .08413696 .59999087 .22315979 .59999087 .35617066 .5059967 .4501953 .36099244 .4501953 .28799439 .4501953 .23799134 .42118836 .21398926 .40118409M.21998596 .09902954V.3501587C.24699402 .3851776 .29499818 .41418458 .34999085 .41418458 .47200013 .41418458 .47200013 .29312135 .47200013 .22309876 .47200013 .17607117 .47200013 .12104797 .44599916 .08201599 .4169922 .041000368 .37098695 .02999878 .33898927 .02999878 .2689972 .02999878 .22999573 .08403015 .21998596 .09902954Z"/>
<path id="font_2_1" d="M.40899659 .23046875H.6879883C.70199587 .23046875 .72099307 .23046875 .72099307 .25045777 .72099307 .27046205 .70199587 .27046205 .6879883 .27046205H.40899659V.5500183C.40899659 .56399539 .40899659 .5830078 .3889923 .5830078 .36898805 .5830078 .36898805 .56399539 .36898805 .5500183V.27046205H.08898926C.07499695 .27046205 .055999757 .27046205 .055999757 .25045777 .055999757 .23046875 .07499695 .23046875 .08898926 .23046875H.36898805V-.05000305C.36898805-.06401062 .36898805-.08300781 .3889923-.08300781 .40899659-.08300781 .40899659-.06401062 .40899659-.05000305V.23046875Z"/>
<path id="font_2_2" d="M.68699648 .32714845C.70199587 .32714845 .72099307 .32714845 .72099307 .34713746 .72099307 .36714173 .70199587 .36714173 .6879883 .36714173H.08898926C.07499695 .36714173 .055999757 .36714173 .055999757 .34713746 .055999757 .32714845 .07499695 .32714845 .08999634 .32714845H.68699648M.6879883 .13284302C.70199587 .13284302 .72099307 .13284302 .72099307 .15284729 .72099307 .17285156 .70199587 .17285156 .68699648 .17285156H.08999634C.07499695 .17285156 .055999757 .17285156 .055999757 .15284729 .055999757 .13284302 .07499695 .13284302 .08898926 .13284302H.6879883Z"/>
</defs>
<path transform="matrix(1.00005,0,0,-1.00005,3.5904237,94.50197)" stroke-width=".59776" stroke-linecap="butt" stroke-miterlimit="10" stroke-linejoin="miter" fill="none" stroke="#000000" d="M0 0 89.55304 14.9255"/>
<path transform="matrix(.9863893,-.16438821,-.16438821,-.9863893,93.44275,79.5266)" stroke-width=".59776" stroke-linecap="round" stroke-linejoin="round" fill="none" stroke="#000000" d="M-2.31136 2.751C-1.88908 1.10037-.94807 .32094 0 0-.94807-.32094-1.88908-1.10037-2.31136-2.751"/>
<path transform="matrix(1.00005,0,0,-1.00005,3.5904237,94.50197)" stroke-width=".3985" stroke-linecap="butt" stroke-miterlimit="10" stroke-linejoin="miter" fill="none" stroke="#000000" d="M45.0713 7.51187"/>
<use data-text="a" xlink:href="#font_1_1" transform="matrix(9.963098,0,0,-9.963098,45.879537,94.93799)"/>
<path transform="matrix(1.00005,0,0,-1.00005,3.5904237,94.50197)" stroke-width=".59776" stroke-linecap="butt" stroke-miterlimit="10" stroke-linejoin="miter" fill="none" stroke="#000000" d="M90.14264 15.02376 104.74864 88.05403"/>
<path transform="matrix(.19610979,-.980579,-.980579,-.19610979,108.40291,6.150482)" stroke-width=".59776" stroke-linecap="round" stroke-linejoin="round" fill="none" stroke="#000000" d="M-2.31136 2.751C-1.88908 1.10037-.94807 .32094 0 0-.94807-.32094-1.88908-1.10037-2.31136-2.751"/>
<path transform="matrix(1.00005,0,0,-1.00005,3.5904237,94.50197)" stroke-width=".3985" stroke-linecap="butt" stroke-miterlimit="10" stroke-linejoin="miter" fill="none" stroke="#000000" d="M97.65453 52.58319"/>
<use data-text="b" xlink:href="#font_1_2" transform="matrix(9.963098,0,0,-9.963098,104.76948,45.375516)"/>
<path transform="matrix(1.00005,0,0,-1.00005,3.5904237,94.50197)" stroke-width=".59776" stroke-linecap="butt" stroke-miterlimit="10" stroke-linejoin="miter" fill="none" stroke="#000000" d="M0 0 14.90654 74.53273"/>
<path transform="matrix(.19610979,-.980599,-.980599,-.19610979,18.556302,19.67244)" stroke-width=".59776" stroke-linecap="round" stroke-linejoin="round" fill="none" stroke="#000000" d="M-2.31136 2.751C-1.88908 1.10037-.94807 .32094 0 0-.94807-.32094-1.88908-1.10037-2.31136-2.751"/>
<path transform="matrix(1.00005,0,0,-1.00005,3.5904237,94.50197)" stroke-width=".3985" stroke-linecap="butt" stroke-miterlimit="10" stroke-linejoin="miter" fill="none" stroke="#000000" d="M7.51187 37.55942"/>
<use data-text="b" xlink:href="#font_1_2" transform="matrix(9.963098,0,0,-9.963098,1.217308,60.40027)"/>
<path transform="matrix(1.00005,0,0,-1.00005,3.5904237,94.50197)" stroke-width=".59776" stroke-linecap="butt" stroke-miterlimit="10" stroke-linejoin="miter" fill="none" stroke="#000000" d="M15.02376 75.11885 104.57681 90.04439"/>
<path transform="matrix(.9863893,-.16438821,-.16438821,-.9863893,108.46728,4.403969)" stroke-width=".59776" stroke-linecap="round" stroke-linejoin="round" fill="none" stroke="#000000" d="M-2.31136 2.751C-1.88908 1.10037-.94807 .32094 0 0-.94807-.32094-1.88908-1.10037-2.31136-2.751"/>
<path transform="matrix(1.00005,0,0,-1.00005,3.5904237,94.50197)" stroke-width=".3985" stroke-linecap="butt" stroke-miterlimit="10" stroke-linejoin="miter" fill="none" stroke="#000000" d="M60.0951 82.63074"/>
<use data-text="a" xlink:href="#font_1_1" transform="matrix(9.963098,0,0,-9.963098,60.903287,8.346664)"/>
<path transform="matrix(1.00005,0,0,-1.00005,3.5904237,94.50197)" stroke-width=".59776" stroke-linecap="butt" stroke-miterlimit="10" stroke-linejoin="miter" fill="none" stroke="#000000" d="M0 0 103.20963 88.25171"/>
<path transform="matrix(.76003798,-.6498725,-.6498725,-.76003798,107.03236,6.051613)" stroke-width=".59776" stroke-linecap="round" stroke-linejoin="round" fill="none" stroke="#000000" d="M-2.31136 2.751C-1.88908 1.10037-.94807 .32094 0 0-.94807-.32094-1.88908-1.10037-2.31136-2.751"/>
<path transform="matrix(1.00005,0,0,-1.00005,3.5904237,94.50197)" stroke-width=".3985" stroke-linecap="butt" stroke-miterlimit="10" stroke-linejoin="miter" fill="none" stroke="#000000" d="M52.58319 45.0713"/>
<use data-text="a" xlink:href="#font_1_1" transform="matrix(9.963098,0,0,-9.963098,27.126599,52.47287)"/>
<use data-text="+" xlink:href="#font_2_1" transform="matrix(9.963098,0,0,-9.963098,34.909986,52.47287)"/>
<use data-text="b" xlink:href="#font_1_2" transform="matrix(9.963098,0,0,-9.963098,44.873479,52.47287)"/>
<path transform="matrix(1.00005,0,0,-1.00005,3.5904237,94.50197)" stroke-width=".3985" stroke-linecap="butt" stroke-miterlimit="10" stroke-linejoin="miter" fill="none" stroke="#000000" d="M52.58319 45.0713"/>
<use data-text="=" xlink:href="#font_2_2" transform="matrix(9.963098,0,0,-9.963098,59.696229,52.47287)"/>
<use data-text="b" xlink:href="#font_1_2" transform="matrix(9.963098,0,0,-9.963098,70.21275,52.47287)"/>
<use data-text="+" xlink:href="#font_2_1" transform="matrix(9.963098,0,0,-9.963098,78.79218,52.47287)"/>
<use data-text="a" xlink:href="#font_1_1" transform="matrix(9.963098,0,0,-9.963098,88.75568,52.47287)"/>
</svg>
