<svg xmlns="http://www.w3.org/2000/svg" xmlns:xlink="http://www.w3.org/1999/xlink" xmlns:inkscape="http://www.inkscape.org/namespaces/inkscape" version="1.1" width="362" height="191" viewBox="0 0 362 191">
<defs>
<path id="font_1_2" d="M.34799195 .6826172C.20698548 .6826172 .099990848 .614624 .05899048 .5676422 .023986817 .5276642 .020996094 .4986725 .020996094 .49667359 .020996094 .49067689 .024993897 .48867799 .0309906 .48867799 .04699707 .48867799 .069992069 .5026703 .07798767 .5076599 .09899902 .5216675 .101989749 .5276642 .10798645 .5466461 .12199402 .58662417 .1499939 .62161257 .27598573 .62760928 .2579956 .40270997 .19799805 .18382263 .11399841-.02482605 .10798645-.03981018 .10798645-.041809083 .10798645-.042816163 .10798645-.045806886 .11099243-.049804689 .117996219-.049804689 .13398743-.049804689 .18199158-.027816773 .19299317-.0018615723 .24499512 .11993408 .32699586 .3497467 .35699464 .62760928H.40899659C.5309906 .62760928 .647995 .58062747 .647995 .48068238 .647995 .40571595 .57598879 .2657776 .38198854 .25978089 .36099244 .25878907 .34999085 .25878907 .32199098 .24078369 .3039856 .22877503 .29599 .2177887 .29599 .21177674 .29599 .20478821 .3019867 .20478821 .31498719 .20478821 .49699403 .20478821 .73298647 .35873414 .73298647 .5236664 .73298647 .63760378 .59799197 .6826172 .48199464 .6826172H.34799195Z"/>
<path id="font_2_3" d="M.4850006 .41075135 .40098573 .6096344C.397995 .61763 .3959961 .6216278 .3959961 .6226196 .3959961 .62861636 .41299439 .6476135 .45498658 .6516113 .46499635 .65260317 .47499085 .6536102 .47499085 .6706085 .47499085 .6826172 .46299745 .6826172 .45999146 .6826172 .4189911 .6826172 .37599183 .6796112 .33399964 .6796112 .30899049 .6796112 .24699402 .6826172 .22200012 .6826172 .21598816 .6826172 .20399475 .6826172 .20399475 .6626129 .20399475 .6516113 .21398926 .6516113 .22698975 .6516113 .2869873 .6516113 .29299928 .6416168 .3019867 .6196289L.41999818 .34080506 .20899964 .11393738 .19599915 .10295105C.14698792 .049987794 .099990848 .033996583 .04899597 .0309906 .035995485 .02999878 .026992798 .02999878 .026992798 .010986328 .026992798 .009994507 .026992798 0 .039993287 0 .069992069 0 .102996829 .0029907227 .13398743 .0029907227 .17098999 .0029907227 .20999146 0 .24598694 0 .2519989 0 .2639923 0 .2639923 .019989014 .2639923 .02999878 .2539978 .0309906 .2519989 .0309906 .24299622 .03199768 .21199036 .033996583 .21199036 .061965944 .21199036 .07795715 .22698975 .093948367 .23899842 .10694885L.34098817 .21487427 .43099977 .31282044 .5319977 .07395935C.5359955 .06297302 .5369873 .061965944 .5369873 .05996704 .5369873 .051986696 .5179901 .034988405 .47898866 .0309906 .46798707 .02999878 .45899964 .0289917 .45899964 .011993408 .45899964 0 .46998597 0 .47399903 0 .5019989 0 .57199099 .0029907227 .59999087 .0029907227 .625 .0029907227 .6859894 0 .71099856 0 .71798709 0 .7299957 0 .7299957 .018997193 .7299957 .0309906 .7200012 .0309906 .71199038 .0309906 .644989 .03199768 .6429901 .034988405 .6259918 .07496643 .58699038 .16790772 .519989 .32380677 .49699403 .3837738 .5649872 .45373536 .66999819 .5726471 .70199587 .6006317 .73098757 .62461856 .7689972 .64860537 .82899478 .6516113 .84199526 .65260317 .8509979 .65260317 .8509979 .6716156 .8509979 .6726074 .8509979 .6826172 .83799746 .6826172 .80799868 .6826172 .7749939 .6796112 .74398806 .6796112 .70700076 .6796112 .6689911 .6826172 .6329956 .6826172 .6269989 .6826172 .6139984 .6826172 .6139984 .6626129 .6139984 .65560916 .61898806 .65260317 .6259918 .6516113 .6349945 .65060427 .66600039 .64860537 .66600039 .6206207 .66600039 .6066284 .6549988 .5936432 .6469879 .5846405L.4850006 .41075135Z"/>
<path id="font_3_4" d="M.34599305 .2461853 .46299745 .37631227C.47599793 .39031983 .48199464 .3973236 .5649872 .3973236V.44433595C.5299988 .44232179 .47799684 .44132997 .47299195 .44132997 .44799806 .44132997 .397995 .44332887 .36999513 .44433595V.3973236C.38398744 .3973236 .3959961 .3953247 .4079895 .38832093 .4039917 .38230897 .4039917 .38031007 .3999939 .37631227L.31599427 .2822113 .21798706 .3973236H.2579956V.44433595C.23199463 .44332887 .16899109 .44132997 .13699341 .44132997 .10499573 .44132997 .05999756 .44332887 .026992798 .44433595V.3973236H.09799194L.2539978 .21315003 .12298584 .06600952C.10598755 .04699707 .069992069 .04699707 .021987915 .04699707V0C.056991579 .0019989014 .10899353 .0029907227 .11399841 .0029907227 .13899231 .0029907227 .19699097 .0009918213 .21699524 0V.04699707C.19898987 .04699707 .17999268 .052001954 .17999268 .057998659 .17999268 .059005739 .17999268 .05999756 .18699646 .06800842L.28399659 .17712403 .3939972 .04699707H.35499574V0C.3809967 .0009918213 .44198609 .0029907227 .47499085 .0029907227 .5069885 .0029907227 .5519867 .0009918213 .58499148 0V.04699707H.5139923L.34599305 .2461853Z"/>
<path id="font_1_1" d="M.6589966 .23046875C.6759949 .23046875 .69400027 .23046875 .69400027 .25045777 .69400027 .27046205 .6759949 .27046205 .6589966 .27046205H.117996219C.100997928 .27046205 .08299255 .27046205 .08299255 .25045777 .08299255 .23046875 .100997928 .23046875 .117996219 .23046875H.6589966Z"/>
<path id="font_3_1" d="M.21998596 .32917787C.21998596 .34817506 .22099304 .34918214 .23498535 .36317445 .2749939 .40419007 .32699586 .41018678 .34899903 .41018678 .41600038 .41018678 .47200013 .34918214 .47200013 .22315979 .47200013 .08213806 .4019928 .030136109 .33699037 .030136109 .32299806 .030136109 .27598573 .030136109 .23098755 .08413696 .21998596 .09713745 .21998596 .09814453 .21998596 .11714172V.32917787M.21998596 .039138795C.2630005 .004135132 .30699159-.005859375 .34799195-.005859375 .49798585-.005859375 .59999087 .08413696 .59999087 .22315979 .59999087 .35617066 .5089874 .4501953 .36499024 .4501953 .2899933 .4501953 .23699951 .41918946 .21398926 .40118409V.4501953L.036987306 .44218446V.39518739C.09899902 .39518739 .10598755 .39518739 .10598755 .35717774V-.14733887H.036987306V-.19433594C.06498718-.19334412 .125-.19134522 .16299439-.19134522 .20199585-.19134522 .26098634-.19334412 .2889862-.19433594V-.14733887H.21998596V.039138795Z"/>
<path id="font_2_1" d="M.73999026 .4358673C.73999026 .5970001 .6339874 .7050781 .4850006 .7050781 .2689972 .7050781 .04899597 .47790528 .04899597 .24472046 .04899597 .07859802 .16099549-.022460938 .30499269-.022460938 .5169983-.022460938 .73999026 .19668579 .73999026 .4358673M.31098939 .0035247803C.21199036 .0035247803 .14199829 .08459473 .14199829 .21670532 .14199829 .2607422 .1559906 .4068451 .23298645 .52394106 .3019867 .62802127 .3999939 .68006899 .47898866 .68006899 .5609894 .68006899 .651001 .62402346 .651001 .4748993 .651001 .4028473 .6239929 .24671936 .5249939 .12362671 .47698976 .062576297 .394989 .0035247803 .31098939 .0035247803Z"/>
<path id="font_2_2" d="M.30299378 .3157959H.47299195C.61499026 .3157959 .7539978 .41973878 .7539978 .53167727 .7539978 .6086273 .6879883 .6826172 .5569916 .6826172H.23298645C.21398926 .6826172 .20298767 .6826172 .20298767 .66360476 .20298767 .6516113 .21199036 .6516113 .23199463 .6516113 .24499512 .6516113 .2630005 .65060427 .2749939 .6496124 .29100038 .6476135 .29699708 .64460757 .29699708 .6336212 .29699708 .6296234 .29599 .62661746 .29299928 .614624L.15899658 .07795715C.14898682 .038986207 .14698792 .0309906 .067993167 .0309906 .050994874 .0309906 .039993287 .0309906 .039993287 .011993408 .039993287 0 .051986696 0 .054992677 0 .08299255 0 .1539917 .0029907227 .18199158 .0029907227 .20298767 .0029907227 .22499085 .0019989014 .24598694 .0019989014 .2679901 .0019989014 .2899933 0 .31098939 0 .31799317 0 .33099366 0 .33099366 .019989014 .33099366 .0309906 .32199098 .0309906 .30299378 .0309906 .2659912 .0309906 .23799134 .0309906 .23799134 .048980714 .23799134 .054977418 .23999024 .05996704 .24099732 .065963748L.30299378 .3157959M.375 .6136322C.38398744 .64860537 .38598634 .6516113 .42900086 .6516113H.5249939C.60798647 .6516113 .6609955 .62461856 .6609955 .55566409 .6609955 .5166931 .6409912 .43074037 .60198977 .39476014 .5519867 .34977723 .49198915 .34179688 .44799806 .34179688H.30699159L.375 .6136322Z"/>
<path id="font_4_2" d="M.68699648 .32714845C.70199587 .32714845 .72099307 .32714845 .72099307 .34713746 .72099307 .36714173 .70199587 .36714173 .6879883 .36714173H.08898926C.07499695 .36714173 .055999757 .36714173 .055999757 .34713746 .055999757 .32714845 .07499695 .32714845 .08999634 .32714845H.68699648M.6879883 .13284302C.70199587 .13284302 .72099307 .13284302 .72099307 .15284729 .72099307 .17285156 .70199587 .17285156 .68699648 .17285156H.08999634C.07499695 .17285156 .055999757 .17285156 .055999757 .15284729 .055999757 .13284302 .07499695 .13284302 .08898926 .13284302H.6879883Z"/>
<path id="font_4_1" d="M.40899659 .23046875H.6879883C.70199587 .23046875 .72099307 .23046875 .72099307 .25045777 .72099307 .27046205 .70199587 .27046205 .6879883 .27046205H.40899659V.5500183C.40899659 .56399539 .40899659 .5830078 .3889923 .5830078 .36898805 .5830078 .36898805 .56399539 .36898805 .5500183V.27046205H.08898926C.07499695 .27046205 .055999757 .27046205 .055999757 .25045777 .055999757 .23046875 .07499695 .23046875 .08898926 .23046875H.36898805V-.05000305C.36898805-.06401062 .36898805-.08300781 .3889923-.08300781 .40899659-.08300781 .40899659-.06401062 .40899659-.05000305V.23046875Z"/>
<path id="font_2_4" d="M.3909912 .37405396C.36299134 .37304688 .34298707 .3510437 .34298707 .32904054 .34298707 .31503297 .35198976 .30003358 .37399293 .30003358 .3959961 .30003358 .41999818 .31703187 .41999818 .35603334 .41999818 .40124513 .3769989 .4423828 .30099488 .4423828 .16899109 .4423828 .13198853 .3400421 .13198853 .29605104 .13198853 .21820069 .20599365 .20323181 .23498535 .19725037 .2869873 .18727112 .33898927 .17628479 .33898927 .12133789 .33898927 .095336917 .31599427 .011245728 .19599915 .011245728 .18199158 .011245728 .10499573 .011245728 .08198547 .064331058 .11999512 .059326173 .14498902 .08934021 .14498902 .11734009 .14498902 .14033509 .1289978 .15234375 .10798645 .15234375 .08198547 .15234375 .051986696 .1313324 .051986696 .08633423 .051986696 .029281617 .10899353-.0107421879 .19499207-.0107421879 .35699464-.0107421879 .3959961 .1103363 .3959961 .15533448 .3959961 .19125366 .3769989 .21620178 .36499024 .22817993 .33799745 .25613404 .30899049 .26112367 .2649994 .27009584 .22898865 .27807618 .18899536 .2850647 .18899536 .33003236 .18899536 .3590393 .21299744 .42037965 .30099488 .42037965 .32598878 .42037965 .37599183 .41333009 .3909912 .37405396Z"/>
<path id="font_3_2" d="M.43798829 .072143558V-.005859375L.61499026 .0001373291V.0471344C.5529938 .0471344 .54599 .0471344 .54599 .086135867V.4501953L.36299134 .44218446V.39518739C.4249878 .39518739 .43199159 .39518739 .43199159 .3561859V.16514588C.43199159 .08314514 .3809967 .030136109 .30799867 .030136109 .23098755 .030136109 .22799683 .055130006 .22799683 .10914612V.4501953L.04499817 .44218446V.39518739C.10699463 .39518739 .11399841 .39518739 .11399841 .3561859V.12315369C.11399841 .01612854 .19499207-.005859375 .2939911-.005859375 .31999208-.005859375 .3919983-.005859375 .43798829 .072143558Z"/>
<path id="font_2_5" d="M.20599365 .3996582H.2999878C.31999208 .3996582 .32998658 .3996582 .32998658 .41966249 .32998658 .43066407 .31999208 .43066407 .3019867 .43066407H.21398926C.25 .5724945 .25498963 .59246829 .25498963 .59846499 .25498963 .61546328 .24299622 .62545779 .22599793 .62545779 .22299195 .62545779 .19499207 .62446597 .18598938 .58947756L.14698792 .43066407H.052993776C.032989503 .43066407 .022994996 .43066407 .022994996 .4116516 .022994996 .3996582 .0309906 .3996582 .050994874 .3996582H.13899231C.066986087 .11608887 .06298828 .099121097 .06298828 .08114624 .06298828 .02722168 .100997928-.0107421879 .15499878-.0107421879 .25698854-.0107421879 .31399537 .13505554 .31399537 .14305115 .31399537 .1530304 .30599977 .1530304 .3019867 .1530304 .29299928 .1530304 .2919922 .15003968 .2869873 .13905335 .24398804 .035217287 .19099427 .011245728 .15699768 .011245728 .13598633 .011245728 .12599182 .024230957 .12599182 .057174684 .12599182 .08114624 .12799073 .088134769 .13198853 .10510254L.20599365 .3996582Z"/>
<path id="font_3_3" d="M.5059967 .37631227C.5119934 .39031983 .5159912 .3973236 .5799866 .3973236V.44433595C.5549927 .44232179 .526001 .44132997 .5009918 .44132997 .47599793 .44132997 .43099977 .44332887 .4099884 .44433595V.3973236C.42900086 .3973236 .45799256 .3943329 .45799256 .38632203 .45799256 .3853302 .45700074 .38331605 .45298768 .37431336L.33699037 .12416077 .20999146 .3973236H.2639923V.44433595C.23098755 .44232179 .14099121 .44132997 .13999939 .44132997 .11199951 .44132997 .066986087 .44332887 .025985718 .44433595V.3973236H.08999634L.2649994 .021087647C.2769928-.00390625 .2899933-.00390625 .30299378-.00390625 .31999208-.00390625 .32998658-.00091552737 .33999635 .020080567L.5059967 .37631227Z"/>
</defs>
<g>
<path transform="matrix(1,0,0,-1.00005,149.864,78.29711)" d="M83.51447-97.75568 211.07505 12.71538-9.86708 76.4956-137.42766-33.97546Z" fill="#ccccff" fill-opacity=".5"/>
<path transform="matrix(1,0,0,-1.00005,149.864,78.29711)" stroke-width=".3985" stroke-linecap="butt" stroke-miterlimit="10" stroke-linejoin="miter" fill="none" stroke="#000000" stroke-opacity=".5" d="M83.51447-97.75568 211.07505 12.71538-9.86708 76.4956-137.42766-33.97546Z"/>
</g>
<path transform="matrix(1,0,0,-1.00005,149.864,78.29711)" stroke-width=".3985" stroke-linecap="butt" stroke-miterlimit="10" stroke-linejoin="miter" fill="none" stroke="#000000" d="M-137.42766-33.97546"/>
<use data-text="P" xlink:href="#font_1_2" transform="matrix(9.9626,0,0,-9.963098,1.1679993,115.67798)"/>
<path transform="matrix(1,0,0,-1.00005,149.864,78.29711)" stroke-width=".59776" stroke-linecap="butt" stroke-miterlimit="10" stroke-linejoin="miter" fill="none" stroke="#ff0000" d="M-25.51512-22.0968 101.69211-5.05414"/>
<path transform="matrix(.99109,-.13277664,-.13277,-.99113956,251.85231,83.31183)" stroke-width=".59776" stroke-linecap="round" stroke-linejoin="round" fill="none" stroke="#ff0000" d="M-2.31136 2.751C-1.88908 1.10037-.94807 .32094 0 0-.94807-.32094-1.88908-1.10037-2.31136-2.751"/>
<use data-text="X" xlink:href="#font_2_3" transform="matrix(9.9626,0,0,-9.963098,255.768,86.67653)" fill="#ff0000"/>
<use data-text="x" xlink:href="#font_3_4" transform="matrix(9.9626,0,0,-9.963098,175.954,101.26526)" fill="#ff0000"/>
<use data-text="&#x2212;" xlink:href="#font_1_1" transform="matrix(9.9626,0,0,-9.963098,184.215,101.26526)" fill="#ff0000"/>
<use data-text="p" xlink:href="#font_3_1" transform="matrix(9.9626,0,0,-9.963098,194.177,101.26526)" fill="#ff0000"/>
<path transform="matrix(1,0,0,-1.00005,149.864,78.29711)" stroke-width=".59776" stroke-linecap="butt" stroke-miterlimit="10" stroke-linejoin="miter" fill="none" stroke="#000000" d="M-121.86407-99.84102-25.9803-22.47215"/>
<path transform="matrix(.77821,-.62796136,-.62793,-.77824887,124.11629,100.5827)" stroke-width=".59776" stroke-linecap="round" stroke-linejoin="round" fill="none" stroke="#000000" d="M-2.31136 2.751C-1.88908 1.10037-.94807 .32094 0 0-.94807-.32094-1.88908-1.10037-2.31136-2.751"/>
<use data-text="O" xlink:href="#font_2_1" transform="matrix(9.9626,0,0,-9.963098,16.503998,188.57062)"/>
<use data-text="p" xlink:href="#font_3_1" transform="matrix(9.9626,0,0,-9.963098,69.02501,137.68009)"/>
<use data-text="P" xlink:href="#font_2_2" transform="matrix(9.9626,0,0,-9.963098,112.94899,96.77503)"/>
<path transform="matrix(1,0,0,-1.00005,149.864,78.29711)" stroke-width=".59776" stroke-linecap="butt" stroke-miterlimit="10" stroke-linejoin="miter" fill="none" stroke="#000000" d="M-121.86407-99.84102 101.73407-5.20775"/>
<path transform="matrix(.9209,-.38975946,-.38974,-.920946,251.87329,83.388629)" stroke-width=".59776" stroke-linecap="round" stroke-linejoin="round" fill="none" stroke="#000000" d="M-2.31136 2.751C-1.88908 1.10037-.94807 .32094 0 0-.94807-.32094-1.88908-1.10037-2.31136-2.751"/>
<use data-text="x" xlink:href="#font_3_4" transform="matrix(9.9626,0,0,-9.963098,152.198,132.80283)"/>
<use data-text="=" xlink:href="#font_4_2" transform="matrix(9.9626,0,0,-9.963098,161.012,132.80283)"/>
<use data-text="p" xlink:href="#font_3_1" transform="matrix(9.9626,0,0,-9.963098,171.528,132.80283)"/>
<use data-text="+" xlink:href="#font_4_1" transform="matrix(9.9626,0,0,-9.963098,180.10701,132.80283)"/>
<use data-text="s" xlink:href="#font_2_4" transform="matrix(9.9626,0,0,-9.963098,190.07003,132.80283)"/>
<use data-text="u" xlink:href="#font_3_2" transform="matrix(9.9626,0,0,-9.963098,194.74004,132.80283)"/>
<use data-text="+" xlink:href="#font_4_1" transform="matrix(9.9626,0,0,-9.963098,203.31905,132.80283)"/>
<use data-text="t" xlink:href="#font_2_5" transform="matrix(9.9626,0,0,-9.963098,213.28105,132.80283)"/>
<use data-text="v" xlink:href="#font_3_3" transform="matrix(9.9626,0,0,-9.963098,216.87905,132.80283)"/>
<path transform="matrix(1,0,0,-1.00005,149.864,78.29711)" stroke-width=".59776" stroke-linecap="butt" stroke-miterlimit="10" stroke-linejoin="miter" fill="none" stroke="#0000ff" d="M-25.51512-22.0968-4.70688-4.07626"/>
<path transform="matrix(.7559,-.6546627,-.65463,-.75593778,145.38304,82.177928)" stroke-width=".59776" stroke-linecap="round" stroke-linejoin="round" fill="none" stroke="#0000ff" d="M-2.31136 2.751C-1.88908 1.10037-.94807 .32094 0 0-.94807-.32094-1.88908-1.10037-2.31136-2.751"/>
<use data-text="u" xlink:href="#font_3_2" transform="matrix(9.9626,0,0,-9.963098,132.79001,84.19641)" fill="#0000ff"/>
<path transform="matrix(1,0,0,-1.00005,149.864,78.29711)" stroke-width=".59776" stroke-linecap="butt" stroke-miterlimit="10" stroke-linejoin="miter" fill="none" stroke="#800080" d="M-25.51512-22.0968 20.80823 18.02052"/>
<path transform="matrix(.7559,-.6546627,-.65463,-.75593778,170.89815,60.080034)" stroke-width=".59776" stroke-linecap="round" stroke-linejoin="round" fill="none" stroke="#800080" d="M-2.31136 2.751C-1.88908 1.10037-.94807 .32094 0 0-.94807-.32094-1.88908-1.10037-2.31136-2.751"/>
<use data-text="s" xlink:href="#font_2_4" transform="matrix(9.9626,0,0,-9.963098,153.635,62.098306)" fill="#800080"/>
<use data-text="u" xlink:href="#font_3_2" transform="matrix(9.9626,0,0,-9.963098,158.305,62.098306)" fill="#800080"/>
<path transform="matrix(1,0,0,-1.00005,149.864,78.29711)" stroke-width=".59776" stroke-linecap="butt" stroke-miterlimit="10" stroke-linejoin="miter" fill="none" stroke="#0000ff" d="M21.26009 18.41183 57.50949 7.94757"/>
<path transform="matrix(.96072,.27735386,.27734,-.960768,207.66063,70.43203)" stroke-width=".59776" stroke-linecap="round" stroke-linejoin="round" fill="none" stroke="#0000ff" d="M-2.31136 2.751C-1.88908 1.10037-.94807 .32094 0 0-.94807-.32094-1.88908-1.10037-2.31136-2.751"/>
<use data-text="v" xlink:href="#font_3_3" transform="matrix(9.9626,0,0,-9.963098,204.845,64.0604)" fill="#0000ff"/>
<path transform="matrix(1,0,0,-1.00005,149.864,78.29711)" stroke-width=".59776" stroke-linecap="butt" stroke-miterlimit="10" stroke-linejoin="miter" fill="none" stroke="#0000ff" d="M-25.51512-22.0968 10.73427-32.56105"/>
<path transform="matrix(.96072,.27735386,.27734,-.960768,160.8854,110.94268)" stroke-width=".59776" stroke-linecap="round" stroke-linejoin="round" fill="none" stroke="#0000ff" d="M-2.31136 2.751C-1.88908 1.10037-.94807 .32094 0 0-.94807-.32094-1.88908-1.10037-2.31136-2.751"/>
<use data-text="v" xlink:href="#font_3_3" transform="matrix(9.9626,0,0,-9.963098,148.513,116.239009)" fill="#0000ff"/>
<path transform="matrix(1,0,0,-1.00005,149.864,78.29711)" stroke-width=".59776" stroke-linecap="butt" stroke-miterlimit="10" stroke-linejoin="miter" fill="none" stroke="#800080" d="M21.26009 18.41183 101.6978-4.80841"/>
<path transform="matrix(.96072,.27735386,.27734,-.960768,251.84894,83.18866)" stroke-width=".59776" stroke-linecap="round" stroke-linejoin="round" fill="none" stroke="#800080" d="M-2.31136 2.751C-1.88908 1.10037-.94807 .32094 0 0-.94807-.32094-1.88908-1.10037-2.31136-2.751"/>
<use data-text="t" xlink:href="#font_2_5" transform="matrix(9.9626,0,0,-9.963098,238.713,76.81704)" fill="#800080"/>
<use data-text="v" xlink:href="#font_3_3" transform="matrix(9.9626,0,0,-9.963098,242.311,76.81704)" fill="#800080"/>
</svg>
