<svg xmlns="http://www.w3.org/2000/svg" xmlns:xlink="http://www.w3.org/1999/xlink" xmlns:inkscape="http://www.inkscape.org/namespaces/inkscape" version="1.1" width="154" height="147" viewBox="0 0 154 147">
<g>
<path transform="matrix(1.00002,0,0,-1,76.55737,73.604007)" d="M20.23247-37.75407 75.50821 10.11624-20.23247 37.75407-75.50821-10.11624Z" fill="#ccccff" fill-opacity=".5"/>
<path transform="matrix(1.00002,0,0,-1,76.55737,73.604007)" stroke-width=".3985" stroke-linecap="butt" stroke-miterlimit="10" stroke-linejoin="miter" fill="none" stroke="#000000" stroke-opacity=".5" d="M20.23247-37.75407 75.50821 10.11624-20.23247 37.75407-75.50821-10.11624Z"/>
</g>
<g>
<path transform="matrix(1.00002,0,0,-1,76.55737,73.604007)" d="M-27.63785 23.93515 27.63785 71.8055V-23.93515L-27.63785-71.8055Z" fill="#ffcccc" fill-opacity=".5"/>
<path transform="matrix(1.00002,0,0,-1,76.55737,73.604007)" stroke-width=".3985" stroke-linecap="butt" stroke-miterlimit="10" stroke-linejoin="miter" fill="none" stroke="#000000" stroke-opacity=".5" d="M-27.63785 23.93515 27.63785 71.8055V-23.93515L-27.63785-71.8055Z"/>
</g>
<g>
<path transform="matrix(1.00002,0,0,-1,76.55737,73.604007)" d="M47.87033 34.05142V-61.68925L-47.87033-34.05142V61.68925Z" fill="#ccffcc" fill-opacity=".5"/>
<path transform="matrix(1.00002,0,0,-1,76.55737,73.604007)" stroke-width=".3985" stroke-linecap="butt" stroke-miterlimit="10" stroke-linejoin="miter" fill="none" stroke="#000000" stroke-opacity=".5" d="M47.87033 34.05142V-61.68925L-47.87033-34.05142V61.68925Z"/>
</g>
<path transform="matrix(1.00002,0,0,-1,76.55737,73.604007)" d="M1.94272 0C1.94272 1.07294 1.07294 1.94272 0 1.94272-1.07294 1.94272-1.94272 1.07294-1.94272 0-1.94272-1.07294-1.07294-1.94272 0-1.94272 1.07294-1.94272 1.94272-1.07294 1.94272 0ZM0 0"/>
</svg>
