<svg xmlns="http://www.w3.org/2000/svg" xmlns:xlink="http://www.w3.org/1999/xlink" xmlns:inkscape="http://www.inkscape.org/namespaces/inkscape" version="1.1" width="133" height="96" viewBox="0 0 133 96">
<defs>
<path id="font_1_1" d="M.43798829 .072143558V-.005859375L.61499026 .0001373291V.0471344C.5529938 .0471344 .54599 .0471344 .54599 .086135867V.4501953L.36299134 .44218446V.39518739C.4249878 .39518739 .43199159 .39518739 .43199159 .3561859V.16514588C.43199159 .08314514 .3809967 .030136109 .30799867 .030136109 .23098755 .030136109 .22799683 .055130006 .22799683 .10914612V.4501953L.04499817 .44218446V.39518739C.10699463 .39518739 .11399841 .39518739 .11399841 .3561859V.12315369C.11399841 .01612854 .19499207-.005859375 .2939911-.005859375 .31999208-.005859375 .3919983-.005859375 .43798829 .072143558Z"/>
<path id="font_1_2" d="M.5059967 .37631227C.5119934 .39031983 .5159912 .3973236 .5799866 .3973236V.44433595C.5549927 .44232179 .526001 .44132997 .5009918 .44132997 .47599793 .44132997 .43099977 .44332887 .4099884 .44433595V.3973236C.42900086 .3973236 .45799256 .3943329 .45799256 .38632203 .45799256 .3853302 .45700074 .38331605 .45298768 .37431336L.33699037 .12416077 .20999146 .3973236H.2639923V.44433595C.23098755 .44232179 .14099121 .44132997 .13999939 .44132997 .11199951 .44132997 .066986087 .44332887 .025985718 .44433595V.3973236H.08999634L.2649994 .021087647C.2769928-.00390625 .2899933-.00390625 .30299378-.00390625 .31999208-.00390625 .32998658-.00091552737 .33999635 .020080567L.5059967 .37631227Z"/>
<path id="font_2_1" d="M.6589966 .23046875C.6759949 .23046875 .69400027 .23046875 .69400027 .25045777 .69400027 .27046205 .6759949 .27046205 .6589966 .27046205H.117996219C.100997928 .27046205 .08299255 .27046205 .08299255 .25045777 .08299255 .23046875 .100997928 .23046875 .117996219 .23046875H.6589966Z"/>
<path id="font_3_1" d="M.45498658 .5001831C.45498658 .56614688 .43699647 .7050781 .33499146 .7050781 .19599915 .7050781 .041992189 .42323304 .041992189 .19425965 .041992189 .100250247 .070999149-.0107421879 .1619873-.0107421879 .30299378-.0107421879 .45498658 .27627564 .45498658 .5001831M.147995 .36328126C.16499329 .42723084 .18499756 .5071869 .22499085 .57814028 .2519989 .6271057 .2889862 .68307498 .33399964 .68307498 .3829956 .68307498 .3889923 .6191101 .3889923 .56214907 .3889923 .5131836 .3809967 .46220399 .35699464 .36328126H.147995M.34799195 .3312683C.33699037 .28527833 .31599427 .2002716 .27799989 .12826538 .24299622 .060256959 .20498657 .011245728 .1619873 .011245728 .1289978 .011245728 .10798645 .040252687 .10798645 .133255 .10798645 .17526245 .11399841 .23326111 .13999939 .3312683H.34799195Z"/>
</defs>
<path transform="matrix(1.00003,0,0,-1,1.1965027,93.818)" stroke-width=".59776" stroke-linecap="butt" stroke-miterlimit="10" stroke-linejoin="miter" fill="none" stroke="#000000" d="M0 0 118.46454 16.9235"/>
<path transform="matrix(.98993977,-.1414,-.14140424,-.98991,119.960498,76.852268)" stroke-width=".59776" stroke-linecap="round" stroke-linejoin="round" fill="none" stroke="#000000" d="M-2.31136 2.751C-1.88908 1.10037-.94807 .32094 0 0-.94807-.32094-1.88908-1.10037-2.31136-2.751"/>
<use data-text="u" xlink:href="#font_1_1" transform="matrix(9.962899,0,0,-9.9626,57.544198,93.361)"/>
<path transform="matrix(1.00003,0,0,-1,1.1965027,93.818)" stroke-width=".59776" stroke-linecap="butt" stroke-miterlimit="10" stroke-linejoin="miter" fill="none" stroke="#000000" d="M0 0 84.6341 91.40471"/>
<path transform="matrix(.6794004,-.73373,-.7337521,-.67938,86.036197,2.1939927)" stroke-width=".59776" stroke-linecap="round" stroke-linejoin="round" fill="none" stroke="#000000" d="M-2.31136 2.751C-1.88908 1.10037-.94807 .32094 0 0-.94807-.32094-1.88908-1.10037-2.31136-2.751"/>
<use data-text="v" xlink:href="#font_1_2" transform="matrix(9.962899,0,0,-9.9626,33.892484,50.11)"/>
<path transform="matrix(1.00003,0,0,-1,1.1965027,93.818)" stroke-width=".59776" stroke-linecap="butt" stroke-miterlimit="10" stroke-linejoin="miter" fill="none" stroke="#7f807f" d="M85.04019 91.8433 118.80894 17.55217"/>
<path transform="matrix(.41378243,.91031,.9103373,-.41377,120.13266,76.53791)" stroke-width=".59776" stroke-linecap="round" stroke-linejoin="round" fill="none" stroke="#7f807f" d="M-2.31136 2.751C-1.88908 1.10037-.94807 .32094 0 0-.94807-.32094-1.88908-1.10037-2.31136-2.751"/>
<use data-text="u" xlink:href="#font_1_1" transform="matrix(9.962899,0,0,-9.9626,106.867679,41.883)" fill="#7f807f"/>
<use data-text="&#x2212;" xlink:href="#font_2_1" transform="matrix(9.962899,0,0,-9.9626,115.44593,41.883)" fill="#7f807f"/>
<use data-text="v" xlink:href="#font_1_2" transform="matrix(9.962899,0,0,-9.9626,125.40923,41.883)" fill="#7f807f"/>
<path transform="matrix(1.00003,0,0,-1,1.1965027,93.818)" stroke-width=".79701" stroke-linecap="butt" stroke-miterlimit="10" stroke-linejoin="miter" fill="none" stroke="#000000" d="M27.21295 3.74176C27.21295 10.72356 24.8769 17.50722 20.57877 23.0087"/>
<use data-text="&#x03b8;" xlink:href="#font_3_1" transform="matrix(9.962899,0,0,-9.9626,32.73645,80.269)"/>
</svg>
