<svg xmlns="http://www.w3.org/2000/svg" xmlns:xlink="http://www.w3.org/1999/xlink" xmlns:inkscape="http://www.inkscape.org/namespaces/inkscape" version="1.1" width="221" height="211" viewBox="0 0 221 211">
<defs>
<path id="font_1_2" d="M.7259979 .43788148C.7259979 .60302737 .6179962 .70410159 .47799684 .70410159 .2639923 .70410159 .04798889 .47392274 .04798889 .24272156 .04798889 .08558655 .1519928-.021484375 .29699708-.021484375 .5069885-.021484375 .7259979 .19767761 .7259979 .43788148M.30299378 .0015106201C.22099304 .0015106201 .13398743 .061553956 .13398743 .21769715 .13398743 .30877687 .16699219 .457901 .24899292 .5579834 .32199098 .6460724 .4059906 .6820984 .47299195 .6820984 .5609894 .6820984 .6459961 .618042 .6459961 .47392274 .6459961 .38484193 .60798647 .24571228 .54100039 .15063477 .46798707 .048553468 .3769989 .0015106201 .30299378 .0015106201Z"/>
<path id="font_1_4" d="M.47399903 .40820313C.44198609 .40219117 .42999269 .3781891 .42999269 .3591919 .42999269 .33518983 .44898988 .3271942 .46299745 .3271942 .49299623 .3271942 .5139923 .3531952 .5139923 .380188 .5139923 .4223938 .46598817 .44140626 .42399598 .44140626 .36299134 .44140626 .32899476 .38119508 .31999208 .36219789 .29699708 .4373932 .23498535 .44140626 .21699524 .44140626 .114990238 .44140626 .06098938 .31021119 .06098938 .28822328 .06098938 .28422547 .06498718 .27923585 .07199097 .27923585 .07998657 .27923585 .08198547 .28523255 .083999637 .2892151 .117996219 .40019227 .18499756 .42140199 .21398926 .42140199 .25898744 .42140199 .2679901 .37919618 .2679901 .3551941 .2679901 .33319093 .2619934 .31021119 .25 .26223756L.21598816 .12535095C.20098877 .06535339 .17199707 .010223389 .11898804 .010223389 .11399841 .010223389 .08898926 .010223389 .067993167 .023330689 .10398865 .03036499 .11199951 .06036377 .11199951 .07235718 .11199951 .09236145 .09700012 .10435486 .07798767 .10435486 .053985597 .10435486 .027999878 .083358768 .027999878 .051361085 .027999878 .009231567 .07499695-.009765625 .117996219-.009765625 .1659851-.009765625 .19999695 .028366089 .22099304 .069366458 .23699951 .010223389 .2869873-.009765625 .32398988-.009765625 .42599488-.009765625 .47999574 .12135315 .47999574 .1433258 .47999574 .14833069 .47599793 .15232849 .46998597 .15232849 .46099855 .15232849 .45999146 .14732361 .45700074 .139328 .42999269 .051361085 .37199403 .010223389 .32699586 .010223389 .2919922 .010223389 .272995 .036361696 .272995 .07736206 .272995 .099365238 .2769928 .115356449 .29299928 .18130493L.32798768 .3171997C.34298707 .37719728 .3769989 .42140199 .4229889 .42140199 .4249878 .42140199 .45298768 .42140199 .47399903 .40820313Z"/>
<path id="font_1_5" d="M.2630005-.11172485C.23599243-.14982605 .19699097-.18411255 .147995-.18411255 .13598633-.18411255 .08799744-.18209839 .07299805-.13572693 .07598877-.13671875 .08099365-.13671875 .08299255-.13671875 .11299133-.13671875 .1329956-.11073303 .1329956-.08772278 .1329956-.06472778 .11399841-.056732179 .09899902-.056732179 .08299255-.056732179 .04798889-.068725589 .04798889-.11772156 .04798889-.16899109 .09098816-.20410156 .147995-.20410156 .24798584-.20410156 .34899903-.11172485 .3769989-.00077819827L.47499085 .38868714C.47599793 .39367677 .47799684 .39967347 .47799684 .4056549 .47799684 .4206543 .46598817 .43066407 .45098878 .43066407 .44198609 .43066407 .42099 .426651 .41299439 .39666749L.33898927 .10308838C.33399964 .085113529 .33399964 .08312988 .32598878 .072143558 .30599977 .04423523 .272995 .010223389 .22499085 .010223389 .16899109 .010223389 .1639862 .06524658 .1639862 .09225464 .1639862 .14929199 .19099427 .22631836 .21798706 .2983551 .22898865 .32736207 .23498535 .34136964 .23498535 .3613739 .23498535 .4033966 .20498657 .44140626 .1559906 .44140626 .06399536 .44140626 .026992798 .29634095 .026992798 .28834535 .026992798 .28434754 .0309906 .27934266 .037994386 .27934266 .04699707 .27934266 .04798889 .28334046 .051986696 .29734803 .07598877 .38137818 .11399841 .42140199 .15299988 .42140199 .1619873 .42140199 .1789856 .42140199 .1789856 .38838197 .1789856 .36238099 .16799927 .33335877 .15299988 .29534913 .10398865 .16429138 .10398865 .13127136 .10398865 .10726929 .10398865 .01222229 .17199707-.009765625 .22200012-.009765625 .25099183-.009765625 .2869873-.00077819827 .32199098 .036239625L.32299806 .035232545C.30799867-.023757935 .2979889-.06272888 .2630005-.11172485Z"/>
<path id="font_1_3" d="M.4169922 .6096344C.4229889 .6336212 .4249878 .64260867 .43998719 .64660647 .44799806 .64860537 .48098756 .64860537 .5019989 .64860537 .60198977 .64860537 .6489868 .64460757 .6489868 .5666504 .6489868 .55166628 .644989 .51368716 .6389923 .4767151L.6380005 .46472169C.6380005 .46072389 .6419983 .45472718 .647995 .45472718 .6579895 .45472718 .6579895 .4597168 .6609955 .475708L.6899872 .65260317C.69200137 .66160586 .69200137 .66360476 .69200137 .6666107 .69200137 .6776123 .6859894 .6776123 .66600039 .6776123H.11898804C.09599304 .6776123 .09498596 .6766052 .08898926 .6586151L.027999878 .478714C.026992798 .4767151 .023986817 .4657135 .023986817 .46472169 .023986817 .4597168 .027999878 .45472718 .033996583 .45472718 .041992189 .45472718 .04399109 .45872499 .04798889 .4717102 .08999634 .5926361 .11099243 .64860537 .24398804 .64860537H.31098939C.33499146 .64860537 .34498597 .64860537 .34498597 .637619 .34498597 .63461306 .34498597 .63261416 .33999635 .614624L.20599365 .07795715C.19599915 .038986207 .19400025 .0289917 .08799744 .0289917 .06298828 .0289917 .055999757 .0289917 .055999757 .009994507 .055999757 0 .066986087 0 .07199097 0 .09700012 0 .12298584 .0019989014 .147995 .0019989014H.3039856C.32899476 .0019989014 .35598756 0 .3809967 0 .3919983 0 .4019928 0 .4019928 .018997193 .4019928 .0289917 .394989 .0289917 .36898805 .0289917 .2789917 .0289917 .2789917 .037994386 .2789917 .052978517 .2789917 .053970338 .2789917 .06097412 .2829895 .07696533L.4169922 .6096344Z"/>
<path id="font_2_1" d="M.32499696-.24298096C.32499696-.23999024 .32499696-.23799134 .30799867-.22097779 .20799256-.11997986 .1519928 .045013429 .1519928 .24900818 .1519928 .44299317 .19898987 .60998538 .31498719 .7279968 .32499696 .7369995 .32499696 .7389984 .32499696 .74198916 .32499696 .74798586 .31999208 .75 .31599427 .75 .30299378 .75 .22099304 .6779938 .17199707 .5799866 .12098694 .47898866 .09799194 .37199403 .09799194 .24900818 .09799194 .16000366 .11199951 .041015626 .1639862-.06599426 .22299195-.18598938 .30499269-.25097657 .31599427-.25097657 .31999208-.25097657 .32499696-.24897766 .32499696-.24298096Z"/>
<path id="font_2_6" d="M.25-.25V-.2130127H.15299988V.71299746H.25V.75H.115997318V-.25H.25Z"/>
<path id="font_2_3" d="M.44799806 .31976319C.44799806 .40283204 .44299317 .48390199 .40699769 .55996707 .3659973 .64302065 .2939911 .66503909 .24499512 .66503909 .18699646 .66503909 .115997318 .63601687 .07899475 .552948 .050994874 .48989869 .040985109 .42785646 .040985109 .31976319 .040985109 .22268677 .04798889 .14962769 .083999637 .078567508 .12298584 .0025177003 .19198609-.021484375 .24398804-.021484375 .33099366-.021484375 .3809967 .030532837 .4099884 .08857727 .44599916 .16363526 .44799806 .26171876 .44799806 .31976319M.24398804-.0014953613C.21199036-.0014953613 .14698792 .016525269 .12799073 .12561035 .116989139 .18565369 .116989139 .26171876 .116989139 .33177186 .116989139 .41384889 .116989139 .48789979 .1329956 .5469513 .1499939 .6139984 .20098877 .6450348 .24398804 .6450348 .28199769 .6450348 .33999635 .6220093 .35899354 .53593447 .37199403 .4788971 .37199403 .39982606 .37199403 .33177186 .37199403 .26472474 .37199403 .18865967 .36099244 .12760926 .34199525 .01751709 .2789917-.0014953613 .24398804-.0014953613Z"/>
<path id="font_1_1" d="M.19499207-.0040130617C.19499207 .053985597 .17599488 .09700012 .1349945 .09700012 .102996829 .09700012 .08699036 .070999149 .08699036 .04899597 .08699036 .026992798 .101989749 0 .13598633 0 .14898682 0 .1599884 .0039978029 .16899109 .0129852299 .17098999 .01499939 .17199707 .01499939 .17298889 .01499939 .1749878 .01499939 .1749878 .0009918213 .1749878-.0040130617 .1749878-.037078859 .16899109-.10221863 .11099243-.1673584 .099990848-.17936707 .099990848-.18136597 .099990848-.18336487 .099990848-.18836975 .10499573-.19335938 .10998535-.19335938 .117996219-.19335938 .19499207-.119262699 .19499207-.0040130617Z"/>
<path id="font_2_4" d="M.28799439 .64105227C.28799439 .664032 .28799439 .66503909 .2679901 .66503909 .24398804 .6380615 .19400025 .6012573 .09098816 .6012573V.5722656C.11399841 .5722656 .1639862 .5722656 .21899414 .59825137V.07701111C.21899414 .041000368 .21598816 .0289917 .12799073 .0289917H.09700012V0C.12399292 .0019989014 .22099304 .0019989014 .2539978 .0019989014 .2869873 .0019989014 .3829956 .0019989014 .4099884 0V.0289917H.3789978C.29100038 .0289917 .28799439 .041000368 .28799439 .07701111V.64105227Z"/>
<path id="font_2_7" d="M.15499878 .75H.020996094V.71299746H.117996219V-.2130127H.020996094V-.25H.15499878V.75Z"/>
<path id="font_2_2" d="M.28199769 .24900818C.28199769 .32499696 .27198792 .44898988 .21598816 .5649872 .15699768 .68499758 .07499695 .75 .06399536 .75 .05999756 .75 .054992677 .74798586 .054992677 .74198916 .054992677 .7389984 .054992677 .7369995 .07199097 .71998599 .17199707 .61898806 .22799683 .45399476 .22799683 .25 .22799683 .056015016 .18099976-.11099243 .06498718-.22898865 .054992677-.23799134 .054992677-.23999024 .054992677-.24298096 .054992677-.24897766 .05999756-.25097657 .06399536-.25097657 .07699585-.25097657 .15899658-.1789856 .20799256-.08099365 .25898744 .021011353 .28199769 .12901306 .28199769 .24900818Z"/>
<path id="font_2_5" d="M.6749878 .32421876C.68899539 .32421876 .70700076 .32421876 .70700076 .34220887 .70700076 .36120606 .6899872 .36120606 .6749878 .36120606H.085998538C.07199097 .36120606 .053985597 .36120606 .053985597 .34321595 .053985597 .32421876 .070999149 .32421876 .085998538 .32421876H.6749878M.6749878 .13780213C.68899539 .13780213 .70700076 .13780213 .70700076 .15579224 .70700076 .17480469 .6899872 .17480469 .6749878 .17480469H.085998538C.07199097 .17480469 .053985597 .17480469 .053985597 .15679932 .053985597 .13780213 .070999149 .13780213 .085998538 .13780213H.6749878Z"/>
</defs>
<path transform="matrix(1.00003,0,0,-1.00006,31.882538,177.50786)" stroke-width=".3985" stroke-linecap="butt" stroke-miterlimit="10" stroke-linejoin="miter" fill="none" stroke="#000000" d="M0 0"/>
<use data-text="O" xlink:href="#font_1_2" transform="matrix(14.346631,0,0,-14.34706,17.237099,190.83167)"/>
<path transform="matrix(1.00003,0,0,-1.00006,31.882538,177.50786)" stroke-width=".59776" stroke-linecap="butt" stroke-miterlimit="10" stroke-linejoin="miter" fill="none" stroke="#000000" d="M-28.34636 0H162.39548"/>
<path transform="matrix(1.00003,0,0,-1.00006,194.58179,177.50786)" stroke-width=".59776" stroke-linecap="round" stroke-linejoin="round" fill="none" stroke="#000000" d="M-2.31136 2.751C-1.88908 1.10037-.94807 .32094 0 0-.94807-.32094-1.88908-1.10037-2.31136-2.751"/>
<use data-text="x" xlink:href="#font_1_4" transform="matrix(14.346631,0,0,-14.34706,198.50055,180.59604)"/>
<path transform="matrix(1.00003,0,0,-1.00006,31.882538,177.50786)" stroke-width=".59776" stroke-linecap="butt" stroke-miterlimit="10" stroke-linejoin="miter" fill="none" stroke="#000000" d="M0-28.34636V162.39548"/>
<path transform="matrix(0,-1.00006,-1.00003,-0,31.882538,14.803741)" stroke-width=".59776" stroke-linecap="round" stroke-linejoin="round" fill="none" stroke="#000000" d="M-2.31136 2.751C-1.88908 1.10037-.94807 .32094 0 0-.94807-.32094-1.88908-1.10037-2.31136-2.751"/>
<use data-text="y" xlink:href="#font_1_5" transform="matrix(14.346631,0,0,-14.34706,28.200425,8.095703)"/>
<path transform="matrix(1.00003,0,0,-1.00006,31.882538,177.50786)" stroke-width="1.59404" stroke-linecap="butt" stroke-miterlimit="10" stroke-linejoin="miter" fill="none" stroke="#ff0000" d="M0 0H140.14"/>
<path transform="matrix(1.00003,0,0,-1.00006,172.82378,177.50786)" stroke-width="1.59404" stroke-linecap="round" stroke-linejoin="round" fill="none" stroke="#ff0000" d="M-3.5069 4.55072C-2.8662 1.82025-1.43846 .5309 0 0-1.43846-.5309-2.8662-1.82025-3.5069-4.55072"/>
<path transform="matrix(1.00003,0,0,-1.00006,31.882538,177.50786)" stroke-width="1.59404" stroke-linecap="butt" stroke-miterlimit="10" stroke-linejoin="miter" fill="none" stroke="#0000ff" d="M0 0V140.14"/>
<path transform="matrix(0,-1.00006,-1.00003,-0,31.882538,36.562395)" stroke-width="1.59404" stroke-linecap="round" stroke-linejoin="round" fill="none" stroke="#0000ff" d="M-3.5069 4.55072C-2.8662 1.82025-1.43846 .5309 0 0-1.43846-.5309-2.8662-1.82025-3.5069-4.55072"/>
<path transform="matrix(1.00003,0,0,-1.00006,31.882538,177.50786)" stroke-width=".3985" stroke-linecap="butt" stroke-dasharray="2.98883,2.98883" stroke-miterlimit="10" stroke-linejoin="miter" fill="none" stroke="#000000" d="M-28.34636-28.34636 155.9083 155.9083"/>
<path transform="matrix(1.00003,0,0,-1.00006,31.882538,177.50786)" stroke-width=".3985" stroke-linecap="butt" stroke-miterlimit="10" stroke-linejoin="miter" fill="none" stroke="#000000" d="M141.73404-14.17424"/>
<use data-text="T" xlink:href="#font_1_3" transform="matrix(14.346631,0,0,-14.34706,125.47234,205.96356)" fill="#ff0000"/>
<use data-text="(" xlink:href="#font_2_1" transform="matrix(14.346631,0,0,-14.34706,135.65665,205.96457)" fill="#ff0000"/>
<use data-text="[" xlink:href="#font_2_6" transform="matrix(14.346631,0,0,-14.34706,141.10837,205.96457)" fill="#ff0000"/>
<use data-text="0" xlink:href="#font_2_3" transform="matrix(14.346631,0,0,-14.34706,144.9963,205.96457)" fill="#ff0000"/>
<use data-text="," xlink:href="#font_1_1" transform="matrix(14.346631,0,0,-14.34706,152.04615,205.96356)" fill="#ff0000"/>
<use data-text="1" xlink:href="#font_2_4" transform="matrix(14.346631,0,0,-14.34706,158.33936,205.96457)" fill="#ff0000"/>
<use data-text="]" xlink:href="#font_2_7" transform="matrix(14.346631,0,0,-14.34706,165.35486,205.96457)" fill="#ff0000"/>
<use data-text=")" xlink:href="#font_2_2" transform="matrix(14.346631,0,0,-14.34706,169.24277,205.96457)" fill="#ff0000"/>
<use data-text="=" xlink:href="#font_2_5" transform="matrix(14.346631,0,0,-14.34706,178.66852,205.96457)" fill="#ff0000"/>
<use data-text="[" xlink:href="#font_2_6" transform="matrix(14.346631,0,0,-14.34706,193.57468,205.96457)" fill="#ff0000"/>
<use data-text="1" xlink:href="#font_2_4" transform="matrix(14.346631,0,0,-14.34706,197.46262,205.96457)" fill="#ff0000"/>
<use data-text="," xlink:href="#font_1_1" transform="matrix(14.346631,0,0,-14.34706,204.54975,205.96356)" fill="#ff0000"/>
<use data-text="0" xlink:href="#font_2_3" transform="matrix(14.346631,0,0,-14.34706,210.84293,205.96457)" fill="#ff0000"/>
<use data-text="]" xlink:href="#font_2_7" transform="matrix(14.346631,0,0,-14.34706,217.85843,205.96457)" fill="#ff0000"/>
<path transform="matrix(1.00003,0,0,-1.00006,31.882538,177.50786)" stroke-width=".3985" stroke-linecap="butt" stroke-miterlimit="10" stroke-linejoin="miter" fill="none" stroke="#000000" d="M0 141.73404"/>
<use data-text="[" xlink:href="#font_2_6" transform="matrix(14.346631,0,0,-14.34706,.21759033,39.35257)" fill="#0000ff"/>
<use data-text="0" xlink:href="#font_2_3" transform="matrix(14.346631,0,0,-14.34706,4.105522,39.35257)" fill="#0000ff"/>
<use data-text="," xlink:href="#font_1_1" transform="matrix(14.346631,0,0,-14.34706,11.143921,39.353578)" fill="#0000ff"/>
<use data-text="1" xlink:href="#font_2_4" transform="matrix(14.346631,0,0,-14.34706,17.437104,39.35257)" fill="#0000ff"/>
<use data-text="]" xlink:href="#font_2_7" transform="matrix(14.346631,0,0,-14.34706,24.452607,39.35257)" fill="#0000ff"/>
<path transform="matrix(1.00003,0,0,-1.00006,31.882538,177.50786)" stroke-width=".3985" stroke-linecap="butt" stroke-miterlimit="10" stroke-linejoin="miter" fill="none" stroke="#000000" d="M148.82112 141.73404"/>
<use data-text="y" xlink:href="#font_1_5" transform="matrix(14.346631,0,0,-14.34706,184.22812,37.459474)"/>
<use data-text="=" xlink:href="#font_2_5" transform="matrix(14.346631,0,0,-14.34706,195.57746,37.46048)"/>
<use data-text="x" xlink:href="#font_1_4" transform="matrix(14.346631,0,0,-14.34706,210.4889,37.459474)"/>
</svg>
