<svg xmlns="http://www.w3.org/2000/svg" xmlns:xlink="http://www.w3.org/1999/xlink" xmlns:inkscape="http://www.inkscape.org/namespaces/inkscape" version="1.1" width="427" height="339" viewBox="0 0 427 339">
<defs>
<path id="font_1_2" d="M.7259979 .43788148C.7259979 .60302737 .6179962 .70410159 .47799684 .70410159 .2639923 .70410159 .04798889 .47392274 .04798889 .24272156 .04798889 .08558655 .1519928-.021484375 .29699708-.021484375 .5069885-.021484375 .7259979 .19767761 .7259979 .43788148M.30299378 .0015106201C.22099304 .0015106201 .13398743 .061553956 .13398743 .21769715 .13398743 .30877687 .16699219 .457901 .24899292 .5579834 .32199098 .6460724 .4059906 .6820984 .47299195 .6820984 .5609894 .6820984 .6459961 .618042 .6459961 .47392274 .6459961 .38484193 .60798647 .24571228 .54100039 .15063477 .46798707 .048553468 .3769989 .0015106201 .30299378 .0015106201Z"/>
<path id="font_1_4" d="M.47399903 .40820313C.44198609 .40219117 .42999269 .3781891 .42999269 .3591919 .42999269 .33518983 .44898988 .3271942 .46299745 .3271942 .49299623 .3271942 .5139923 .3531952 .5139923 .380188 .5139923 .4223938 .46598817 .44140626 .42399598 .44140626 .36299134 .44140626 .32899476 .38119508 .31999208 .36219789 .29699708 .4373932 .23498535 .44140626 .21699524 .44140626 .114990238 .44140626 .06098938 .31021119 .06098938 .28822328 .06098938 .28422547 .06498718 .27923585 .07199097 .27923585 .07998657 .27923585 .08198547 .28523255 .083999637 .2892151 .117996219 .40019227 .18499756 .42140199 .21398926 .42140199 .25898744 .42140199 .2679901 .37919618 .2679901 .3551941 .2679901 .33319093 .2619934 .31021119 .25 .26223756L.21598816 .12535095C.20098877 .06535339 .17199707 .010223389 .11898804 .010223389 .11399841 .010223389 .08898926 .010223389 .067993167 .023330689 .10398865 .03036499 .11199951 .06036377 .11199951 .07235718 .11199951 .09236145 .09700012 .10435486 .07798767 .10435486 .053985597 .10435486 .027999878 .083358768 .027999878 .051361085 .027999878 .009231567 .07499695-.009765625 .117996219-.009765625 .1659851-.009765625 .19999695 .028366089 .22099304 .069366458 .23699951 .010223389 .2869873-.009765625 .32398988-.009765625 .42599488-.009765625 .47999574 .12135315 .47999574 .1433258 .47999574 .14833069 .47599793 .15232849 .46998597 .15232849 .46099855 .15232849 .45999146 .14732361 .45700074 .139328 .42999269 .051361085 .37199403 .010223389 .32699586 .010223389 .2919922 .010223389 .272995 .036361696 .272995 .07736206 .272995 .099365238 .2769928 .115356449 .29299928 .18130493L.32798768 .3171997C.34298707 .37719728 .3769989 .42140199 .4229889 .42140199 .4249878 .42140199 .45298768 .42140199 .47399903 .40820313Z"/>
<path id="font_1_5" d="M.2630005-.11172485C.23599243-.14982605 .19699097-.18411255 .147995-.18411255 .13598633-.18411255 .08799744-.18209839 .07299805-.13572693 .07598877-.13671875 .08099365-.13671875 .08299255-.13671875 .11299133-.13671875 .1329956-.11073303 .1329956-.08772278 .1329956-.06472778 .11399841-.056732179 .09899902-.056732179 .08299255-.056732179 .04798889-.068725589 .04798889-.11772156 .04798889-.16899109 .09098816-.20410156 .147995-.20410156 .24798584-.20410156 .34899903-.11172485 .3769989-.00077819827L.47499085 .38868714C.47599793 .39367677 .47799684 .39967347 .47799684 .4056549 .47799684 .4206543 .46598817 .43066407 .45098878 .43066407 .44198609 .43066407 .42099 .426651 .41299439 .39666749L.33898927 .10308838C.33399964 .085113529 .33399964 .08312988 .32598878 .072143558 .30599977 .04423523 .272995 .010223389 .22499085 .010223389 .16899109 .010223389 .1639862 .06524658 .1639862 .09225464 .1639862 .14929199 .19099427 .22631836 .21798706 .2983551 .22898865 .32736207 .23498535 .34136964 .23498535 .3613739 .23498535 .4033966 .20498657 .44140626 .1559906 .44140626 .06399536 .44140626 .026992798 .29634095 .026992798 .28834535 .026992798 .28434754 .0309906 .27934266 .037994386 .27934266 .04699707 .27934266 .04798889 .28334046 .051986696 .29734803 .07598877 .38137818 .11399841 .42140199 .15299988 .42140199 .1619873 .42140199 .1789856 .42140199 .1789856 .38838197 .1789856 .36238099 .16799927 .33335877 .15299988 .29534913 .10398865 .16429138 .10398865 .13127136 .10398865 .10726929 .10398865 .01222229 .17199707-.009765625 .22200012-.009765625 .25099183-.009765625 .2869873-.00077819827 .32199098 .036239625L.32299806 .035232545C.30799867-.023757935 .2979889-.06272888 .2630005-.11172485Z"/>
<path id="font_2_1" d="M.35299684 .44218446V.39918519C.4149933 .39918519 .42199708 .39918519 .42199708 .36018373V.16415406C.42199708 .088134769 .3769989 .027130127 .29899598 .027130127 .22399903 .027130127 .21998596 .052139284 .21998596 .10714722V.4501953L.041992189 .44218446V.39918519C.10398865 .39918519 .11099243 .39918519 .11099243 .36018373V.12315369C.11099243 .023132325 .17799378-.005859375 .2849884-.005859375 .30899049-.005859375 .3829956-.005859375 .42599488 .07513428H.4269867V-.005859375L.59999087 .0001373291V.043136598C.5379944 .043136598 .5309906 .043136598 .5309906 .08213806V.4501953L.35299684 .44218446Z"/>
<path id="font_2_2" d="M.49499513 .37831117C.5019989 .3933258 .5059967 .4013214 .56900027 .4013214V.44433595C.5329895 .44232179 .5309906 .44232179 .48999024 .44232179 .46299745 .44232179 .46099855 .44232179 .4039917 .44433595V.4013214C.43099977 .4013214 .45298768 .3963318 .45298768 .389328 .45298768 .38832093 .45298768 .38731385 .44799806 .37731935L.33099366 .120162967 .20199585 .4013214H.25698854V.44433595C.23399353 .44232179 .1639862 .44232179 .13699341 .44232179 .10798645 .44232179 .049987794 .44232179 .023986817 .44433595V.4013214H.08699036L.2630005 .019104004C.27198792 .00010681152 .27398683-.0048828127 .29699708-.0048828127 .31298829-.0048828127 .32099916-.0028839112 .32998658 .017105103L.49499513 .37831117Z"/>
<path id="font_3_3" d="M.39898683 .23057556H.6749878C.68899539 .23057556 .70700076 .23057556 .70700076 .24856568 .70700076 .26757813 .6899872 .26757813 .6749878 .26757813H.39898683V.5441437C.39898683 .5581665 .39898683 .5761719 .3809967 .5761719 .3619995 .5761719 .3619995 .5591583 .3619995 .5441437V.26757813H.085998538C.07199097 .26757813 .053985597 .26757813 .053985597 .24957276 .053985597 .23057556 .070999149 .23057556 .085998538 .23057556H.3619995V-.045166017C.3619995-.059158327 .3619995-.07714844 .37998963-.07714844 .39898683-.07714844 .39898683-.060150148 .39898683-.045166017V.23057556Z"/>
<path id="font_1_3" d="M.36799623 .61460879C.3769989 .6516113 .3809967 .6536102 .41999818 .6536102H.49198915C.5779877 .6536102 .6419983 .62760928 .6419983 .54959109 .6419983 .49858094 .6159973 .3515625 .4149933 .3515625H.3019867L.36799623 .61460879M.5069885 .33955384C.6309967 .3665619 .7279968 .44657899 .7279968 .5325928 .7279968 .6105957 .6489868 .6826172 .5099945 .6826172H.23899842C.21899414 .6826172 .20999146 .6826172 .20999146 .66360476 .20999146 .6536102 .21699524 .6536102 .23599243 .6536102 .29599 .6536102 .29599 .6456146 .29599 .63461306 .29599 .6325989 .29599 .6266022 .2919922 .6116028L.15699768 .073516849C.147995 .038513185 .1459961 .028518677 .07699585 .028518677 .053985597 .028518677 .04699707 .028518677 .04699707 .009506226 .04699707-.00048828127 .057998659-.00048828127 .06098938-.00048828127 .07899475-.00048828127 .099990848 .0015106201 .11898804 .0015106201H.23699951C.25498963 .0015106201 .27598573-.00048828127 .2939911-.00048828127 .3019867-.00048828127 .31298829-.00048828127 .31298829 .018508912 .31298829 .028518677 .3039856 .028518677 .2889862 .028518677 .22799683 .028518677 .22799683 .036514284 .22799683 .04650879 .22799683 .04751587 .22799683 .054519655 .22999573 .06251526L.29699708 .33155824H.4169922C.5119934 .33155824 .5299988 .2715454 .5299988 .23854065 .5299988 .22354126 .519989 .1845398 .5130005 .15852356 .5019989 .11251831 .49899293 .10151672 .49899293 .08251953 .49899293 .011505127 .5569916-.021484375 .6239929-.021484375 .7049866-.021484375 .73999026 .07751465 .73999026 .09152222 .73999026 .098526 .7350006 .10151672 .72898867 .10151672 .72099307 .10151672 .71899417 .09552002 .71699526 .087524417 .69299319 .01651001 .6519928-.0014953613 .6269989-.0014953613 .60198977-.0014953613 .58599856 .009506226 .58599856 .054519655 .58599856 .07852173 .59799197 .16952515 .598999 .17453003 .60398867 .2115326 .60398867 .2155304 .60398867 .22354126 .60398867 .29655458 .54499819 .32754518 .5069885 .33955384Z"/>
<path id="font_4_1" d="M.45498658 .5001831C.45498658 .56614688 .43699647 .7050781 .33499146 .7050781 .19599915 .7050781 .041992189 .42323304 .041992189 .19425965 .041992189 .100250247 .070999149-.0107421879 .1619873-.0107421879 .30299378-.0107421879 .45498658 .27627564 .45498658 .5001831M.147995 .36328126C.16499329 .42723084 .18499756 .5071869 .22499085 .57814028 .2519989 .6271057 .2889862 .68307498 .33399964 .68307498 .3829956 .68307498 .3889923 .6191101 .3889923 .56214907 .3889923 .5131836 .3809967 .46220399 .35699464 .36328126H.147995M.34799195 .3312683C.33699037 .28527833 .31599427 .2002716 .27799989 .12826538 .24299622 .060256959 .20498657 .011245728 .1619873 .011245728 .1289978 .011245728 .10798645 .040252687 .10798645 .133255 .10798645 .17526245 .11399841 .23326111 .13999939 .3312683H.34799195Z"/>
<path id="font_3_1" d="M.32499696-.24298096C.32499696-.23999024 .32499696-.23799134 .30799867-.22097779 .20799256-.11997986 .1519928 .045013429 .1519928 .24900818 .1519928 .44299317 .19898987 .60998538 .31498719 .7279968 .32499696 .7369995 .32499696 .7389984 .32499696 .74198916 .32499696 .74798586 .31999208 .75 .31599427 .75 .30299378 .75 .22099304 .6779938 .17199707 .5799866 .12098694 .47898866 .09799194 .37199403 .09799194 .24900818 .09799194 .16000366 .11199951 .041015626 .1639862-.06599426 .22299195-.18598938 .30499269-.25097657 .31599427-.25097657 .31999208-.25097657 .32499696-.24897766 .32499696-.24298096Z"/>
<path id="font_3_2" d="M.28199769 .24900818C.28199769 .32499696 .27198792 .44898988 .21598816 .5649872 .15699768 .68499758 .07499695 .75 .06399536 .75 .05999756 .75 .054992677 .74798586 .054992677 .74198916 .054992677 .7389984 .054992677 .7369995 .07199097 .71998599 .17199707 .61898806 .22799683 .45399476 .22799683 .25 .22799683 .056015016 .18099976-.11099243 .06498718-.22898865 .054992677-.23799134 .054992677-.23999024 .054992677-.24298096 .054992677-.24897766 .05999756-.25097657 .06399536-.25097657 .07699585-.25097657 .15899658-.1789856 .20799256-.08099365 .25898744 .021011353 .28199769 .12901306 .28199769 .24900818Z"/>
<path id="font_3_4" d="M.6749878 .32421876C.68899539 .32421876 .70700076 .32421876 .70700076 .34220887 .70700076 .36120606 .6899872 .36120606 .6749878 .36120606H.085998538C.07199097 .36120606 .053985597 .36120606 .053985597 .34321595 .053985597 .32421876 .070999149 .32421876 .085998538 .32421876H.6749878M.6749878 .13780213C.68899539 .13780213 .70700076 .13780213 .70700076 .15579224 .70700076 .17480469 .6899872 .17480469 .6749878 .17480469H.085998538C.07199097 .17480469 .053985597 .17480469 .053985597 .15679932 .053985597 .13780213 .070999149 .13780213 .085998538 .13780213H.6749878Z"/>
<path id="font_1_1" d="M.44299317 .50320437C.44299317 .6051483 .41099549 .70410159 .32899476 .70410159 .18899536 .70410159 .039993287 .41127015 .039993287 .19126892 .039993287 .14524842 .049987794-.009765625 .15499878-.009765625 .29100038-.009765625 .44299317 .27627564 .44299317 .50320437M.13999939 .3623047C.15499878 .42126466 .17599488 .50520327 .21598816 .5761566 .24899292 .63612368 .28399659 .6840973 .32798768 .6840973 .36099244 .6840973 .3829956 .6561127 .3829956 .56018069 .3829956 .52420046 .37998963 .4742279 .35099793 .3623047H.13999939M.34399415 .33229066C.31900025 .23426819 .2979889 .17126465 .2619934 .10824585 .23298645 .057235719 .19799805 .010223389 .1559906 .010223389 .125 .010223389 .099990848 .034225465 .099990848 .133255 .099990848 .1982727 .115997318 .26628114 .13198853 .33229066H.34399415Z"/>
</defs>
<path transform="matrix(1.00002,0,0,-1,175.98925,252.617)" stroke-width=".3985" stroke-linecap="butt" stroke-miterlimit="10" stroke-linejoin="miter" fill="none" stroke="#000000" d="M0 0"/>
<use data-text="O" xlink:href="#font_1_2" transform="matrix(14.346487,0,0,-14.3462,161.34395,265.94)"/>
<path transform="matrix(1.00002,0,0,-1,175.98925,252.617)" stroke-width=".59776" stroke-linecap="butt" stroke-miterlimit="10" stroke-linejoin="miter" fill="none" stroke="#000000" d="M-85.04034 0H237.51604"/>
<path transform="matrix(1.00002,0,0,-1,413.80894,252.617)" stroke-width=".59776" stroke-linecap="round" stroke-linejoin="round" fill="none" stroke="#000000" d="M-2.31136 2.751C-1.88908 1.10037-.94807 .32094 0 0-.94807-.32094-1.88908-1.10037-2.31136-2.751"/>
<use data-text="x" xlink:href="#font_1_4" transform="matrix(14.346487,0,0,-14.3462,417.72709,255.705)"/>
<path transform="matrix(1.00002,0,0,-1,175.98925,252.617)" stroke-width=".59776" stroke-linecap="butt" stroke-miterlimit="10" stroke-linejoin="miter" fill="none" stroke="#000000" d="M0-85.04034V237.51604"/>
<path transform="matrix(0,-1,-1.00002,-0,175.98925,14.802078)" stroke-width=".59776" stroke-linecap="round" stroke-linejoin="round" fill="none" stroke="#000000" d="M-2.31136 2.751C-1.88908 1.10037-.94807 .32094 0 0-.94807-.32094-1.88908-1.10037-2.31136-2.751"/>
<use data-text="y" xlink:href="#font_1_5" transform="matrix(14.346487,0,0,-14.3462,172.30716,8.094009)"/>
<path transform="matrix(1.00002,0,0,-1,175.98925,252.617)" stroke-width="1.59404" stroke-linecap="butt" stroke-miterlimit="10" stroke-linejoin="miter" fill="none" stroke="#0000ff" d="M0 0H111.79312"/>
<path transform="matrix(1.00002,0,0,-1,288.58168,252.617)" stroke-width="1.59404" stroke-linecap="round" stroke-linejoin="round" fill="none" stroke="#0000ff" d="M-3.5069 4.55072C-2.8662 1.82025-1.43846 .5309 0 0-1.43846-.5309-2.8662-1.82025-3.5069-4.55072"/>
<path transform="matrix(1.00002,0,0,-1,175.98925,252.617)" stroke-width="1.59404" stroke-linecap="butt" stroke-miterlimit="10" stroke-linejoin="miter" fill="none" stroke="#0000ff" d="M0 0 67.07658 89.43318"/>
<path transform="matrix(.60000208,-.79997,-.799986,-.59999,243.5454,162.5462)" stroke-width="1.59404" stroke-linecap="round" stroke-linejoin="round" fill="none" stroke="#0000ff" d="M-3.5069 4.55072C-2.8662 1.82025-1.43846 .5309 0 0-1.43846-.5309-2.8662-1.82025-3.5069-4.55072"/>
<path transform="matrix(1.00002,0,0,-1,175.98925,252.617)" stroke-width="1.59404" stroke-linecap="butt" stroke-miterlimit="10" stroke-linejoin="miter" fill="none" stroke="#0000ff" d="M0 0 179.99449 89.99557"/>
<path transform="matrix(.8943979,-.44717,-.44717894,-.89438,356.70018,162.26505)" stroke-width="1.59404" stroke-linecap="round" stroke-linejoin="round" fill="none" stroke="#0000ff" d="M-3.5069 4.55072C-2.8662 1.82025-1.43846 .5309 0 0-1.43846-.5309-2.8662-1.82025-3.5069-4.55072"/>
<path transform="matrix(1.00002,0,0,-1,175.98925,252.617)" stroke-width="1.59404" stroke-linecap="butt" stroke-miterlimit="10" stroke-linejoin="miter" fill="none" stroke="#000000" d="M0 0-89.99557 179.99449"/>
<path transform="matrix(-.44717894,-.89438,-.8943979,.44717,85.635478,71.9097)" stroke-width="1.59404" stroke-linecap="round" stroke-linejoin="round" fill="none" stroke="#000000" d="M-3.5069 4.55072C-2.8662 1.82025-1.43846 .5309 0 0-1.43846-.5309-2.8662-1.82025-3.5069-4.55072"/>
<path transform="matrix(1.00002,0,0,-1,175.98925,252.617)" stroke-width=".3985" stroke-linecap="butt" stroke-dasharray="2.98883,2.98883" stroke-miterlimit="10" stroke-linejoin="miter" fill="none" stroke="#000000" d="M113.38718 0 181.42017 90.70837"/>
<path transform="matrix(1.00002,0,0,-1,175.98925,252.617)" stroke-width=".3985" stroke-linecap="butt" stroke-dasharray="2.98883,2.98883" stroke-miterlimit="10" stroke-linejoin="miter" fill="none" stroke="#000000" d="M68.03297 90.70837H181.42017"/>
<path transform="matrix(1.00002,0,0,-1,175.98925,252.617)" stroke-width="1.59404" stroke-linecap="butt" stroke-miterlimit="10" stroke-linejoin="miter" fill="none" stroke="#ff0000" d="M0 0V111.79312"/>
<path transform="matrix(0,-1,-1.00002,-0,175.98925,140.02686)" stroke-width="1.59404" stroke-linecap="round" stroke-linejoin="round" fill="none" stroke="#ff0000" d="M-3.5069 4.55072C-2.8662 1.82025-1.43846 .5309 0 0-1.43846-.5309-2.8662-1.82025-3.5069-4.55072"/>
<path transform="matrix(1.00002,0,0,-1,175.98925,252.617)" stroke-width="1.59404" stroke-linecap="butt" stroke-miterlimit="10" stroke-linejoin="miter" fill="none" stroke="#ff0000" d="M0 0-89.43318 67.07658"/>
<path transform="matrix(-.799986,-.59999,-.60000208,.79997,85.91665,185.0622)" stroke-width="1.59404" stroke-linecap="round" stroke-linejoin="round" fill="none" stroke="#ff0000" d="M-3.5069 4.55072C-2.8662 1.82025-1.43846 .5309 0 0-1.43846-.5309-2.8662-1.82025-3.5069-4.55072"/>
<path transform="matrix(1.00002,0,0,-1,175.98925,252.617)" stroke-width=".3985" stroke-linecap="butt" stroke-dasharray="2.98883,2.98883" stroke-miterlimit="10" stroke-linejoin="miter" fill="none" stroke="#000000" d="M0 113.38718-90.70837 181.42017"/>
<path transform="matrix(1.00002,0,0,-1,175.98925,252.617)" stroke-width=".3985" stroke-linecap="butt" stroke-dasharray="2.98883,2.98883" stroke-miterlimit="10" stroke-linejoin="miter" fill="none" stroke="#000000" d="M-90.70837 68.03297V181.42017"/>
<path transform="matrix(1.00002,0,0,-1,175.98925,252.617)" stroke-width=".3985" stroke-linecap="butt" stroke-miterlimit="10" stroke-linejoin="miter" fill="none" stroke="#000000" d="M68.03297 0"/>
<use data-text="u" xlink:href="#font_2_1" transform="matrix(14.346487,0,0,-14.3462,239.54051,262.513)" fill="#0000ff"/>
<path transform="matrix(1.00002,0,0,-1,175.98925,252.617)" stroke-width=".3985" stroke-linecap="butt" stroke-miterlimit="10" stroke-linejoin="miter" fill="none" stroke="#000000" d="M56.69353 90.70837"/>
<use data-text="v" xlink:href="#font_2_2" transform="matrix(14.346487,0,0,-14.3462,220.42113,165.09702)" fill="#0000ff"/>
<path transform="matrix(1.00002,0,0,-1,175.98925,252.617)" stroke-width=".3985" stroke-linecap="butt" stroke-miterlimit="10" stroke-linejoin="miter" fill="none" stroke="#000000" d="M181.42017 90.70837"/>
<use data-text="u" xlink:href="#font_2_1" transform="matrix(14.346487,0,0,-14.3462,339.90754,157.293)" fill="#0000ff"/>
<use data-text="+" xlink:href="#font_3_3" transform="matrix(14.346487,0,0,-14.3462,352.06275,157.293)" fill="#0000ff"/>
<use data-text="v" xlink:href="#font_2_2" transform="matrix(14.346487,0,0,-14.3462,366.17604,157.293)" fill="#0000ff"/>
<path transform="matrix(1.00002,0,0,-1,175.98925,252.617)" stroke-width=".3985" stroke-linecap="butt" stroke-miterlimit="10" stroke-linejoin="miter" fill="none" stroke="#000000" d="M-90.70837 181.42017"/>
<use data-text="R" xlink:href="#font_1_3" transform="matrix(14.346487,0,0,-14.3462,.2137146,64.09001)" fill="#ff0000"/>
<use data-text="&#x03b8;" xlink:href="#font_4_1" transform="matrix(9.962799,0,0,-9.9626,10.906921,66.242008)" fill="#ff0000"/>
<use data-text="(" xlink:href="#font_3_1" transform="matrix(14.346487,0,0,-14.3462,16.358033,64.09001)" fill="#ff0000"/>
<use data-text="u" xlink:href="#font_2_1" transform="matrix(14.346487,0,0,-14.3462,21.821137,64.09001)" fill="#ff0000"/>
<use data-text="+" xlink:href="#font_3_3" transform="matrix(14.346487,0,0,-14.3462,33.97638,64.09001)" fill="#ff0000"/>
<use data-text="v" xlink:href="#font_2_2" transform="matrix(14.346487,0,0,-14.3462,48.08966,64.09001)" fill="#ff0000"/>
<use data-text=")" xlink:href="#font_3_2" transform="matrix(14.346487,0,0,-14.3462,56.83185,64.09001)" fill="#ff0000"/>
<use data-text="=" xlink:href="#font_3_4" transform="matrix(14.346487,0,0,-14.3462,66.25751,64.09001)" fill="#ff0000"/>
<use data-text="R" xlink:href="#font_1_3" transform="matrix(14.346487,0,0,-14.3462,81.191349,64.09001)" fill="#ff0000"/>
<use data-text="&#x03b8;" xlink:href="#font_4_1" transform="matrix(9.962799,0,0,-9.9626,91.883548,66.242008)" fill="#ff0000"/>
<use data-text="(" xlink:href="#font_3_1" transform="matrix(14.346487,0,0,-14.3462,97.33566,64.09001)" fill="#ff0000"/>
<use data-text="u" xlink:href="#font_2_1" transform="matrix(14.346487,0,0,-14.3462,102.79776,64.09001)" fill="#ff0000"/>
<use data-text=")" xlink:href="#font_3_2" transform="matrix(14.346487,0,0,-14.3462,111.76495,64.09001)" fill="#ff0000"/>
<use data-text="+" xlink:href="#font_3_3" transform="matrix(14.346487,0,0,-14.3462,120.40155,64.09001)" fill="#ff0000"/>
<use data-text="R" xlink:href="#font_1_3" transform="matrix(14.346487,0,0,-14.3462,134.52942,64.09001)" fill="#ff0000"/>
<use data-text="&#x03b8;" xlink:href="#font_4_1" transform="matrix(9.962799,0,0,-9.9626,145.22162,66.242008)" fill="#ff0000"/>
<use data-text="(" xlink:href="#font_3_1" transform="matrix(14.346487,0,0,-14.3462,150.67374,64.09001)" fill="#ff0000"/>
<use data-text="v" xlink:href="#font_2_2" transform="matrix(14.346487,0,0,-14.3462,156.13684,64.09001)" fill="#ff0000"/>
<use data-text=")" xlink:href="#font_3_2" transform="matrix(14.346487,0,0,-14.3462,164.87903,64.09001)" fill="#ff0000"/>
<path transform="matrix(1.00002,0,0,-1,175.98925,252.617)" stroke-width=".3985" stroke-linecap="butt" stroke-miterlimit="10" stroke-linejoin="miter" fill="none" stroke="#000000" d="M4.53638 113.38718"/>
<use data-text="R" xlink:href="#font_1_3" transform="matrix(14.346487,0,0,-14.3462,184.04541,142.81601)" fill="#ff0000"/>
<use data-text="&#x03b8;" xlink:href="#font_4_1" transform="matrix(9.962799,0,0,-9.9626,194.73862,144.96799)" fill="#ff0000"/>
<use data-text="(" xlink:href="#font_3_1" transform="matrix(14.346487,0,0,-14.3462,200.18973,142.81601)" fill="#ff0000"/>
<use data-text="u" xlink:href="#font_2_1" transform="matrix(14.346487,0,0,-14.3462,205.65283,142.81601)" fill="#ff0000"/>
<use data-text=")" xlink:href="#font_3_2" transform="matrix(14.346487,0,0,-14.3462,214.62003,142.81601)" fill="#ff0000"/>
<path transform="matrix(1.00002,0,0,-1,175.98925,252.617)" stroke-width=".3985" stroke-linecap="butt" stroke-miterlimit="10" stroke-linejoin="miter" fill="none" stroke="#000000" d="M-90.70837 68.03297"/>
<use data-text="R" xlink:href="#font_1_3" transform="matrix(14.346487,0,0,-14.3462,45.94664,188.171)" fill="#ff0000"/>
<use data-text="&#x03b8;" xlink:href="#font_4_1" transform="matrix(9.962799,0,0,-9.9626,56.639848,190.323)" fill="#ff0000"/>
<use data-text="(" xlink:href="#font_3_1" transform="matrix(14.346487,0,0,-14.3462,62.090959,188.171)" fill="#ff0000"/>
<use data-text="v" xlink:href="#font_2_2" transform="matrix(14.346487,0,0,-14.3462,67.55406,188.171)" fill="#ff0000"/>
<use data-text=")" xlink:href="#font_3_2" transform="matrix(14.346487,0,0,-14.3462,76.29625,188.171)" fill="#ff0000"/>
<path transform="matrix(1.00002,0,0,-1,175.98925,252.617)" stroke-width=".79701" stroke-linecap="butt" stroke-miterlimit="10" stroke-linejoin="miter" fill="none" stroke="#000000" d="M44.62059 22.30847C32.29869 46.95229 2.33282 56.9409-21.59818 44.97539"/>
<path transform="matrix(-.89437797,.44717,.44717894,.89436,154.03423,207.81981)" stroke-width=".79701" stroke-linecap="round" stroke-linejoin="round" fill="none" stroke="#000000" d="M-2.55046 3.11095C-2.0845 1.24435-1.04614 .36295 0 0-1.04614-.36295-2.0845-1.24435-2.55046-3.11095"/>
<use data-text="&#x03b8;" xlink:href="#font_1_1" transform="matrix(14.346487,0,0,-14.3462,194.03061,193.06)"/>
</svg>
