<svg xmlns="http://www.w3.org/2000/svg" xmlns:xlink="http://www.w3.org/1999/xlink" xmlns:inkscape="http://www.inkscape.org/namespaces/inkscape" version="1.1" width="88" height="115" viewBox="0 0 88 115">
<g>
<path transform="matrix(1.00008,0,0,-1.00002,38.87639,58.45885)" d="M36.82368 26.19363V-47.45372L-36.82368-26.19363V47.45372Z" fill="#ccffcc" fill-opacity=".5"/>
<path transform="matrix(1.00008,0,0,-1.00002,38.87639,58.45885)" stroke-width=".3985" stroke-linecap="butt" stroke-miterlimit="10" stroke-linejoin="miter" fill="none" stroke="#000000" stroke-opacity=".5" d="M36.82368 26.19363V-47.45372L-36.82368-26.19363V47.45372Z"/>
</g>
<g>
<path transform="matrix(1.00008,0,0,-1.00002,38.87639,58.45885)" d="M47.45374 35.39957V-38.24779L-26.19363-16.98772V56.65964Z" fill="#ccccff" fill-opacity=".5"/>
<path transform="matrix(1.00008,0,0,-1.00002,38.87639,58.45885)" stroke-width=".3985" stroke-linecap="butt" stroke-miterlimit="10" stroke-linejoin="miter" fill="none" stroke="#000000" stroke-opacity=".5" d="M47.45374 35.39957V-38.24779L-26.19363-16.98772V56.65964Z"/>
</g>
<g>
<path transform="matrix(1.00008,0,0,-1.00002,38.87639,58.45885)" d="M-21.26009 18.41183 21.26009 55.23553V-18.41183L-21.26009-55.23553Z" fill="#ffcccc" fill-opacity=".5"/>
<path transform="matrix(1.00008,0,0,-1.00002,38.87639,58.45885)" stroke-width=".3985" stroke-linecap="butt" stroke-miterlimit="10" stroke-linejoin="miter" fill="none" stroke="#000000" stroke-opacity=".5" d="M-21.26009 18.41183 21.26009 55.23553V-18.41183L-21.26009-55.23553Z"/>
</g>
</svg>
