<svg xmlns="http://www.w3.org/2000/svg" xmlns:xlink="http://www.w3.org/1999/xlink" xmlns:inkscape="http://www.inkscape.org/namespaces/inkscape" version="1.1" width="187" height="148" viewBox="0 0 187 148">
<defs>
<path id="font_1_1" d="M.2679901 .31362916H.3039856L.45399476 .08192444C.46398927 .06594849 .48799134 .026992798 .49899293 .011993408 .5059967 0 .5089874 0 .5319977 0H.66999819C.6879883 0 .7029877 0 .7029877 .017990113 .7029877 .025985718 .69699099 .032989503 .6879883 .034988405 .651001 .04298401 .60198977 .10890198 .5779877 .14085388 .57099917 .15083313 .5209961 .2167511 .45399476 .32463075 .54299929 .34062196 .6289978 .37861634 .6289978 .4975891 .6289978 .63656619 .48199464 .6845703 .3639984 .6845703H.049987794C.03199768 .6845703 .015991211 .6845703 .015991211 .66656497 .015991211 .64956668 .034988405 .64956668 .042999269 .64956668 .099990848 .64956668 .10499573 .64256289 .10499573 .5925751V.091918949C.10499573 .04197693 .099990848 .034988405 .042999269 .034988405 .034988405 .034988405 .015991211 .034988405 .015991211 .017990113 .015991211 0 .03199768 0 .049987794 0H.32398988C.34199525 0 .35699464 0 .35699464 .017990113 .35699464 .034988405 .33999635 .034988405 .32899476 .034988405 .27198792 .034988405 .2679901 .04298401 .2679901 .091918949V.31362916M.46099855 .36262513C.4889984 .39961244 .49198915 .4526062 .49198915 .4965973 .49198915 .5445862 .48599244 .59757998 .45399476 .63856509 .49499513 .6295624 .59399417 .5985718 .59399417 .4975891 .59399417 .43260194 .56399539 .3816223 .46099855 .36262513M.2679901 .59558108C.2679901 .61657717 .2679901 .64956668 .32998658 .64956668 .4149933 .64956668 .45700074 .614563 .45700074 .4965973 .45700074 .36761476 .42599488 .3486328 .2679901 .3486328V.59558108M.13198853 .034988405C.13999939 .052963258 .13999939 .08093262 .13999939 .089920047V.594574C.13999939 .6045685 .13999939 .6315613 .13198853 .64956668H.24598694C.23298645 .6335602 .23298645 .61357119 .23298645 .5985718V.089920047C.23298645 .079940799 .23298645 .052963258 .24099732 .034988405H.13198853M.34498597 .31362916C.35198976 .31462098 .35598756 .31562806 .3639984 .31562806 .3789978 .31562806 .40098573 .31762696 .41600038 .31962586 .43099977 .2956543 .5389862 .117889408 .621994 .034988405H.5249939L.34498597 .31362916Z"/>
<path id="font_2_3" d="M.28399659 .6252594C.28399659 .6452637 .269989 .6612549 .24699402 .6612549 .21998596 .6612549 .19299317 .6352539 .19299317 .6082611 .19299317 .5892639 .20698548 .5722656 .23098755 .5722656 .2539978 .5722656 .28399659 .5952606 .28399659 .6252594M.20799256 .24932862C.21998596 .27833558 .21998596 .28033448 .22999573 .30734254 .23799134 .3273468 .24299622 .34135438 .24299622 .36035157 .24299622 .405365 .21099854 .4423828 .16099549 .4423828 .066986087 .4423828 .0289917 .29733277 .0289917 .28833009 .0289917 .27833558 .038986207 .27833558 .040985109 .27833558 .050994874 .27833558 .051986696 .28033448 .056991579 .29634095 .083999637 .3903656 .12399292 .42037965 .1579895 .42037965 .1659851 .42037965 .18299866 .42037965 .18299866 .3883667 .18299866 .36735536 .17599488 .346344 .17199707 .3363495 .1639862 .31033326 .11898804 .19430542 .102996829 .1512909 .09298706 .12528992 .07998657 .0922699 .07998657 .0712738 .07998657 .024261475 .11399841-.0107421879 .1619873-.0107421879 .2559967-.0107421879 .29299928 .1342926 .29299928 .14329529 .29299928 .1532898 .28399659 .1532898 .2809906 .1532898 .2709961 .1532898 .2709961 .15029907 .2659912 .13528443 .24798584 .072265628 .21499634 .011245728 .1639862 .011245728 .14698792 .011245728 .13999939 .021255494 .13999939 .044265748 .13999939 .0692749 .1459961 .08326721 .16899109 .14428711L.20799256 .24932862Z"/>
<path id="font_2_1" d="M.37298585 .37835694C.35499574 .41537477 .32598878 .4423828 .2809906 .4423828 .1639862 .4423828 .039993287 .29533387 .039993287 .14929199 .039993287 .055267335 .09498596-.0107421879 .17298889-.0107421879 .19299317-.0107421879 .24299622-.0067443849 .30299378 .06427002 .31098939 .022247315 .34599305-.0107421879 .3939972-.0107421879 .42900086-.0107421879 .45199586 .012252808 .46798707 .044265748 .4850006 .08027649 .49798585 .14129639 .49798585 .14329529 .49798585 .1532898 .4889984 .1532898 .48599244 .1532898 .47599793 .1532898 .47499085 .14929199 .47200013 .13528443 .45498658 .07026672 .43699647 .011245728 .3959961 .011245728 .36898805 .011245728 .3659973 .037261964 .3659973 .057266237 .3659973 .07926941 .36799623 .08728027 .3789978 .13128662 .3899994 .17329407 .3919983 .18330384 .40098573 .22131348L.43699647 .36135865C.44400025 .38935853 .44400025 .39135743 .44400025 .39537049 .44400025 .41236878 .43199159 .42237855 .4149933 .42237855 .3909912 .42237855 .37599183 .4003601 .37298585 .37835694M.30799867 .119277957C.30299378 .10127258 .30299378 .09927368 .28799439 .08227539 .24398804 .027252198 .20298767 .011245728 .1749878 .011245728 .125 .011245728 .11099243 .06626892 .11099243 .105285648 .11099243 .1552887 .14299011 .27833558 .1659851 .32434083 .19699097 .38336183 .24198914 .42037965 .28199769 .42037965 .34700013 .42037965 .36099244 .3383484 .36099244 .33235169 .36099244 .32633973 .35899354 .32034303 .35798646 .31533814L.30799867 .119277957Z"/>
<path id="font_3_1" d="M.33499146 .63612368C.33499146 .6630554 .33299256 .6640625 .30499269 .6640625 .24099732 .6014404 .1499939 .6004486 .10899353 .6004486V.5644531C.1329956 .5644531 .19898987 .5644531 .2539978 .592453V.08203125C.2539978 .04899597 .2539978 .035995485 .1539917 .035995485H.115997318V0C.13398743 .0009918213 .25698854 .0039978029 .2939911 .0039978029 .32499696 .0039978029 .45098878 .0009918213 .47299195 0V.035995485H.43499757C.33499146 .035995485 .33499146 .04899597 .33499146 .08203125V.63612368Z"/>
<path id="font_4_3" d="M.40899659 .23046875H.6879883C.70199587 .23046875 .72099307 .23046875 .72099307 .25045777 .72099307 .27046205 .70199587 .27046205 .6879883 .27046205H.40899659V.5500183C.40899659 .56399539 .40899659 .5830078 .3889923 .5830078 .36898805 .5830078 .36898805 .56399539 .36898805 .5500183V.27046205H.08898926C.07499695 .27046205 .055999757 .27046205 .055999757 .25045777 .055999757 .23046875 .07499695 .23046875 .08898926 .23046875H.36898805V-.05000305C.36898805-.06401062 .36898805-.08300781 .3889923-.08300781 .40899659-.08300781 .40899659-.06401062 .40899659-.05000305V.23046875Z"/>
<path id="font_3_2" d="M.5049896 .18203736H.47099305C.46798707 .16001892 .45799256 .100997928 .44499208 .09098816 .43699647 .084991458 .3600006 .084991458 .34599305 .084991458H.1619873C.2669983 .17803955 .3019867 .20603943 .3619995 .25306703 .43598939 .312088 .5049896 .374115 .5049896 .46914674 .5049896 .5900879 .39898683 .6640625 .2709961 .6640625 .14698792 .6640625 .06298828 .57710269 .06298828 .4851532 .06298828 .43414308 .10598755 .42915345 .115997318 .42915345 .13999939 .42915345 .16899109 .44615174 .16899109 .48214723 .16899109 .5001526 .1619873 .53515627 .10998535 .53515627 .14099121 .6060791 .20899964 .62805178 .2559967 .62805178 .35598756 .62805178 .4079895 .5501404 .4079895 .46914674 .4079895 .38212586 .34599305 .3130951 .31399537 .27708436L.07299805 .038986207C.06298828 .02999878 .06298828 .027999878 .06298828 0H.47499085L.5049896 .18203736Z"/>
<path id="font_2_2" d="M.23899842 .68333438C.23899842 .6843262 .23899842 .69433596 .22599793 .69433596 .20298767 .69433596 .12998963 .6863251 .10398865 .6843262 .09599304 .68333438 .084991458 .6823273 .084991458 .6643219 .084991458 .6523285 .09399414 .6523285 .10899353 .6523285 .15699768 .6523285 .15899658 .6453247 .15899658 .6353302 .15899658 .6283264 .1499939 .5943451 .14498902 .573349L.06298828 .24731446C.050994874 .1973114 .04699707 .18130493 .04699707 .14628601 .04699707 .05126953 .099990848-.0107421879 .17399597-.0107421879 .2919922-.0107421879 .4149933 .1382904 .4149933 .28233338 .4149933 .37335206 .3619995 .4423828 .28199769 .4423828 .23599243 .4423828 .19499207 .41337586 .16499329 .38235475L.23899842 .68333438M.14498902 .30534364C.15098572 .3273468 .15098572 .3293457 .1599884 .3403473 .20899964 .405365 .2539978 .42037965 .27999879 .42037965 .31599427 .42037965 .34298707 .3903656 .34298707 .32633973 .34298707 .26733399 .30999757 .15229798 .2919922 .11428833 .25898744 .04725647 .21299744 .011245728 .17399597 .011245728 .13999939 .011245728 .10699463 .038253786 .10699463 .11227417 .10699463 .13128662 .10699463 .15029907 .12298584 .21331787L.14498902 .30534364Z"/>
<path id="font_4_1" d="M.33099366-.2400055C.33099366-.23701477 .33099366-.23500061 .31399537-.21800232 .18899536-.0920105 .15699768 .09700012 .15699768 .25 .15699768 .42399598 .19499207 .59799197 .31799317 .72299197 .33099366 .73498538 .33099366 .7369995 .33099366 .73999026 .33099366 .746994 .32699586 .75 .32099916 .75 .31098939 .75 .22099304 .6819916 .1619873 .5549927 .11099243 .44499208 .09899902 .33399964 .09899902 .25 .09899902 .17199707 .10998535 .050994874 .16499329-.06201172 .22499085-.18501282 .31098939-.25 .32099916-.25 .32699586-.25 .33099366-.24700928 .33099366-.2400055Z"/>
<path id="font_4_2" d="M.2889862 .25C.2889862 .32798768 .27799989 .44898988 .22299195 .56199648 .16299439 .68499758 .07699585 .75 .066986087 .75 .06098938 .75 .056991579 .74598696 .056991579 .73999026 .056991579 .7369995 .056991579 .73498538 .07598877 .71699526 .17399597 .6179962 .23098755 .45899964 .23098755 .25 .23098755 .07899475 .19400025-.09700012 .069992069-.2230072 .056991579-.23500061 .056991579-.23701477 .056991579-.2400055 .056991579-.2460022 .06098938-.25 .066986087-.25 .07699585-.25 .16699219-.18200684 .22599793-.055007936 .2769928 .054992677 .2889862 .16600037 .2889862 .25Z"/>
</defs>
<path transform="matrix(1.00003,0,0,-1.00009,35.99463,116.579418)" stroke-width=".59776" stroke-linecap="butt" stroke-miterlimit="10" stroke-linejoin="miter" fill="none" stroke="#000000" d="M-30.04755 0H119.5924"/>
<path transform="matrix(1.00003,0,0,-1.00009,155.88953,116.579418)" stroke-width=".59776" stroke-linecap="round" stroke-linejoin="round" fill="none" stroke="#000000" d="M-2.31136 2.751C-1.88908 1.10037-.94807 .32094 0 0-.94807-.32094-1.88908-1.10037-2.31136-2.751"/>
<use data-text="R" xlink:href="#font_1_1" transform="matrix(9.962899,0,0,-9.963496,159.80835,120.01173)"/>
<path transform="matrix(1.00003,0,0,-1.00009,35.99463,116.579418)" stroke-width=".59776" stroke-linecap="butt" stroke-miterlimit="10" stroke-linejoin="miter" fill="none" stroke="#000000" d="M0-30.04755V104.56863"/>
<path transform="matrix(0,-1.00009,-1.00003,-0,35.99463,11.702454)" stroke-width=".59776" stroke-linecap="round" stroke-linejoin="round" fill="none" stroke="#000000" d="M-2.31136 2.751C-1.88908 1.10037-.94807 .32094 0 0-.94807-.32094-1.88908-1.10037-2.31136-2.751"/>
<use data-text="i" xlink:href="#font_2_3" transform="matrix(9.962899,0,0,-9.963496,30.680466,7.7836229)"/>
<use data-text="R" xlink:href="#font_1_1" transform="matrix(9.962899,0,0,-9.963496,34.11257,7.7836229)"/>
<path transform="matrix(1.00003,0,0,-1.00009,35.99463,116.579418)" stroke-width=".59776" stroke-linecap="butt" stroke-miterlimit="10" stroke-linejoin="miter" fill="none" stroke="#000000" d="M0 0 89.55304 14.9255"/>
<path transform="matrix(.9863696,-.1643948,-.16438493,-.98642876,125.84517,101.60345)" stroke-width=".59776" stroke-linecap="round" stroke-linejoin="round" fill="none" stroke="#000000" d="M-2.31136 2.751C-1.88908 1.10037-.94807 .32094 0 0-.94807-.32094-1.88908-1.10037-2.31136-2.751"/>
<use data-text="a" xlink:href="#font_2_1" transform="matrix(9.962899,0,0,-9.963496,129.75945,104.09229)"/>
<use data-text="1" xlink:href="#font_3_1" transform="matrix(6.9740097,0,0,-6.9744279,135.0256,105.586429)"/>
<use data-text="+" xlink:href="#font_4_3" transform="matrix(9.962899,0,0,-9.963496,141.70981,104.09229)"/>
<use data-text="i" xlink:href="#font_2_3" transform="matrix(9.962899,0,0,-9.963496,151.6721,104.09229)"/>
<use data-text="a" xlink:href="#font_2_1" transform="matrix(9.962899,0,0,-9.963496,155.09935,104.09229)"/>
<use data-text="2" xlink:href="#font_3_2" transform="matrix(6.9740097,0,0,-6.9744279,160.37137,105.586429)"/>
<path transform="matrix(1.00003,0,0,-1.00009,35.99463,116.579418)" stroke-width=".3985" stroke-linecap="butt" stroke-miterlimit="10" stroke-linejoin="miter" fill="none" stroke="#7f807f" d="M90.14264 15.02376 105.08827 89.75188"/>
<path transform="matrix(.19610588,-.98063829,-.98057946,-.19611764,141.12514,26.62407)" stroke-width=".3985" stroke-linecap="round" stroke-linejoin="round" fill="none" stroke="#7f807f" d="M-2.07224 2.39104C-1.69365 .95639-.84999 .27895 0 0-.84999-.27895-1.69365-.95639-2.07224-2.39104"/>
<path transform="matrix(1.00003,0,0,-1.00009,35.99463,116.579418)" stroke-width=".59776" stroke-linecap="butt" stroke-miterlimit="10" stroke-linejoin="miter" fill="none" stroke="#000000" d="M0 0 14.90654 74.53273"/>
<path transform="matrix(.19610588,-.98063829,-.98057946,-.19611764,50.96021,41.746889)" stroke-width=".59776" stroke-linecap="round" stroke-linejoin="round" fill="none" stroke="#000000" d="M-2.31136 2.751C-1.88908 1.10037-.94807 .32094 0 0-.94807-.32094-1.88908-1.10037-2.31136-2.751"/>
<path transform="matrix(1.00003,0,0,-1.00009,35.99463,116.579418)" stroke-width=".3985" stroke-linecap="butt" stroke-miterlimit="10" stroke-linejoin="miter" fill="none" stroke="#000000" d="M7.51187 37.55942"/>
<use data-text="b" xlink:href="#font_2_2" transform="matrix(9.962899,0,0,-9.963496,1.2175827,81.72928)"/>
<use data-text="1" xlink:href="#font_3_1" transform="matrix(6.9740097,0,0,-6.9744279,5.4937136,83.22341)"/>
<use data-text="+" xlink:href="#font_4_3" transform="matrix(9.962899,0,0,-9.963496,12.176918,81.72928)"/>
<use data-text="i" xlink:href="#font_2_3" transform="matrix(9.962899,0,0,-9.963496,22.140206,81.72928)"/>
<use data-text="b" xlink:href="#font_2_2" transform="matrix(9.962899,0,0,-9.963496,25.567452,81.72928)"/>
<use data-text="2" xlink:href="#font_3_2" transform="matrix(6.9740097,0,0,-6.9744279,29.848443,83.22341)"/>
<path transform="matrix(1.00003,0,0,-1.00009,35.99463,116.579418)" stroke-width=".3985" stroke-linecap="butt" stroke-miterlimit="10" stroke-linejoin="miter" fill="none" stroke="#7f807f" d="M15.02376 75.11885 104.77335 90.07713"/>
<path transform="matrix(.9863696,-.1643948,-.16438493,-.98642876,140.96765,26.461403)" stroke-width=".3985" stroke-linecap="round" stroke-linejoin="round" fill="none" stroke="#7f807f" d="M-2.07224 2.39104C-1.69365 .95639-.84999 .27895 0 0-.84999-.27895-1.69365-.95639-2.07224-2.39104"/>
<path transform="matrix(1.00003,0,0,-1.00009,35.99463,116.579418)" stroke-width=".59776" stroke-linecap="butt" stroke-miterlimit="10" stroke-linejoin="miter" fill="none" stroke="#000000" d="M0 0 104.11154 89.153"/>
<path transform="matrix(.7595428,-.65044859,-.6504096,-.75958839,140.3363,27.223992)" stroke-width=".59776" stroke-linecap="round" stroke-linejoin="round" fill="none" stroke="#000000" d="M-2.31136 2.751C-1.88908 1.10037-.94807 .32094 0 0-.94807-.32094-1.88908-1.10037-2.31136-2.751"/>
<use data-text="(" xlink:href="#font_4_1" transform="matrix(9.962899,0,0,-9.963496,94.35138,20.918808)"/>
<use data-text="a" xlink:href="#font_2_1" transform="matrix(9.962899,0,0,-9.963496,98.2265,20.918808)"/>
<use data-text="1" xlink:href="#font_3_1" transform="matrix(6.9740097,0,0,-6.9744279,103.49266,22.412941)"/>
<use data-text="+" xlink:href="#font_4_3" transform="matrix(9.962899,0,0,-9.963496,110.17586,20.918808)"/>
<use data-text="b" xlink:href="#font_2_2" transform="matrix(9.962899,0,0,-9.963496,120.13916,20.918808)"/>
<use data-text="1" xlink:href="#font_3_1" transform="matrix(6.9740097,0,0,-6.9744279,124.414279,22.412941)"/>
<use data-text=")" xlink:href="#font_4_2" transform="matrix(9.962899,0,0,-9.963496,128.88442,20.918808)"/>
<use data-text="+" xlink:href="#font_4_3" transform="matrix(9.962899,0,0,-9.963496,134.96179,20.918808)"/>
<use data-text="i" xlink:href="#font_2_3" transform="matrix(9.962899,0,0,-9.963496,144.9349,20.918808)"/>
<use data-text="(" xlink:href="#font_4_1" transform="matrix(9.962899,0,0,-9.963496,148.36801,20.918808)"/>
<use data-text="a" xlink:href="#font_2_1" transform="matrix(9.962899,0,0,-9.963496,152.24211,20.918808)"/>
<use data-text="2" xlink:href="#font_3_2" transform="matrix(6.9740097,0,0,-6.9744279,157.50829,22.412941)"/>
<use data-text="+" xlink:href="#font_4_3" transform="matrix(9.962899,0,0,-9.963496,164.19149,20.918808)"/>
<use data-text="b" xlink:href="#font_2_2" transform="matrix(9.962899,0,0,-9.963496,174.15477,20.918808)"/>
<use data-text="2" xlink:href="#font_3_2" transform="matrix(6.9740097,0,0,-6.9744279,178.43091,22.412941)"/>
<use data-text=")" xlink:href="#font_4_2" transform="matrix(9.962899,0,0,-9.963496,182.90004,20.918808)"/>
</svg>
